<svg width="70" height="85" viewBox="0 0 70 85" fill="none" xmlns="http://www.w3.org/2000/svg">
<path d="M27.8037 66.7327C27.8037 64.5065 28.6565 62.4299 30.2338 60.8526C31.8287 59.2947 33.9071 58.4418 36.0945 58.4418H41.0092V43.0647H27.2832V54.3975C27.2832 55.1202 26.8559 55.7884 26.1895 56.0856C25.5125 56.3986 24.73 56.2562 24.2043 55.7884L20.5134 52.5055L16.8225 55.7884C16.2845 56.2702 15.4862 56.3828 14.8373 56.0856C14.1691 55.7884 13.7436 55.1202 13.7436 54.3975V43.0647H0V84.0388H41.0092V75.0428H36.0945C31.5139 75.0428 27.8037 71.315 27.8037 66.7327ZM12.5954 81.0706H5.62158C4.60171 81.0706 3.76648 80.2354 3.76648 79.2155C3.76648 78.1956 4.60171 77.3604 5.62158 77.3604H12.5954C13.6152 77.3604 14.4505 78.1956 14.4505 79.2155C14.4505 80.2371 13.6152 81.0706 12.5954 81.0706ZM12.5954 75.1167H5.62158C4.60171 75.1167 3.76648 74.2815 3.76648 73.2616C3.76648 72.2224 4.60171 71.4065 5.62158 71.4065H12.5954C13.6152 71.4065 14.4505 72.2224 14.4505 73.2616C14.4505 74.2832 13.6152 75.1167 12.5954 75.1167Z" fill="white"/>
<path d="M51.1184 32.606H35.9276C30.3254 32.606 25.0766 35.1468 21.5352 39.3582H42.8645C43.9037 39.3582 44.7196 40.1741 44.7196 41.2133V58.4438H55.3297V52.0081C55.3297 50.9882 56.165 50.153 57.1848 50.153C58.2047 50.153 59.0399 50.9882 59.0399 52.0081V60.2989C59.0399 61.3188 58.2047 62.154 57.1848 62.154H36.0947C34.8884 62.154 33.7208 62.6182 32.8487 63.4886C31.9765 64.3414 31.5123 65.5108 31.5123 66.7346C31.5123 69.2579 33.5714 71.3346 36.0929 71.3346H60.7262C65.8449 71.3346 70 67.1795 70 62.0608V51.4876C70.0018 41.0814 61.5245 32.606 51.1184 32.606Z" fill="white"/>
<path d="M20.5155 48.1678C20.9603 48.1678 21.3876 48.3348 21.7393 48.6495L23.5751 50.2638V43.0667H17.4541V50.2638L19.2723 48.6495C19.6257 48.3348 20.0706 48.1678 20.5155 48.1678Z" fill="white"/>
<path d="M43.5238 29.5867C51.694 29.5867 58.3172 22.9635 58.3172 14.7934C58.3172 6.62321 51.694 0 43.5238 0C35.3537 0 28.7305 6.62321 28.7305 14.7934C28.7305 22.9635 35.3537 29.5867 43.5238 29.5867Z" fill="white"/>
</svg>
