<svg width="77" height="77" viewBox="0 0 77 77" fill="none" xmlns="http://www.w3.org/2000/svg">
<g clip-path="url(#clip0_131_39)">
<path d="M38.5 0.00146484C17.2393 0.00146484 0 17.2373 0 38.4998C0 59.7622 17.2376 76.9981 38.5 76.9981C59.7641 76.9981 77 59.7622 77 38.4998C77 17.2373 59.7641 0.00146484 38.5 0.00146484ZM38.5 11.5129C45.535 11.5129 51.2358 17.2154 51.2358 24.247C51.2358 31.2804 45.535 36.9811 38.5 36.9811C31.4683 36.9811 25.7676 31.2804 25.7676 24.247C25.7676 17.2154 31.4683 11.5129 38.5 11.5129ZM38.4915 66.9325C31.4751 66.9325 25.0488 64.3773 20.0922 60.1478C18.8847 59.1179 18.188 57.6077 18.188 56.0231C18.188 48.8917 23.9598 43.1842 31.0929 43.1842H45.9105C53.0453 43.1842 58.7951 48.8917 58.7951 56.0231C58.7951 57.6094 58.1017 59.1162 56.8926 60.1461C51.9376 64.3773 45.5097 66.9325 38.4915 66.9325Z" fill="white"/>
</g>
<defs>
<clipPath id="clip0_131_39">
<rect width="77" height="77" fill="white"/>
</clipPath>
</defs>
</svg>
