<svg width="77" height="80" viewBox="0 0 77 80" fill="none" xmlns="http://www.w3.org/2000/svg">
<path d="M46.7139 14.8408H22.2401C19.9151 14.8408 18.0283 12.954 18.0283 10.629V4.21177C18.0283 1.88676 19.9151 0 22.2401 0H46.7139C49.0389 0 50.9257 1.88676 50.9257 4.21177V10.629C50.9257 12.9569 49.0389 14.8408 46.7139 14.8408Z" fill="white"/>
<path d="M75.0149 45.5041C72.3968 42.886 68.1281 42.886 65.5099 45.5041L62.4023 48.6288L71.913 58.1366L75.0149 55.0347C77.6615 52.3909 77.6615 48.1507 75.0149 45.5041Z" fill="white"/>
<path d="M59.3916 51.6511L42.8006 68.2136C42.4591 68.5836 42.2314 69.0389 42.1461 69.5227L40.8939 76.8933C40.6093 78.5154 42.0322 79.9098 43.6543 79.6537L51.0249 78.4016C51.5087 78.3162 51.964 78.0885 52.3055 77.747L68.8965 61.1561L59.3916 51.6511Z" fill="white"/>
<path d="M58.7371 7.42749H55.1941V10.629C55.1941 15.3046 51.3893 19.1095 46.7137 19.1095H22.2399C17.5614 19.1095 13.7594 15.3046 13.7594 10.629V7.42749H10.1595C4.55327 7.42749 0 11.9808 0 17.587V69.5227C0 75.1289 4.55327 79.6821 10.1595 79.6821H37.0721C36.6396 78.5694 36.4774 77.3628 36.6879 76.159L37.9372 68.8084C38.1592 67.505 38.7568 66.3012 39.6561 65.3194L57.7696 47.2316L62.4793 42.4962C64.2295 40.7432 66.4748 39.7045 68.8909 39.4056V17.6154C68.8966 11.9523 64.3718 7.42749 58.7371 7.42749ZM30.0459 49.6391H17.698C16.2836 49.6391 15.1368 48.4923 15.1368 47.0779C15.1368 45.6635 16.2836 44.5167 17.698 44.5167H30.0459C31.4602 44.5167 32.6071 45.6635 32.6071 47.0779C32.6071 48.4923 31.4602 49.6391 30.0459 49.6391ZM45.1627 35.1028H17.7008C16.2865 35.1028 15.1396 33.956 15.1396 32.5416C15.1396 31.1272 16.2865 29.9804 17.7008 29.9804H45.1627C46.5771 29.9804 47.7239 31.1272 47.7239 32.5416C47.7239 33.956 46.5771 35.1028 45.1627 35.1028Z" fill="white"/>
</svg>
