<svg width="77" height="77" viewBox="0 0 77 77" fill="none" xmlns="http://www.w3.org/2000/svg">
<path fill-rule="evenodd" clip-rule="evenodd" d="M58.1978 39.3953C68.5767 39.3953 77.0002 47.8187 77.0002 58.1976C77.0002 68.5765 68.5767 76.9999 58.1978 76.9999C47.8189 76.9999 39.3955 68.5765 39.3955 58.1976C39.3955 47.8187 47.8189 39.3953 58.1978 39.3953ZM53.7211 52.8255V59.9883C53.7211 61.471 54.9244 62.6743 56.4071 62.6743H61.7792C63.2619 62.6743 64.4653 61.471 64.4653 59.9883C64.4653 58.5056 63.2619 57.3022 61.7792 57.3022H59.0932V52.8255C59.0932 51.3428 57.8898 50.1394 56.4071 50.1394C54.9244 50.1394 53.7211 51.3428 53.7211 52.8255Z" fill="white"/>
<path fill-rule="evenodd" clip-rule="evenodd" d="M41.1856 9.84884C41.1856 11.3315 39.9822 12.5349 38.4995 12.5349C37.0168 12.5349 35.8135 11.3315 35.8135 9.84884V2.68605C35.8135 1.20335 37.0168 0 38.4995 0C39.9822 0 41.1856 1.20335 41.1856 2.68605V9.84884Z" fill="white"/>
<path fill-rule="evenodd" clip-rule="evenodd" d="M60.8838 9.84884C60.8838 11.3315 59.6805 12.5349 58.1978 12.5349C56.7151 12.5349 55.5117 11.3315 55.5117 9.84884V2.68605C55.5117 1.20335 56.7151 0 58.1978 0C59.6805 0 60.8838 1.20335 60.8838 2.68605V9.84884Z" fill="white"/>
<path fill-rule="evenodd" clip-rule="evenodd" d="M21.4883 9.84884C21.4883 11.3315 20.285 12.5349 18.8023 12.5349C17.3196 12.5349 16.1162 11.3315 16.1162 9.84884V2.68605C16.1162 1.20335 17.3196 0 18.8023 0C20.285 0 21.4883 1.20335 21.4883 2.68605V9.84884Z" fill="white"/>
<path fill-rule="evenodd" clip-rule="evenodd" d="M46.0532 77H13.4302C6.01316 77 0 70.9869 0 63.5698V20.5931C0 13.176 6.01316 7.16284 13.4302 7.16284H63.5698C70.9868 7.16284 77 13.176 77 20.5931V46.0532C73.0103 39.8932 66.0767 35.814 58.1977 35.814C45.8454 35.814 35.814 45.8455 35.814 58.1977C35.814 66.0768 39.8932 73.0104 46.0532 77ZM15.2209 54.6163C13.244 54.6163 11.6395 56.2208 11.6395 58.1977C11.6395 60.1747 13.244 61.7791 15.2209 61.7791C17.1979 61.7791 18.8023 60.1747 18.8023 58.1977C18.8023 56.2208 17.1979 54.6163 15.2209 54.6163ZM58.1977 22.3838C56.2207 22.3838 54.6163 23.9882 54.6163 25.9652C54.6163 27.9421 56.2207 29.5466 58.1977 29.5466C60.1746 29.5466 61.7791 27.9421 61.7791 25.9652C61.7791 23.9882 60.1746 22.3838 58.1977 22.3838ZM43.8721 22.3838C41.8952 22.3838 40.2907 23.9882 40.2907 25.9652C40.2907 27.9421 41.8952 29.5466 43.8721 29.5466C45.849 29.5466 47.4535 27.9421 47.4535 25.9652C47.4535 23.9882 45.849 22.3838 43.8721 22.3838ZM15.2209 38.5C13.244 38.5 11.6395 40.1045 11.6395 42.0814C11.6395 44.0584 13.244 45.6628 15.2209 45.6628C17.1979 45.6628 18.8023 44.0584 18.8023 42.0814C18.8023 40.1045 17.1979 38.5 15.2209 38.5ZM15.2209 22.3838C13.244 22.3838 11.6395 23.9882 11.6395 25.9652C11.6395 27.9421 13.244 29.5466 15.2209 29.5466C17.1979 29.5466 18.8023 27.9421 18.8023 25.9652C18.8023 23.9882 17.1979 22.3838 15.2209 22.3838ZM29.5465 38.5C27.5696 38.5 25.9651 40.1045 25.9651 42.0814C25.9651 44.0584 27.5696 45.6628 29.5465 45.6628C31.5234 45.6628 33.1279 44.0584 33.1279 42.0814C33.1279 40.1045 31.5234 38.5 29.5465 38.5ZM29.5465 22.3838C27.5696 22.3838 25.9651 23.9882 25.9651 25.9652C25.9651 27.9421 27.5696 29.5466 29.5465 29.5466C31.5234 29.5466 33.1279 27.9421 33.1279 25.9652C33.1279 23.9882 31.5234 22.3838 29.5465 22.3838ZM29.5465 54.6163C27.5696 54.6163 25.9651 56.2208 25.9651 58.1977C25.9651 60.1747 27.5696 61.7791 29.5465 61.7791C31.5234 61.7791 33.1279 60.1747 33.1279 58.1977C33.1279 56.2208 31.5234 54.6163 29.5465 54.6163Z" fill="white"/>
</svg>
