<svg width="44" height="42" viewBox="0 0 44 42" fill="none" xmlns="http://www.w3.org/2000/svg">
<path d="M17.2311 15.5555C14.6582 15.5555 12.5644 13.4617 12.5644 10.8888C12.5644 8.31595 14.6582 6.22217 17.2311 6.22217C19.8039 6.22217 21.8977 8.31595 21.8977 10.8888C21.8977 13.4617 19.8039 15.5555 17.2311 15.5555ZM18.0088 7.77772C17.1502 7.77772 16.4533 8.47617 16.4533 9.33328C16.4533 10.1904 17.1502 10.8888 18.0088 10.8888C18.8675 10.8888 19.5644 10.1904 19.5644 9.33328C19.5644 8.47617 18.8675 7.77772 18.0088 7.77772Z" fill="white"/>
<path d="M28.1199 21.7777C25.547 21.7777 23.4532 19.6839 23.4532 17.111C23.4532 14.5381 25.547 12.4443 28.1199 12.4443C30.6928 12.4443 32.7866 14.5381 32.7866 17.111C32.7866 19.6839 30.6928 21.7777 28.1199 21.7777ZM28.8977 13.9999C28.039 13.9999 27.3421 14.6983 27.3421 15.5554C27.3421 16.4126 28.039 17.111 28.8977 17.111C29.7564 17.111 30.4532 16.4126 30.4532 15.5554C30.4532 14.6983 29.7564 13.9999 28.8977 13.9999Z" fill="white"/>
<path d="M31.2311 9.33333C28.6582 9.33333 26.5644 7.23956 26.5644 4.66667C26.5644 2.09378 28.6582 0 31.2311 0C33.8039 0 35.8977 2.09378 35.8977 4.66667C35.8977 7.23956 33.8039 9.33333 31.2311 9.33333ZM32.0088 1.55556C31.1502 1.55556 30.4533 2.254 30.4533 3.11111C30.4533 3.96822 31.1502 4.66667 32.0088 4.66667C32.8675 4.66667 33.5644 3.96822 33.5644 3.11111C33.5644 2.254 32.8675 1.55556 32.0088 1.55556Z" fill="white"/>
<path d="M6.58636 25.5498C7.29259 25.2044 8.05792 24.8887 9.45325 24.8887C12.5644 24.8887 12.5644 26.4442 15.6755 26.4442C18.7866 26.4442 18.7866 24.8887 21.8977 24.8887C25.0088 24.8887 26.3808 26.4442 28.1199 26.4442C31.231 26.4442 31.231 24.8887 34.3421 24.8887C35.7375 24.8887 36.5028 25.2044 37.209 25.5498L35.6364 36.5553H8.15903L6.58636 25.5498Z" fill="white"/>
<path d="M41.4448 17.1113H43.0175C43.4904 17.1113 43.8544 17.5298 43.7875 17.9996L40.7417 39.3278C40.5224 40.8615 39.2079 42.0002 37.6602 42.0002H6.13528C4.5875 42.0002 3.27461 40.8616 3.05528 39.3293L0.00794513 17.9996C-0.0589438 17.5298 0.305056 17.1113 0.777945 17.1113H2.35061C2.73795 17.1113 3.06617 17.396 3.12061 17.7787L6.13528 38.8891H37.6602L40.6748 17.7787C40.7293 17.396 41.0575 17.1113 41.4448 17.1113Z" fill="white"/>
</svg>
