<svg width="46" height="42" viewBox="0 0 46 42" fill="none" xmlns="http://www.w3.org/2000/svg">
<path d="M3.34017 1.02146C5.57918 2.1058 7.83534 2.9879 10.1055 3.6814V7.69475C10.1055 9.00443 11.1653 10.0338 12.4446 10.0338C13.7541 10.0338 14.7835 9.00443 14.7835 7.69475V4.82907C17.2826 5.29479 19.797 5.53623 22.3254 5.53623C24.9915 5.53623 27.6729 5.26191 30.3651 4.74405V7.69476C30.3651 9.00444 31.4249 10.0338 32.7041 10.0338C34.0138 10.0338 35.0432 9.00444 35.0432 7.69476V3.64116C35.0432 3.62401 35.0385 3.60827 35.0381 3.59113C37.2889 2.91127 39.5457 2.06487 41.8075 1.02601C42.0773 0.902147 42.1955 0.58304 42.0717 0.313614C41.9481 0.0441885 41.6301 -0.0740786 41.3589 0.0490899C39.1544 1.0617 36.9551 1.88676 34.7619 2.55017C34.3721 1.81468 33.6097 1.30243 32.7041 1.30243C31.4249 1.30243 30.3651 2.36193 30.3651 3.64116V3.64501C25.118 4.67826 19.916 4.70905 14.7835 3.72828V3.64116C14.7835 2.36192 13.7541 1.30243 12.4446 1.30243C11.5282 1.30243 10.7318 1.85037 10.3497 2.62925C8.15462 1.95534 5.97334 1.10228 3.80904 0.0539844C3.54171 -0.0754758 3.22051 0.0357898 3.09104 0.30346C2.96158 0.570434 3.0732 0.891993 3.34017 1.02146Z" fill="white"/>
<path d="M37.9334 8.71458L37.9191 8.70758C37.9121 8.70758 37.9121 8.70758 37.9121 8.70023L37.8904 8.69289L37.8834 8.68588L37.869 8.67888H37.8618C37.8547 8.67154 37.8475 8.67154 37.8403 8.66419C37.2814 8.34928 36.708 8.07671 36.1132 7.83317C36.0488 9.68205 34.5726 11.1079 32.7024 11.1079C30.8248 11.1079 29.2912 9.57462 29.2912 7.69705V6.57178H28.4028C28.0445 6.57178 27.7434 6.837 27.7006 7.1883C27.3995 9.76776 25.221 11.7457 22.5911 11.7457H22.584C22.5768 11.7457 22.5768 11.7457 22.5768 11.7457C22.5768 11.7457 22.5768 11.7457 22.5696 11.7457C19.9398 11.7457 17.7613 9.76776 17.4604 7.1883C17.4173 6.837 17.1164 6.57178 16.7581 6.57178H15.8551V7.69705C15.8551 9.61031 14.3575 11.1079 12.4442 11.1079C10.6025 11.1079 9.10477 9.646 9.04039 7.83317C8.45274 8.0767 7.87943 8.34927 7.32046 8.66419C7.32046 8.66419 7.31329 8.67153 7.2776 8.68588C7.25591 8.70022 7.22022 8.72156 7.22022 8.72156C6.95499 8.86503 6.05207 9.36678 3.35767 10.8574L8.59602 19.4348C9.49176 18.8974 10.3158 18.4173 10.3445 18.3956V37.4788H34.8163V18.3956C34.9309 18.4603 35.8697 19.0191 36.8228 19.5853L42.0538 11.0005C39.1302 9.38079 38.1915 8.85803 37.9334 8.71458ZM31.9643 28.8079C31.9643 29.1019 31.7277 29.3454 31.4268 29.3454C31.1329 29.3454 30.8894 29.1019 30.8894 28.8079V27.7187C30.8894 27.4248 31.1329 27.1812 31.4268 27.1812C31.7277 27.1812 31.9643 27.4248 31.9643 27.7187V28.8079ZM31.9643 24.7305C31.9643 25.0315 31.7277 25.268 31.4268 25.268C31.1329 25.268 30.8894 25.0315 30.8894 24.7305V19.4418C30.8894 19.1409 31.1329 18.9044 31.4268 18.9044C31.7277 18.9044 31.9643 19.1409 31.9643 19.4418V24.7305Z" fill="white"/>
<path d="M10.3342 40.0359C10.3342 41.1276 11.2076 42.0002 12.2987 42.0002H32.8508C33.9114 42.0002 34.8159 41.1276 34.8159 40.0359V38.5537H10.3342V40.0359Z" fill="white"/>
<path d="M1.0095 12.1551C0.042549 12.6852 -0.300177 13.9644 0.292204 14.8993L3.50464 20.1391C4.0657 21.074 5.25116 21.3543 6.18627 20.8242L7.6527 19.9519L2.41277 11.3755L1.0095 12.1551Z" fill="white"/>
<path d="M44.1407 12.155L42.9864 11.5308L37.7473 20.139L38.9321 20.8241C39.8677 21.3542 41.0532 21.0739 41.6144 20.1694L44.858 14.8992C45.4502 13.9643 45.1068 12.6851 44.1407 12.155Z" fill="white"/>
</svg>
