<svg width="42" height="42" viewBox="0 0 42 42" fill="none" xmlns="http://www.w3.org/2000/svg">
<g clip-path="url(#clip0_25_232)">
<path d="M34.2694 0H1.8375C0.826875 0 0 0.826875 0 1.8375V6.62813H36.1069V1.8375C36.1069 0.826875 35.28 0 34.2694 0ZM4.79063 4.96125C3.87188 4.96125 3.13688 4.22625 3.13688 3.32063C3.13688 2.40188 3.87188 1.66688 4.79063 1.66688C5.70937 1.66688 6.44424 2.40188 6.44424 3.32063C6.44424 4.22625 5.70924 4.96125 4.79063 4.96125ZM10.6838 4.96125C9.765 4.96125 9.03 4.22625 9.03 3.32063C9.03 2.40188 9.765 1.66688 10.6838 1.66688C11.6025 1.66688 12.3375 2.40188 12.3375 3.32063C12.3375 4.22625 11.6025 4.96125 10.6838 4.96125ZM16.5769 4.96125C15.6713 4.96125 14.9231 4.22625 14.9231 3.32063C14.9231 2.40188 15.6713 1.66688 16.5769 1.66688C17.4956 1.66688 18.2306 2.40188 18.2306 3.32063C18.2306 4.22625 17.4956 4.96125 16.5769 4.96125ZM31.3162 4.42312H22.47C21.8663 4.42312 21.3675 3.92438 21.3675 3.32063C21.3675 2.71687 21.8661 2.205 22.47 2.205H31.3162C31.92 2.205 32.4188 2.71687 32.4188 3.32063C32.4188 3.92438 31.92 4.42312 31.3162 4.42312Z" fill="white"/>
<path d="M11.6716 18.1115C11.1853 18.0968 10.699 18.1115 10.2274 18.1704C12.1727 16.0484 14.9579 14.7368 18.0527 14.7368C21.7073 14.7368 24.9348 16.5789 26.8505 19.3789C26.1284 19.6884 25.5242 20.0272 24.9642 20.3516C23.6821 21.1031 22.6652 21.6778 20.6168 21.6925C19.541 21.6925 18.701 21.1031 17.6252 20.3663C16.2251 19.4083 14.4716 18.1998 11.6716 18.1115Z" fill="white"/>
<path d="M27.9117 21.3241C28.4422 22.5915 28.737 23.9621 28.737 25.421C28.737 25.6273 28.737 25.8336 28.7074 26.0251C26.1137 27.764 24.3896 30.7114 24.3306 34.042C22.577 35.3536 20.3959 36.1052 18.0527 36.1052C12.158 36.1052 7.36841 31.3158 7.36841 25.421C7.36841 23.741 7.75153 22.1493 8.47366 20.7347C9.53469 20.4252 10.5957 20.2631 11.6126 20.322C13.7495 20.3957 15.0905 21.3094 16.3726 22.1936C17.5957 23.0336 18.8483 23.9031 20.6168 23.9031C23.2693 23.8884 24.6842 23.063 26.0694 22.2673C26.659 21.9284 27.2338 21.6041 27.9117 21.3241Z" fill="white"/>
<path d="M36.1053 8.84229V24.4928C35.5012 24.3749 34.8969 24.316 34.2632 24.316C33.099 24.316 31.9791 24.5223 30.9326 24.9054C30.859 22.9602 30.3579 21.1328 29.5032 19.5119C29.4885 19.4529 29.4441 19.394 29.4147 19.3351C27.2483 15.2825 22.9747 12.5266 18.0525 12.5266C13.2041 12.5266 8.98931 15.2087 6.7935 19.1581C5.74731 21.0149 5.15773 23.1371 5.15773 25.4213C5.15773 32.5391 10.9346 38.316 18.0525 38.316C20.4398 38.316 22.6652 37.6677 24.5809 36.5329C25.0967 38.7139 26.3345 40.6297 28.0294 42.0002H1.84209C0.8253 42.0002 0 41.1749 0 40.1581V8.84229H36.1053Z" fill="white"/>
<path d="M34.2694 26.5254C30.0038 26.5254 26.5256 30.0035 26.5256 34.2691C26.5256 38.5348 30.0038 41.9998 34.2694 41.9998C38.535 41.9998 42 38.5348 42 34.2691C42 30.0035 38.535 26.5254 34.2694 26.5254ZM38.2725 32.7468L33.8494 37.1699C33.6525 37.3668 33.4031 37.4586 33.1406 37.4586C32.8913 37.4586 32.6419 37.3668 32.445 37.1699L30.2531 34.978C29.8725 34.5974 29.8725 33.9674 30.2531 33.5868C30.6469 33.2061 31.2638 33.2061 31.6575 33.5868L33.1406 35.083L36.8813 31.3555C37.2619 30.9749 37.8788 30.9749 38.2725 31.3555C38.6531 31.7361 38.6531 32.3661 38.2725 32.7468Z" fill="white"/>
</g>
<defs>
<clipPath id="clip0_25_232">
<rect width="42" height="42" fill="white"/>
</clipPath>
</defs>
</svg>
