<svg width="42" height="42" viewBox="0 0 42 42" fill="none" xmlns="http://www.w3.org/2000/svg">
<path d="M18.2533 38.204C17.6488 38.2915 17.0387 38.3342 16.428 38.3318C13.7605 38.3258 11.1529 37.5407 8.92561 36.073C6.69829 34.6053 4.94827 32.5188 3.89061 30.07C2.83294 27.6212 2.51371 24.9168 2.97215 22.289C3.43058 19.6613 4.64671 17.2247 6.47108 15.2787C8.29546 13.3327 10.6486 11.962 13.2413 11.3352C15.8341 10.7084 18.5535 10.8526 21.0654 11.7503C23.5772 12.6479 25.7721 14.2598 27.3804 16.3879C28.9886 18.516 29.9401 21.0676 30.118 23.7291H32.8559V9.12646H0V41.9824H2.738V39.2444C2.738 39.0024 2.83415 38.7702 3.00531 38.5991C3.17647 38.4279 3.40861 38.3318 3.65066 38.3318H7.30132C7.54338 38.3318 7.77552 38.4279 7.94667 38.5991C8.11783 38.7702 8.21399 39.0024 8.21399 39.2444V41.9824H19.6588C18.7162 40.954 18.212 39.5984 18.2533 38.204Z" fill="white"/>
<path d="M4.56335 40.1572H6.38869V41.9826H4.56335V40.1572Z" fill="white"/>
<path d="M0 0H9.12665V7.30132H0V0Z" fill="white"/>
<path d="M32.856 0H10.952V7.30132H32.856V0ZM16.428 5.47599C16.067 5.47599 15.7141 5.36894 15.4139 5.16837C15.1137 4.9678 14.8798 4.68272 14.7416 4.34918C14.6035 4.01565 14.5673 3.64864 14.6378 3.29456C14.7082 2.94048 14.882 2.61523 15.1373 2.35996C15.3926 2.10468 15.7178 1.93083 16.0719 1.8604C16.426 1.78997 16.793 1.82612 17.1265 1.96428C17.4601 2.10243 17.7452 2.33639 17.9457 2.63656C18.1463 2.93674 18.2533 3.28964 18.2533 3.65066C18.2533 4.13477 18.061 4.59905 17.7187 4.94136C17.3764 5.28368 16.9121 5.47599 16.428 5.47599ZM26.4673 4.56333C26.4673 4.80538 26.3712 5.03752 26.2 5.20868C26.0289 5.37984 25.7967 5.47599 25.5547 5.47599C25.3126 5.47599 25.0805 5.37984 24.9093 5.20868C24.7382 5.03752 24.642 4.80538 24.642 4.56333V2.738C24.642 2.49594 24.7382 2.2638 24.9093 2.09264C25.0805 1.92149 25.3126 1.82533 25.5547 1.82533C25.7967 1.82533 26.0289 1.92149 26.2 2.09264C26.3712 2.2638 26.4673 2.49594 26.4673 2.738V4.56333ZM30.118 4.56333C30.118 4.80538 30.0218 5.03752 29.8507 5.20868C29.6795 5.37984 29.4474 5.47599 29.2053 5.47599C28.9633 5.47599 28.7311 5.37984 28.56 5.20868C28.3888 5.03752 28.2927 4.80538 28.2927 4.56333V2.738C28.2927 2.49594 28.3888 2.2638 28.56 2.09264C28.7311 1.92149 28.9633 1.82533 29.2053 1.82533C29.4474 1.82533 29.6795 1.92149 29.8507 2.09264C30.0218 2.2638 30.118 2.49594 30.118 2.738V4.56333Z" fill="white"/>
<path d="M21.904 23.7291C25.3265 23.7291 24.5051 23.9025 24.5051 23.1176C24.3505 22.3218 24.0799 21.5531 23.7019 20.8359C23.2904 20.9766 22.8513 21.0171 22.4209 20.9543C21.9906 20.8914 21.5814 20.727 21.2273 20.4745C20.8732 20.2221 20.5843 19.8889 20.3845 19.5026C20.1848 19.1163 20.0799 18.688 20.0786 18.2531C20.0786 17.2492 20.5258 17.4591 19.7957 17.1579C15.0499 14.6024 8.21399 18.3535 8.21399 24.6418C8.21393 25.9058 8.50559 27.1527 9.06626 28.2856C9.62692 29.4184 10.4415 30.4066 11.4465 31.1731C12.4515 31.9397 13.6199 32.464 14.8607 32.7052C16.1014 32.9464 17.3811 32.8979 18.6001 32.5637C18.3474 32.0347 18.2286 31.4518 18.2541 30.8662C18.2795 30.2805 18.4485 29.7101 18.7461 29.2051C18.4259 28.6504 18.2572 28.0212 18.2571 27.3807C18.2569 26.7402 18.4252 26.1109 18.7452 25.556C19.0652 25.0012 19.5255 24.5403 20.0799 24.2196C20.6344 23.8989 21.2635 23.7297 21.904 23.7291Z" fill="white"/>
<path d="M19.887 34.0698C18.3695 34.6268 16.7399 34.8091 15.1368 34.6012C13.5338 34.3933 12.0046 33.8014 10.6794 32.8758C9.35414 31.9501 8.272 30.7182 7.52498 29.2847C6.77795 27.8512 6.38812 26.2585 6.38864 24.642C6.38864 17.3407 14.0459 12.6039 20.0786 15.3054C21.904 15.9443 22.269 16.9939 21.904 17.9978C21.8452 18.1608 21.834 18.3372 21.8717 18.5063C21.9095 18.6754 21.9946 18.8303 22.1171 18.9528C22.2396 19.0754 22.3945 19.1605 22.5637 19.1982C22.7328 19.236 22.9092 19.2248 23.0722 19.166C25.2899 18.3446 26.2482 21.6576 26.4673 23.7293H28.2926C28.1094 21.3348 27.2038 19.0522 25.6955 17.1834C24.1873 15.3145 22.1474 13.9473 19.8456 13.2626C17.5437 12.5778 15.0883 12.6077 12.8038 13.3482C10.5193 14.0888 8.51329 15.5052 7.05099 17.4102C5.58868 19.3153 4.7389 21.6192 4.61397 24.0175C4.48904 26.4158 5.09485 28.7955 6.35131 30.8421C7.60778 32.8888 9.45575 34.5059 11.6509 35.4799C13.8461 36.4538 16.2852 36.7386 18.6457 36.2967C18.9678 35.4963 19.4744 34.7833 20.1243 34.2158L19.887 34.0698Z" fill="white"/>
<path d="M21.4476 25.5544C21.0845 25.5544 20.7363 25.6987 20.4796 25.9554C20.2228 26.2122 20.0786 26.5604 20.0786 26.9234C20.0786 27.2865 20.2228 27.6347 20.4796 27.8915C20.7363 28.1482 21.0845 28.2924 21.4476 28.2924H28.2926C28.5347 28.2924 28.7668 28.3886 28.938 28.5598C29.1091 28.7309 29.2053 28.9631 29.2053 29.2051C29.2053 29.4472 29.1091 29.6793 28.938 29.8505C28.7668 30.0216 28.5347 30.1178 28.2926 30.1178H21.4476C21.0845 30.1178 20.7363 30.262 20.4796 30.5187C20.2228 30.7755 20.0786 31.1237 20.0786 31.4868C20.0786 31.8499 20.2228 32.1981 20.4796 32.4548C20.7363 32.7115 21.0845 32.8558 21.4476 32.8558H38.3319C38.8428 32.8582 39.3485 32.7534 39.8164 32.5481C40.2842 32.3428 40.7037 32.0416 41.0478 31.6639C41.3919 31.2863 41.6529 30.8406 41.8139 30.3557C41.9749 29.8709 42.0324 29.3576 41.9826 28.8492C41.8677 27.9267 41.4152 27.0795 40.7123 26.471C40.0095 25.8626 39.1062 25.536 38.1768 25.5544H21.4476Z" fill="white"/>
<path d="M40.6136 39.2447H33.7687C33.5266 39.2447 33.2945 39.1486 33.1233 38.9774C32.9521 38.8063 32.856 38.5741 32.856 38.3321C32.856 38.09 32.9521 37.8579 33.1233 37.6867C33.2945 37.5156 33.5266 37.4194 33.7687 37.4194H40.6136C40.9767 37.4194 41.3249 37.2752 41.5817 37.0184C41.8384 36.7617 41.9826 36.4135 41.9826 36.0504C41.9826 35.6873 41.8384 35.3391 41.5817 35.0824C41.3249 34.8256 40.9767 34.6814 40.6136 34.6814H23.8845C22.9551 34.663 22.0518 34.9895 21.3489 35.598C20.6461 36.2064 20.1936 37.0536 20.0787 37.9761C20.0289 38.4846 20.0863 38.9978 20.2473 39.4827C20.4084 39.9676 20.6694 40.4132 21.0135 40.7909C21.3575 41.1685 21.7771 41.4697 22.2449 41.675C22.7127 41.8803 23.2184 41.9852 23.7293 41.9827H40.6136C40.9767 41.9827 41.3249 41.8385 41.5817 41.5818C41.8384 41.325 41.9826 40.9768 41.9826 40.6137C41.9826 40.2506 41.8384 39.9024 41.5817 39.6457C41.3249 39.389 40.9767 39.2447 40.6136 39.2447Z" fill="white"/>
</svg>
