<svg width="40" height="43" viewBox="0 0 40 43" fill="none" xmlns="http://www.w3.org/2000/svg">
<path d="M19.8332 34.4565C18.2971 34.4576 16.7887 34.0482 15.4639 33.2707C14.1392 32.4932 13.0463 31.3758 12.2984 30.0341C11.5504 28.6924 11.1746 27.1753 11.2099 25.6396C11.2451 24.104 11.6901 22.6056 12.4987 21.2997C13.3074 19.9937 14.4504 18.9276 15.8094 18.2116C17.1684 17.4957 18.694 17.1559 20.2284 17.2275C21.7628 17.299 23.2502 17.7793 24.5366 18.6187C25.8231 19.458 26.8618 20.6259 27.5454 22.0015H30.1383C29.2432 19.5782 27.5248 17.5465 25.2836 16.2618C23.0423 14.9771 20.4208 14.5211 17.8774 14.9734C15.3339 15.4258 13.0304 16.7577 11.3696 18.7364C9.70869 20.7151 8.79616 23.2146 8.79152 25.798C8.78688 28.3813 9.69042 30.8841 11.3442 32.8687C12.9979 34.8534 15.2966 36.1936 17.8384 36.6551C20.3802 37.1166 23.0033 36.6699 25.2492 35.3933C27.495 34.1166 29.2207 32.0912 30.1245 29.6711H27.5507C26.8331 31.1048 25.7318 32.3112 24.3692 33.1561C23.0067 34.0009 21.4364 34.4511 19.8332 34.4565Z" fill="white"/>
<path d="M39.6119 9.47235V1.74239C39.6109 1.33255 39.4472 0.939905 39.1567 0.650726C38.8663 0.361547 38.473 0.1995 38.0632 0.200198H1.58879C1.17896 0.1995 0.785616 0.361547 0.495207 0.650726C0.204798 0.939905 0.0410822 1.33255 0.0400391 1.74239V9.47235H39.6119ZM32.2291 2.9617C32.6649 2.96157 33.0909 3.09068 33.4533 3.3327C33.8157 3.57472 34.0981 3.91878 34.265 4.32136C34.4318 4.72394 34.4755 5.16695 34.3905 5.59436C34.3055 6.02177 34.0957 6.41437 33.7875 6.72251C33.4794 7.03065 33.0868 7.24048 32.6594 7.32546C32.232 7.41044 31.789 7.36676 31.3864 7.19994C30.9838 7.03311 30.6397 6.75065 30.3977 6.38826C30.1557 6.02587 30.0266 5.59985 30.0267 5.16407C30.0272 4.58013 30.2594 4.02025 30.6724 3.60733C31.0853 3.19442 31.6452 2.96222 32.2291 2.9617ZM13.0666 3.28982C13.0666 3.2028 13.1012 3.11934 13.1627 3.0578C13.2242 2.99627 13.3077 2.9617 13.3947 2.9617H26.2638C26.3508 2.9617 26.4343 2.99627 26.4958 3.0578C26.5573 3.11934 26.5919 3.2028 26.5919 3.28982V7.03898C26.5919 7.126 26.5573 7.20946 26.4958 7.271C26.4343 7.33253 26.3508 7.3671 26.2638 7.3671H13.3947C13.3077 7.3671 13.2242 7.33253 13.1627 7.271C13.1012 7.20946 13.0666 7.126 13.0666 7.03898V3.28982ZM7.4281 2.9617C7.86387 2.96157 8.2899 3.09068 8.65229 3.3327C9.01467 3.57472 9.29714 3.91878 9.46397 4.32136C9.63079 4.72394 9.67447 5.16695 9.58949 5.59436C9.50451 6.02177 9.29467 6.41437 8.98654 6.72251C8.6784 7.03065 8.28579 7.24048 7.85839 7.32546C7.43098 7.41044 6.98797 7.36676 6.58539 7.19994C6.18281 7.03311 5.83875 6.75065 5.59673 6.38826C5.35471 6.02587 5.2256 5.59985 5.22573 5.16407C5.22624 4.58103 5.45772 4.02195 5.8695 3.60918C6.28128 3.19642 6.83982 2.96361 7.42285 2.9617H7.4281Z" fill="white"/>
<path d="M30.8969 22.6577H26.9883C26.9203 22.6577 26.8552 22.6847 26.8071 22.7326C26.759 22.7806 26.7319 22.8457 26.7317 22.9137V28.7589C26.7319 28.8268 26.759 28.8919 26.8071 28.9399C26.8552 28.9879 26.9203 29.0148 26.9883 29.0148H30.8969C30.9647 29.0146 31.0297 28.9876 31.0777 28.9397C31.1257 28.8917 31.1527 28.8267 31.1528 28.7589V22.9137C31.1527 22.8458 31.1257 22.7808 31.0777 22.7329C31.0297 22.6849 30.9647 22.6579 30.8969 22.6577Z" fill="white"/>
<path d="M0.0400391 10.1284V40.6578C0.0410822 41.0677 0.204798 41.4603 0.495207 41.7495C0.785616 42.0387 1.17896 42.2007 1.58879 42.2H38.0632C38.473 42.2007 38.8663 42.0387 39.1567 41.7495C39.4472 41.4603 39.6109 41.0677 39.6119 40.6578V10.1284H0.0400391ZM31.8091 28.7587C31.8087 29.0005 31.7125 29.2323 31.5415 29.4033C31.3706 29.5743 31.1387 29.6705 30.8969 29.6709H30.8234C29.9126 32.2632 28.1136 34.4494 25.745 35.842C23.3765 37.2347 20.5914 37.7439 17.8833 37.2794C15.1752 36.8149 12.7189 35.4067 10.9499 33.3043C9.18078 31.2019 8.21309 28.5412 8.21826 25.7935C8.22343 23.0459 9.20114 20.3888 10.9781 18.2931C12.7551 16.1974 15.2166 14.7984 17.9264 14.3441C20.6363 13.8898 23.4194 14.4095 25.7827 15.8111C28.146 17.2126 29.9368 19.4056 30.8378 22.0013H30.8969C31.1387 22.0016 31.3706 22.0979 31.5415 22.2688C31.7125 22.4398 31.8087 22.6717 31.8091 22.9135V28.7587Z" fill="white"/>
</svg>
