<svg width="42" height="42" viewBox="0 0 42 42" fill="none" xmlns="http://www.w3.org/2000/svg">
<g clip-path="url(#clip0_25_219)">
<path d="M27.697 29.6953C21.8469 29.6843 14.7197 29.6584 9.7172 29.6239L3.09351 29.5977L4.632 38.6577C4.85398 40.4983 6.42127 41.8923 8.27493 41.8997L33.5767 42.0002C35.4312 42.0076 37.0088 40.626 37.2368 38.8445L38.8565 29.7397L27.697 29.6953ZM12.2064 35.7745C12.1999 37.3932 9.74362 37.39 9.7501 35.7648L9.75986 33.3085C9.76634 31.6899 12.2226 31.693 12.2161 33.3183L12.2064 35.7745ZM17.1189 35.794C17.1124 37.4128 14.6561 37.4096 14.6626 35.7843L14.6724 33.328C14.6789 31.7093 17.1351 31.7125 17.1286 33.3378L17.1189 35.794ZM22.0314 35.8136C22.0249 37.4322 19.5687 37.4291 19.5751 35.8038L19.5849 33.3475C19.5914 31.7288 22.0476 31.732 22.0412 33.3573L22.0314 35.8136ZM27.1732 35.8339C27.1667 37.4526 24.7105 37.4494 24.7169 35.8242L24.7267 33.3679C24.7332 31.7492 27.1894 31.7524 27.183 33.3777L27.1732 35.8339ZM32.0856 35.8535C32.0792 37.4722 29.6229 37.469 29.6294 35.8438L29.6391 33.3875C29.6456 31.7688 32.1019 31.772 32.0954 33.3973L32.0856 35.8535Z" fill="white"/>
<path d="M38.2904 19.7483L38.2585 19.7482C41.3573 15.6888 38.4425 9.9237 33.417 9.90377L33.3851 9.9036C36.4838 5.84412 33.5691 0.0791304 28.5435 0.0591147L13.6423 5.22321e-05C8.62089 -0.0199634 5.65218 5.71689 8.72187 9.80566L8.69078 9.80549C3.6694 9.78556 0.700605 15.5223 3.7703 19.6112L3.73921 19.611C-1.12746 19.5917 -1.16085 26.9604 3.71 26.9797L38.2613 27.117C43.1278 27.1365 43.1605 19.7676 38.2904 19.7483ZM13.6227 4.91258L28.524 4.9718C30.1492 4.97828 30.1329 7.43446 28.5142 7.42806L13.6129 7.36884C11.9869 7.36236 12.0033 4.90618 13.6227 4.91258ZM33.3878 17.2726L8.66141 17.1743C7.03539 17.1678 7.05163 14.7116 8.67117 14.718L33.3975 14.8163C35.0227 14.8228 35.0063 17.279 33.3878 17.2726Z" fill="white"/>
</g>
<defs>
<clipPath id="clip0_25_219">
<rect width="42" height="42" fill="white"/>
</clipPath>
</defs>
</svg>
