<svg width="36" height="42" viewBox="0 0 36 42" fill="none" xmlns="http://www.w3.org/2000/svg">
<path d="M31.5 0H4.5C3.30653 0 2.16193 0.474106 1.31802 1.31802C0.474106 2.16193 0 3.30653 0 4.5V37.5C0 38.6935 0.474106 39.8381 1.31802 40.682C2.16193 41.5259 3.30653 42 4.5 42H31.5C32.6935 42 33.8381 41.5259 34.682 40.682C35.5259 39.8381 36 38.6935 36 37.5V4.5C36 3.30653 35.5259 2.16193 34.682 1.31802C33.8381 0.474106 32.6935 0 31.5 0ZM25.5 4.5C25.7967 4.5 26.0867 4.58797 26.3334 4.7528C26.58 4.91762 26.7723 5.15189 26.8858 5.42597C26.9994 5.70006 27.0291 6.00166 26.9712 6.29264C26.9133 6.58361 26.7704 6.85088 26.5607 7.06066C26.3509 7.27044 26.0836 7.4133 25.7926 7.47118C25.5017 7.52906 25.2001 7.49935 24.926 7.38582C24.6519 7.27229 24.4176 7.08003 24.2528 6.83335C24.088 6.58668 24 6.29667 24 6C24 5.60218 24.158 5.22064 24.4393 4.93934C24.7206 4.65804 25.1022 4.5 25.5 4.5ZM4.5 6C4.5 5.60218 4.65804 5.22064 4.93934 4.93934C5.22064 4.65804 5.60218 4.5 6 4.5H10.5C10.8978 4.5 11.2794 4.65804 11.5607 4.93934C11.842 5.22064 12 5.60218 12 6C12 6.39782 11.842 6.77936 11.5607 7.06066C11.2794 7.34196 10.8978 7.5 10.5 7.5H6C5.60218 7.5 5.22064 7.34196 4.93934 7.06066C4.65804 6.77936 4.5 6.39782 4.5 6ZM18 37.5C15.6266 37.5 13.3065 36.7962 11.3332 35.4776C9.35977 34.1591 7.8217 32.2849 6.91345 30.0922C6.00519 27.8995 5.76755 25.4867 6.23058 23.1589C6.6936 20.8311 7.83649 18.6929 9.51472 17.0147C11.1929 15.3365 13.3311 14.1936 15.6589 13.7306C17.9867 13.2676 20.3995 13.5052 22.5922 14.4134C24.7849 15.3217 26.6591 16.8598 27.9776 18.8332C29.2962 20.8065 30 23.1266 30 25.5C29.9964 28.6815 28.731 31.7317 26.4813 33.9813C24.2317 36.231 21.1815 37.4964 18 37.5ZM30 7.5C29.7033 7.5 29.4133 7.41203 29.1666 7.2472C28.92 7.08238 28.7277 6.84811 28.6142 6.57403C28.5006 6.29994 28.4709 5.99834 28.5288 5.70736C28.5867 5.41639 28.7296 5.14912 28.9393 4.93934C29.1491 4.72956 29.4164 4.5867 29.7074 4.52882C29.9983 4.47094 30.2999 4.50065 30.574 4.61418C30.8481 4.72771 31.0824 4.91997 31.2472 5.16665C31.412 5.41332 31.5 5.70333 31.5 6C31.5 6.39782 31.342 6.77936 31.0607 7.06066C30.7794 7.34196 30.3978 7.5 30 7.5Z" fill="white"/>
<path d="M18.0465 25.5003C16.6428 24.7934 15.0923 24.4275 13.5207 24.4322C11.9492 24.4369 10.4009 24.812 9.00146 25.5273C9.00286 27.9142 9.9524 30.2028 11.6412 31.8897C12.4774 32.7249 13.47 33.3873 14.5622 33.8389C15.6544 34.2906 16.8248 34.5227 18.0067 34.522C19.1886 34.5213 20.3588 34.2878 21.4505 33.8349C22.5421 33.382 23.5339 32.7185 24.3691 31.8822C25.2044 31.046 25.8667 30.0535 26.3184 28.9613C26.77 27.8691 27.0022 26.6986 27.0015 25.5168C25.6105 26.2112 24.0767 26.5713 22.522 26.5685C20.9674 26.5656 19.4348 26.1998 18.0465 25.5003Z" fill="white"/>
</svg>
