<svg width="38" height="32" viewBox="0 0 38 32" fill="none" xmlns="http://www.w3.org/2000/svg">
<path d="M37.4006 14.1417L23.858 0.598776C23.4715 0.212193 22.9562 0 22.4068 0C21.8568 0 21.3419 0.212498 20.9553 0.598776L19.7258 1.82864C19.3395 2.21462 19.1267 2.73016 19.1267 3.27985C19.1267 3.82924 19.3395 4.36216 19.7258 4.74813L27.6263 12.6661H2.5259C1.3942 12.6661 0.5 13.552 0.5 14.684V16.4227C0.5 17.5547 1.3942 18.53 2.5259 18.53H27.7159L19.7261 26.4922C19.3398 26.8787 19.127 27.3803 19.127 27.93C19.127 28.479 19.3398 28.9879 19.7261 29.3742L20.9556 30.6001C21.3422 30.9866 21.8571 31.1973 22.4071 31.1973C22.9565 31.1973 23.4718 30.9839 23.8583 30.5973L37.4009 17.0547C37.7884 16.6669 38.0015 16.1493 38 15.599C38.0012 15.0468 37.7884 14.5288 37.4006 14.1417Z" fill="white"/>
</svg>
