<svg width="50" height="42" viewBox="0 0 50 42" fill="none" xmlns="http://www.w3.org/2000/svg">
<path d="M49.2008 19.0572L31.1441 1.00003C30.6286 0.484585 29.9416 0.20166 29.2091 0.20166C28.4758 0.20166 27.7892 0.484991 27.2738 1.00003L25.6343 2.63985C25.1193 3.15448 24.8356 3.84187 24.8356 4.5748C24.8356 5.30731 25.1193 6.01787 25.6343 6.5325L36.1684 17.0897H2.7012C1.19227 17.0897 0 18.271 0 19.7804V22.0986C0 23.608 1.19227 24.9084 2.7012 24.9084H36.2879L25.6348 35.5245C25.1197 36.04 24.836 36.7087 24.836 37.4416C24.836 38.1737 25.1197 38.8522 25.6348 39.3672L27.2742 41.0017C27.7896 41.5172 28.4762 41.7981 29.2095 41.7981C29.942 41.7981 30.629 41.5135 31.1445 40.9981L49.2012 22.9413C49.7179 22.4242 50.002 21.734 50 21.0003C50.0016 20.2641 49.7179 19.5735 49.2008 19.0572Z" fill="black"/>
</svg>
