<svg width="80" height="80" viewBox="0 0 80 80" fill="none" xmlns="http://www.w3.org/2000/svg">
<g clip-path="url(#clip0_1_16097)">
<path d="M68.2801 11.7115C52.6568 -3.90713 27.3301 -3.90338 11.7115 11.7201C-3.90713 27.3435 -3.90338 52.6701 11.7201 68.2887C27.3435 83.9072 52.6701 83.9035 68.2887 68.2801C75.7896 60.7768 80.0024 50.601 80.0001 39.9915C79.9979 29.3837 75.7821 19.2112 68.2801 11.7115ZM60.5787 55.7196C60.5769 55.7213 60.5752 55.7232 60.5733 55.7249V55.7116L58.5466 57.7249C55.9255 60.3791 52.1082 61.4711 48.4799 60.6049C44.8244 59.6265 41.3494 58.069 38.1866 55.9916C35.2482 54.1137 32.5251 51.9183 30.0666 49.4449C27.8046 47.1994 25.7724 44.7338 23.9999 42.0849C22.0612 39.2346 20.5266 36.1296 19.4399 32.8582C18.1941 29.0151 19.2265 24.798 22.1066 21.9649L24.4799 19.5916C25.1397 18.9288 26.2119 18.9265 26.8746 19.5863C26.8763 19.588 26.8782 19.5897 26.8799 19.5916L34.3732 27.0849C35.036 27.7447 35.0383 28.8169 34.3785 29.4796C34.3768 29.4813 34.3751 29.483 34.3732 29.4849L29.9732 33.8849C28.7107 35.1337 28.5519 37.118 29.5999 38.5516C31.1913 40.7357 32.9524 42.7908 34.8666 44.6983C37.0008 46.8418 39.321 48.7916 41.7999 50.5251C43.2322 51.5241 45.1741 51.3557 46.4132 50.1251L50.6665 45.8051C51.3263 45.1422 52.3985 45.1399 53.0611 45.7997C53.0629 45.8015 53.0646 45.8032 53.0665 45.8051L60.5732 53.3251C61.2362 53.9847 61.2385 55.0568 60.5787 55.7196Z" fill="#0D39B9"/>
</g>
<defs>
<clipPath id="clip0_1_16097">
<rect width="80" height="80" fill="white"/>
</clipPath>
</defs>
</svg>
