<svg width="80" height="80" viewBox="0 0 80 80" fill="none" xmlns="http://www.w3.org/2000/svg">
<g clip-path="url(#clip0_1_16075)">
<path d="M40 0C18.0297 0 0 18.0297 0 40C0 61.9703 18.0297 80 40 80C61.9703 80 80 61.9703 80 40C80 18.0297 61.9703 0 40 0ZM59.8875 16.7983L63.2017 20.1125L59.8875 23.4267L56.5733 20.1125L59.8875 16.7983ZM49.4941 10.9527L53.8245 12.747L52.0323 17.0775L47.7019 15.2831L49.4941 10.9527ZM70.4688 40C70.4688 56.8 56.8 70.4688 40 70.4688C23.2 70.4688 9.53125 56.8 9.53125 40C9.53125 23.2 23.2 9.53125 40 9.53125H42.3438V18.9062H37.6562V14.3241C25.3175 15.4409 15.5755 25.322 14.4425 37.6562H18.9062V42.3438H14.3375C15.457 54.6908 25.3092 64.543 37.6562 65.6625V61.0938H42.3438V65.5575C54.678 64.4245 64.5591 54.6825 65.6759 42.3438H61.0938V37.6562H70.4688V40ZM42.3438 23.5938V40.9705L27.5945 55.7197L24.2803 52.4055L37.6562 39.0295V23.5938H42.3438ZM64.7169 32.2981L62.9225 27.9677L67.253 26.1755L69.0473 30.5059L64.7169 32.2981Z" fill="#0D39B9"/>
</g>
<defs>
<clipPath id="clip0_1_16075">
<rect width="80" height="80" fill="white"/>
</clipPath>
</defs>
</svg>
