<svg width="80" height="80" viewBox="0 0 80 80" fill="none" xmlns="http://www.w3.org/2000/svg">
<g clip-path="url(#clip0_1_16069)">
<path fill-rule="evenodd" clip-rule="evenodd" d="M40 80C17.9121 80 0 62.0879 0 40C0 17.9121 17.9121 0 40 0C62.0879 0 80 17.9121 80 40C80 62.0879 62.0879 80 40 80ZM40 13.9824C50.9424 13.9824 59.8126 22.8526 59.8126 33.795C59.8126 44.737 40 66.0173 40 66.0173C40 66.0173 20.1874 44.737 20.1874 33.795C20.1874 22.8526 29.0576 13.9824 40 13.9824ZM40 25.9231C44.1487 25.9231 47.5131 29.2876 47.5131 33.4365C47.5131 37.5852 44.1487 40.9496 40 40.9496C35.8513 40.9496 32.4869 37.5852 32.4869 33.4365C32.4869 29.2876 35.8513 25.9231 40 25.9231Z" fill="#0D39B9"/>
</g>
<defs>
<clipPath id="clip0_1_16069">
<rect width="80" height="80" fill="white"/>
</clipPath>
</defs>
</svg>
