<svg width="62" height="72" viewBox="0 0 62 72" fill="none" xmlns="http://www.w3.org/2000/svg">
<path d="M54 0H7.71429C5.66833 0 3.70617 0.812753 2.25946 2.25946C0.812753 3.70617 0 5.66833 0 7.71429V64.2857C0 66.3317 0.812753 68.2938 2.25946 69.7405C3.70617 71.1872 5.66833 72 7.71429 72H54C56.046 72 58.0081 71.1872 59.4548 69.7405C60.9015 68.2938 61.7143 66.3317 61.7143 64.2857V7.71429C61.7143 5.66833 60.9015 3.70617 59.4548 2.25946C58.0081 0.812753 56.046 0 54 0ZM43.7143 7.71429C44.2229 7.71429 44.72 7.8651 45.1429 8.14765C45.5658 8.4302 45.8954 8.8318 46.09 9.30167C46.2846 9.77154 46.3355 10.2886 46.2363 10.7874C46.1371 11.2862 45.8922 11.7444 45.5326 12.104C45.1729 12.4636 44.7148 12.7085 44.216 12.8077C43.7171 12.907 43.2001 12.856 42.7302 12.6614C42.2604 12.4668 41.8588 12.1372 41.5762 11.7143C41.2937 11.2915 41.1429 10.7943 41.1429 10.2857C41.1429 9.60373 41.4138 8.94968 41.896 8.46744C42.3782 7.9852 43.0323 7.71429 43.7143 7.71429ZM7.71429 10.2857C7.71429 9.60373 7.9852 8.94968 8.46744 8.46744C8.94968 7.9852 9.60373 7.71429 10.2857 7.71429H18C18.682 7.71429 19.336 7.9852 19.8183 8.46744C20.3005 8.94968 20.5714 9.60373 20.5714 10.2857C20.5714 10.9677 20.3005 11.6218 19.8183 12.104C19.336 12.5862 18.682 12.8571 18 12.8571H10.2857C9.60373 12.8571 8.94968 12.5862 8.46744 12.104C7.9852 11.6218 7.71429 10.9677 7.71429 10.2857ZM30.8571 64.2857C26.7885 64.2857 22.8112 63.0792 19.4283 60.8188C16.0453 58.5584 13.4086 55.3456 11.8516 51.5866C10.2946 47.8277 9.88724 43.6915 10.681 39.701C11.4747 35.7105 13.434 32.0451 16.3109 29.1681C19.1879 26.2911 22.8534 24.3319 26.8439 23.5381C30.8343 22.7444 34.9706 23.1518 38.7295 24.7088C42.4884 26.2658 45.7012 28.9025 47.9617 32.2854C50.2221 35.6684 51.4286 39.6456 51.4286 43.7143C51.4224 49.1683 49.2531 54.3972 45.3966 58.2537C41.54 62.1103 36.3111 64.2796 30.8571 64.2857ZM51.4286 12.8571C50.92 12.8571 50.4228 12.7063 50 12.4238C49.5771 12.1412 49.2475 11.7396 49.0529 11.2698C48.8583 10.7999 48.8073 10.2829 48.9066 9.78405C49.0058 9.28524 49.2507 8.82706 49.6103 8.46744C49.9699 8.10782 50.4281 7.86291 50.9269 7.76369C51.4257 7.66448 51.9427 7.7154 52.4126 7.91002C52.8825 8.10465 53.2841 8.43424 53.5666 8.85711C53.8492 9.27997 54 9.77713 54 10.2857C54 10.9677 53.7291 11.6218 53.2468 12.104C52.7646 12.5862 52.1106 12.8571 51.4286 12.8571Z" fill="white"/>
<path d="M30.9369 43.7144C28.5306 42.5026 25.8726 41.8753 23.1785 41.8834C20.4844 41.8914 17.8301 42.5346 15.4312 43.7607C15.4335 47.8526 17.0613 51.7759 19.9564 54.6677C21.3899 56.0995 23.0914 57.235 24.9638 58.0092C26.8361 58.7835 28.8426 59.1814 30.8687 59.1802C32.8948 59.179 34.9009 58.7788 36.7723 58.0023C38.6437 57.2259 40.3439 56.0884 41.7757 54.6549C43.2076 53.2214 44.343 51.5199 45.1173 49.6476C45.8916 47.7753 46.2895 45.7688 46.2883 43.7427C43.9038 44.9331 41.2744 45.5505 38.6092 45.5456C35.9441 45.5407 33.3169 44.9136 30.9369 43.7144Z" fill="white"/>
</svg>
