<svg width="77" height="77" viewBox="0 0 77 77" fill="none" xmlns="http://www.w3.org/2000/svg">
<g clip-path="url(#clip0_25_192)">
<path d="M50.7779 54.4412C40.0528 54.421 26.9862 54.3736 17.815 54.3103L5.67151 54.2622L8.49208 70.8722C8.89904 74.2467 11.7724 76.8025 15.1708 76.816L61.5574 77.0002C64.9573 77.0138 67.8495 74.4809 68.2675 71.2147L71.237 54.5227L50.7779 54.4412ZM22.3784 65.5865C22.3665 68.5541 17.8634 68.5483 17.8753 65.5686L17.8932 61.0654C17.905 58.0979 22.4082 58.1036 22.3963 61.0833L22.3784 65.5865ZM31.3847 65.6223C31.3728 68.5899 26.8697 68.5841 26.8815 65.6044L26.8994 61.1012C26.9113 58.1336 31.4145 58.1394 31.4026 61.1191L31.3847 65.6223ZM40.391 65.6581C40.3791 68.6256 35.876 68.6199 35.8878 65.6402L35.9057 61.137C35.9176 58.1694 40.4208 58.1752 40.4089 61.1549L40.391 65.6581ZM49.8176 65.6954C49.8057 68.663 45.3026 68.6571 45.3145 65.6775L45.3324 61.1743C45.3443 58.2067 49.8474 58.2125 49.8355 61.1922L49.8176 65.6954ZM58.8238 65.7313C58.8119 68.699 54.3087 68.6931 54.3206 65.7134L54.3385 61.2103C54.3504 58.2426 58.8535 58.2485 58.8417 61.2282L58.8238 65.7313Z" fill="white"/>
<path d="M70.199 36.2053L70.1405 36.205C75.8215 28.7628 70.4778 18.1935 61.2643 18.1569L61.2058 18.1566C66.8868 10.7142 61.5431 0.145072 52.3296 0.108377L25.0107 9.57588e-05C15.8048 -0.0365996 10.3622 10.481 15.9899 17.977L15.9329 17.9767C6.72707 17.9402 1.28428 28.4576 6.91205 35.9538L6.85505 35.9535C-2.06717 35.918 -2.12838 49.4275 6.80151 49.4628L70.1456 49.7144C79.0675 49.7502 79.1274 36.2406 70.199 36.2053ZM24.9747 9.00639L52.2938 9.11497C55.2733 9.12685 55.2435 13.6298 52.2759 13.6181L24.9568 13.5095C21.9758 13.4977 22.0059 8.99466 24.9747 9.00639ZM61.2107 31.6663L15.8791 31.4862C12.898 31.4743 12.9278 26.9713 15.897 26.983L61.2286 27.1632C64.2082 27.1751 64.1781 31.6782 61.2107 31.6663Z" fill="white"/>
</g>
<defs>
<clipPath id="clip0_25_192">
<rect width="77" height="77" fill="white"/>
</clipPath>
</defs>
</svg>
