<svg width="77" height="77" viewBox="0 0 77 77" fill="none" xmlns="http://www.w3.org/2000/svg">
<path d="M33.4644 70.0407C32.3562 70.2011 31.2377 70.2794 30.118 70.275C25.2277 70.2641 20.4471 68.8248 16.3636 66.1339C12.2802 63.4431 9.07183 59.6179 7.13278 55.1284C5.19373 50.6389 4.60848 45.6808 5.44894 40.8633C6.2894 36.0457 8.51897 31.5786 11.8637 28.011C15.2083 24.4433 19.5224 21.9305 24.2758 20.7813C29.0292 19.6321 34.0147 19.8966 38.6198 21.5422C43.2249 23.1879 47.2489 26.1431 50.1974 30.0446C53.1458 33.9461 54.8902 38.624 55.2162 43.5034H60.2359V16.7319H0V76.9678H5.01966V71.9482C5.01966 71.5044 5.19594 71.0788 5.50973 70.765C5.82352 70.4512 6.24911 70.275 6.69288 70.275H13.3858C13.8295 70.275 14.2551 70.4512 14.5689 70.765C14.8827 71.0788 15.059 71.5044 15.059 71.9482V76.9678H36.0412C34.3131 75.0824 33.3886 72.5972 33.4644 70.0407Z" fill="white"/>
<path d="M8.36609 73.6216H11.7125V76.968H8.36609V73.6216Z" fill="white"/>
<path d="M0 0H16.7322V13.3858H0V0Z" fill="white"/>
<path d="M60.2359 0H20.0786V13.3858H60.2359V0ZM30.1179 10.0393C29.4561 10.0393 28.8091 9.84305 28.2587 9.47534C27.7084 9.10763 27.2795 8.58499 27.0262 7.97351C26.7729 7.36202 26.7067 6.68917 26.8358 6.04002C26.9649 5.39088 27.2836 4.7946 27.7516 4.32659C28.2197 3.85858 28.8159 3.53986 29.4651 3.41074C30.1142 3.28162 30.7871 3.34789 31.3986 3.60117C32.01 3.85446 32.5327 4.28338 32.9004 4.8337C33.2681 5.38402 33.4644 6.03102 33.4644 6.69288C33.4644 7.58041 33.1118 8.43159 32.4842 9.05917C31.8566 9.68675 31.0055 10.0393 30.1179 10.0393ZM48.5233 8.3661C48.5233 8.80986 48.3471 9.23545 48.0333 9.54924C47.7195 9.86303 47.2939 10.0393 46.8501 10.0393C46.4064 10.0393 45.9808 9.86303 45.667 9.54924C45.3532 9.23545 45.1769 8.80986 45.1769 8.3661V5.01966C45.1769 4.57589 45.3532 4.1503 45.667 3.83651C45.9808 3.52272 46.4064 3.34644 46.8501 3.34644C47.2939 3.34644 47.7195 3.52272 48.0333 3.83651C48.3471 4.1503 48.5233 4.57589 48.5233 5.01966V8.3661ZM55.2162 8.3661C55.2162 8.80986 55.0399 9.23545 54.7262 9.54924C54.4124 9.86303 53.9868 10.0393 53.543 10.0393C53.0992 10.0393 52.6736 9.86303 52.3599 9.54924C52.0461 9.23545 51.8698 8.80986 51.8698 8.3661V5.01966C51.8698 4.57589 52.0461 4.1503 52.3599 3.83651C52.6736 3.52272 53.0992 3.34644 53.543 3.34644C53.9868 3.34644 54.4124 3.52272 54.7262 3.83651C55.0399 4.1503 55.2162 4.57589 55.2162 5.01966V8.3661Z" fill="white"/>
<path d="M40.1573 43.5037C46.4318 43.5037 44.9259 43.8216 44.9259 42.3826C44.6426 40.9237 44.1465 39.5143 43.4535 38.1996C42.699 38.4574 41.894 38.5317 41.105 38.4165C40.3161 38.3013 39.566 37.9998 38.9167 37.537C38.2675 37.0742 37.7378 36.4634 37.3716 35.7551C37.0054 35.0469 36.8132 34.2616 36.8108 33.4643C36.8108 31.6238 37.6307 32.0086 36.2921 31.4565C27.5914 26.7715 15.059 33.6484 15.059 45.1769C15.0589 47.4942 15.5936 49.7803 16.6215 51.8572C17.6493 53.9341 19.1427 55.7457 20.9852 57.1511C22.8277 58.5565 24.9698 59.5177 27.2445 59.9598C29.5193 60.402 31.8654 60.3132 34.1002 59.7004C33.637 58.7307 33.4191 57.662 33.4658 56.5883C33.5125 55.5146 33.8223 54.4688 34.3679 53.543C33.7808 52.526 33.4715 51.3725 33.4712 50.1983C33.4709 49.024 33.7796 47.8703 34.3662 46.8531C34.9528 45.8358 35.7967 44.9908 36.8132 44.4029C37.8297 43.815 38.983 43.5049 40.1573 43.5037Z" fill="white"/>
<path d="M36.4595 62.4613C33.6774 63.4823 30.6899 63.8165 27.751 63.4354C24.812 63.0543 22.0086 61.9691 19.579 60.2721C17.1493 58.5752 15.1654 56.3166 13.7959 53.6885C12.4263 51.0604 11.7116 48.1405 11.7126 45.1769C11.7126 31.7911 25.7509 23.1071 36.8109 28.0599C40.1573 29.2311 40.8266 31.1553 40.1573 32.9959C40.0495 33.2947 40.029 33.6181 40.0982 33.9281C40.1674 34.2382 40.3235 34.5221 40.5481 34.7468C40.7728 34.9714 41.0567 35.1275 41.3668 35.1967C41.6769 35.2659 42.0002 35.2454 42.2991 35.1376C46.365 33.6317 48.1219 39.7055 48.5234 43.5037H51.8699C51.5339 39.1137 49.8736 34.929 47.1086 31.5027C44.3435 28.0765 40.6037 25.57 36.3837 24.3146C32.1636 23.0592 27.6619 23.114 23.4737 24.4717C19.2854 25.8294 15.6078 28.4262 12.9269 31.9187C10.246 35.4112 8.68806 39.6351 8.45902 44.032C8.22999 48.4288 9.34064 52.7917 11.6442 56.5438C13.9477 60.296 17.3356 63.2608 21.3601 65.0463C25.3847 66.8319 29.8563 67.3541 34.1839 66.5439C34.7743 65.0765 35.7031 63.7693 36.8946 62.729L36.4595 62.4613Z" fill="white"/>
<path d="M39.3206 46.85C38.655 46.85 38.0166 47.1144 37.5459 47.5851C37.0752 48.0558 36.8108 48.6942 36.8108 49.3598C36.8108 50.0255 37.0752 50.6638 37.5459 51.1345C38.0166 51.6052 38.655 51.8696 39.3206 51.8696H51.8698C52.3135 51.8696 52.7391 52.0459 53.0529 52.3597C53.3667 52.6735 53.543 53.0991 53.543 53.5429C53.543 53.9866 53.3667 54.4122 53.0529 54.726C52.7391 55.0398 52.3135 55.2161 51.8698 55.2161H39.3206C38.655 55.2161 38.0166 55.4805 37.5459 55.9512C37.0752 56.4219 36.8108 57.0603 36.8108 57.7259C36.8108 58.3916 37.0752 59.03 37.5459 59.5006C38.0166 59.9713 38.655 60.2357 39.3206 60.2357H70.2752C71.2118 60.2402 72.139 60.048 72.9966 59.6716C73.8543 59.2952 74.6235 58.743 75.2543 58.0507C75.8851 57.3583 76.3636 56.5413 76.6588 55.6524C76.9541 54.7635 77.0594 53.8225 76.9681 52.8903C76.7574 51.1991 75.9278 49.6458 74.6393 48.5304C73.3507 47.4149 71.6947 46.8162 69.9907 46.85H39.3206Z" fill="white"/>
<path d="M74.4583 71.9485H61.9091C61.4654 71.9485 61.0398 71.7722 60.726 71.4584C60.4122 71.1446 60.2359 70.7191 60.2359 70.2753C60.2359 69.8315 60.4122 69.4059 60.726 69.0921C61.0398 68.7784 61.4654 68.6021 61.9091 68.6021H74.4583C75.1239 68.6021 75.7623 68.3376 76.233 67.867C76.7037 67.3963 76.9681 66.7579 76.9681 66.0922C76.9681 65.4266 76.7037 64.7882 76.233 64.3175C75.7623 63.8468 75.1239 63.5824 74.4583 63.5824H43.7882C42.0842 63.5487 40.4281 64.1473 39.1396 65.2628C37.8511 66.3783 37.0215 67.9315 36.8108 69.6227C36.7195 70.5549 36.8248 71.4959 37.12 72.3848C37.4152 73.2737 37.8937 74.0907 38.5246 74.7831C39.1554 75.4754 39.9246 76.0277 40.7822 76.4041C41.6399 76.7805 42.5671 76.9726 43.5037 76.9682H74.4583C75.1239 76.9682 75.7623 76.7037 76.233 76.2331C76.7037 75.7624 76.9681 75.124 76.9681 74.4583C76.9681 73.7927 76.7037 73.1543 76.233 72.6836C75.7623 72.2129 75.1239 71.9485 74.4583 71.9485Z" fill="white"/>
</svg>
