<svg width="77" height="72" viewBox="0 0 77 72" fill="none" xmlns="http://www.w3.org/2000/svg">
<path d="M5.69642 1.74203C9.5149 3.59129 13.3626 5.09566 17.2342 6.27837V13.1229C17.2342 15.3564 19.0417 17.112 21.2234 17.112C23.4566 17.112 25.2122 15.3564 25.2122 13.1229V8.23566C29.4744 9.0299 33.7625 9.44165 38.0744 9.44165C42.6212 9.44165 47.1943 8.97382 51.7855 8.09065V13.1229C51.7855 15.3565 53.593 17.112 55.7747 17.112C58.0082 17.112 59.7638 15.3565 59.7638 13.1229V6.20975C59.7638 6.18051 59.7558 6.15366 59.7552 6.12442C63.5936 4.96498 67.4425 3.52149 71.2998 1.74979C71.7599 1.53855 71.9616 0.994334 71.7503 0.534847C71.5397 0.0753604 70.9973 -0.126336 70.5348 0.0837194C66.7751 1.81066 63.0243 3.21775 59.284 4.34915C58.6193 3.09481 57.319 2.2212 55.7747 2.2212C53.593 2.2212 51.7855 4.02811 51.7855 6.20975V6.21631C42.8369 7.97845 33.9654 8.03097 25.2122 6.35833V6.20975C25.2122 4.0281 23.4566 2.2212 21.2234 2.2212C19.6605 2.2212 18.3024 3.15569 17.6507 4.484C13.9071 3.3347 10.1871 1.87987 6.49604 0.0920666C6.04014 -0.128719 5.49234 0.0610371 5.27154 0.51753C5.05076 0.972837 5.24111 1.52123 5.69642 1.74203Z" fill="white"/>
<path d="M64.6929 14.8624L64.6684 14.8505C64.6565 14.8505 64.6565 14.8505 64.6565 14.8379L64.6195 14.8254L64.6075 14.8135L64.5831 14.8015H64.5708C64.5586 14.789 64.5464 14.789 64.5341 14.7765C63.5809 14.2394 62.6031 13.7746 61.5887 13.3592C61.4789 16.5124 58.9613 18.944 55.7717 18.944C52.5697 18.944 49.9542 16.3292 49.9542 13.1271V11.208H48.4391C47.8281 11.208 47.3146 11.6603 47.2415 12.2594C46.728 16.6585 43.0127 20.0319 38.5277 20.0319H38.5155C38.5032 20.0319 38.5032 20.0319 38.5032 20.0319C38.5032 20.0319 38.5032 20.0319 38.491 20.0319C34.006 20.0319 30.2907 16.6585 29.7776 12.2594C29.7042 11.6603 29.191 11.208 28.5799 11.208H27.0398V13.1271C27.0398 16.39 24.4858 18.944 21.2228 18.944C18.0819 18.944 15.5276 16.4509 15.4178 13.3592C14.4156 13.7745 13.4379 14.2394 12.4846 14.7765C12.4846 14.7765 12.4724 14.789 12.4115 14.8135C12.3745 14.8379 12.3136 14.8743 12.3136 14.8743C11.8613 15.119 10.3214 15.9747 5.72632 18.5168L14.66 33.145C16.1876 32.2284 17.5929 31.4097 17.6418 31.3727V63.9178H59.3769V31.3727C59.5723 31.4831 61.1733 32.4361 62.7988 33.4016L71.72 18.7608C66.734 15.9986 65.133 15.1071 64.6929 14.8624ZM54.513 49.1303C54.513 49.6315 54.1096 50.0468 53.5964 50.0468C53.0951 50.0468 52.6798 49.6315 52.6798 49.1303V47.2726C52.6798 46.7714 53.0951 46.3561 53.5964 46.3561C54.1096 46.3561 54.513 46.7714 54.513 47.2726V49.1303ZM54.513 42.1765C54.513 42.6897 54.1096 43.0931 53.5964 43.0931C53.0951 43.0931 52.6798 42.6897 52.6798 42.1765V33.157C52.6798 32.6438 53.0951 32.2404 53.5964 32.2404C54.1096 32.2404 54.513 32.6438 54.513 33.157V42.1765Z" fill="white"/>
<path d="M17.6243 68.2782C17.6243 70.14 19.1137 71.6283 20.9746 71.6283H56.0248C57.8335 71.6283 59.376 70.14 59.376 68.2782V65.7505H17.6243V68.2782Z" fill="white"/>
<path d="M1.72164 20.7294C0.0725644 21.6335 -0.511931 23.8151 0.498334 25.4096L5.97692 34.3456C6.93378 35.9401 8.9555 36.4181 10.5503 35.514L13.0512 34.0264L4.11482 19.3999L1.72164 20.7294Z" fill="white"/>
<path d="M75.2788 20.7296L73.3102 19.665L64.3754 34.3458L66.3959 35.5142C67.9915 36.4182 70.0133 35.9403 70.9704 34.3977L76.5021 25.4098C77.5121 23.8153 76.9264 21.6336 75.2788 20.7296Z" fill="white"/>
</svg>
