<svg width="190" height="190" viewBox="0 0 190 190" fill="none" xmlns="http://www.w3.org/2000/svg">
<g clip-path="url(#clip0_1_15391)">
<mask id="mask0_1_15391" style="mask-type:luminance" maskUnits="userSpaceOnUse" x="0" y="0" width="190" height="190">
<path d="M190 0H0V190H190V0Z" fill="white"/>
</mask>
<g mask="url(#mask0_1_15391)">
<mask id="mask1_1_15391" style="mask-type:luminance" maskUnits="userSpaceOnUse" x="0" y="0" width="190" height="190">
<path d="M190 0H0V190H190V0Z" fill="white"/>
</mask>
<g mask="url(#mask1_1_15391)">
<path d="M190 95C190 147.467 147.467 190 95 190C42.5331 190 0 147.467 0 95C0 42.5331 42.5331 0 95 0C147.467 0 190 42.5331 190 95Z" fill="#0F3282"/>
</g>
</g>
<mask id="mask2_1_15391" style="mask-type:luminance" maskUnits="userSpaceOnUse" x="0" y="0" width="190" height="190">
<path d="M190 0H0V190H190V0Z" fill="white"/>
</mask>
<g mask="url(#mask2_1_15391)">
<mask id="mask3_1_15391" style="mask-type:luminance" maskUnits="userSpaceOnUse" x="28" y="28" width="134" height="134">
<path d="M28.6445 94.9999C28.6445 131.648 58.3519 161.355 94.9999 161.355C131.648 161.355 161.355 131.648 161.355 94.9999C161.355 58.3519 131.648 28.6445 94.9999 28.6445C58.3519 28.6445 28.6445 58.3519 28.6445 94.9999Z" fill="white"/>
</mask>
<g mask="url(#mask3_1_15391)">
<path d="M161.355 28.6445H28.6445V161.355H161.355V28.6445Z" fill="url(#paint0_radial_1_15391)"/>
</g>
</g>
<mask id="mask4_1_15391" style="mask-type:luminance" maskUnits="userSpaceOnUse" x="1" y="-2" width="188" height="193">
<path d="M189 -2H1V191H189V-2Z" fill="white"/>
</mask>
<g mask="url(#mask4_1_15391)">
<mask id="mask5_1_15391" style="mask-type:luminance" maskUnits="userSpaceOnUse" x="1" y="0" width="188" height="190">
<path d="M189 0H1V190H189V0Z" fill="white"/>
</mask>
<g mask="url(#mask5_1_15391)">
<path d="M25.7017 72.3922L22.833 83.6925L9.57715 76.6506L10.9292 71.3367L22.5326 77.5037L24.0491 71.5246L25.7017 72.3922Z" fill="white"/>
</g>
<mask id="mask6_1_15391" style="mask-type:luminance" maskUnits="userSpaceOnUse" x="1" y="0" width="188" height="190">
<path d="M189 0H1V190H189V0Z" fill="white"/>
</mask>
<g mask="url(#mask6_1_15391)">
<path d="M33.1276 56.1252L30.5951 60.9764L27.0684 57.8531L25.4802 60.8897L29.007 64.0129L26.4746 68.8642L16.9601 60.4703C16.4308 59.9932 16.116 59.4003 16.0087 58.699C15.9085 57.9977 16.0302 57.3109 16.3807 56.6313L20.6515 48.4471C21.0092 47.7603 21.4598 47.3482 22.0035 47.2108C22.54 47.0734 23.0766 47.247 23.606 47.7314L33.1276 56.1252ZM19.1349 55.301L24.0709 59.6606L25.6591 56.6241L20.723 52.2645L19.1349 55.301Z" fill="white"/>
</g>
<mask id="mask7_1_15391" style="mask-type:luminance" maskUnits="userSpaceOnUse" x="1" y="0" width="188" height="190">
<path d="M189 0H1V190H189V0Z" fill="white"/>
</mask>
<g mask="url(#mask7_1_15391)">
<path d="M43.1927 40.0966C43.5862 40.6967 43.7507 41.3474 43.6792 42.0487C43.6076 42.7572 43.3215 43.3935 42.8136 43.9574L36.6685 50.8185C36.1534 51.3969 35.6169 51.6861 35.0589 51.6788C34.5009 51.6716 34.0288 51.3752 33.6282 50.7751L26.4673 40.2702L30.1085 36.1998L37.5413 47.1096L39.8233 44.5647L32.3834 33.6549L36.0247 29.5845L43.1927 40.0966Z" fill="white"/>
</g>
<mask id="mask8_1_15391" style="mask-type:luminance" maskUnits="userSpaceOnUse" x="1" y="0" width="188" height="190">
<path d="M189 0H1V190H189V0Z" fill="white"/>
</mask>
<g mask="url(#mask8_1_15391)">
<path d="M59.2601 31.0304L54.739 34.0669L48.3793 27.2492L51.6343 36.1563L47.1131 39.1929L41.9124 25.0079L46.4335 21.9714L52.8075 28.8108L49.5382 19.882L54.0594 16.8455L59.2601 31.0304Z" fill="white"/>
</g>
<mask id="mask9_1_15391" style="mask-type:luminance" maskUnits="userSpaceOnUse" x="1" y="0" width="188" height="190">
<path d="M189 0H1V190H189V0Z" fill="white"/>
</mask>
<g mask="url(#mask9_1_15391)">
<path d="M75.6776 21.7979C75.742 22.5136 75.5775 23.1643 75.184 23.7499C74.7906 24.3355 74.2326 24.7549 73.5244 25.0079L62.4861 28.9409L60.8909 13.8957L71.9291 9.96263C72.6588 9.70236 73.2597 9.70959 73.7533 9.98432C74.2397 10.2591 74.5187 10.7507 74.5831 11.4664L75.6776 21.7979ZM66.2061 13.9463L67.3936 25.2465L70.5985 24.1042L69.411 12.804L66.2061 13.9463Z" fill="white"/>
</g>
<mask id="mask10_1_15391" style="mask-type:luminance" maskUnits="userSpaceOnUse" x="1" y="0" width="188" height="190">
<path d="M189 0H1V190H189V0Z" fill="white"/>
</mask>
<g mask="url(#mask10_1_15391)">
<path d="M93.7552 21.5521L88.3541 22.0726L87.1451 17.5612L85.6214 17.7058L84.9704 22.3979L79.5693 22.9185L81.6225 7.93105L93.2759 6.81043C94.0413 6.73813 94.6279 6.88996 95.0285 7.27314C95.4292 7.65632 95.5722 8.20579 95.4649 8.91431L94.7138 14.5174C94.6279 15.1247 94.3919 15.6453 93.9984 16.0791C93.6049 16.5129 93.1113 16.8093 92.5319 16.9828L93.7552 21.5521ZM86.766 9.2758L85.8646 15.8333L89.2269 15.5079L90.1282 8.95046L86.766 9.2758Z" fill="white"/>
</g>
<mask id="mask11_1_15391" style="mask-type:luminance" maskUnits="userSpaceOnUse" x="1" y="0" width="188" height="190">
<path d="M189 0H1V190H189V0Z" fill="white"/>
</mask>
<g mask="url(#mask11_1_15391)">
<path d="M108.714 18.2118L106.997 22.622L101.646 21.8557L103.363 17.4455L102.74 7.13574L108.113 7.90933L108.571 15.6525L114.658 8.84921L116.833 9.1601L108.714 18.2118Z" fill="white"/>
</g>
<mask id="mask12_1_15391" style="mask-type:luminance" maskUnits="userSpaceOnUse" x="1" y="0" width="188" height="190">
<path d="M189 0H1V190H189V0Z" fill="white"/>
</mask>
<g mask="url(#mask12_1_15391)">
<path d="M141.628 21.8051L138.001 19.9615L129.567 30.1049L124.724 27.6396L133.151 17.4961L129.524 15.6525L130.726 14.2065L142.823 20.3591L141.628 21.8051Z" fill="white"/>
</g>
<mask id="mask13_1_15391" style="mask-type:luminance" maskUnits="userSpaceOnUse" x="1" y="0" width="188" height="190">
<path d="M189 0H1V190H189V0Z" fill="white"/>
</mask>
<g mask="url(#mask13_1_15391)">
<path d="M149.132 41.4413C148.553 41.8606 147.916 42.0414 147.215 41.998C146.514 41.9474 145.877 41.6726 145.298 41.181L138.316 35.1947C137.729 34.6886 137.429 34.1608 137.415 33.5969C137.4 33.033 137.686 32.5486 138.259 32.1293L146.528 25.955C147.108 25.5356 147.745 25.3549 148.446 25.4055C149.147 25.4561 149.783 25.7236 150.363 26.2225L157.345 32.2088C157.931 32.7149 158.232 33.2426 158.246 33.8066C158.261 34.3705 157.974 34.8621 157.402 35.2742L149.132 41.4413ZM151.064 29.2156L142.007 35.9538L144.597 38.1734L153.654 31.4352L151.064 29.2156Z" fill="white"/>
</g>
<mask id="mask14_1_15391" style="mask-type:luminance" maskUnits="userSpaceOnUse" x="1" y="0" width="188" height="190">
<path d="M189 0H1V190H189V0Z" fill="white"/>
</mask>
<g mask="url(#mask14_1_15391)">
<path d="M155.814 52.9368C155.428 52.2644 155.32 51.6571 155.492 51.1221C155.664 50.5871 156.093 50.2256 156.78 50.0232L166.623 47.0155C167.31 46.8203 167.968 46.8637 168.612 47.1457C169.256 47.4276 169.764 47.9048 170.143 48.5627L174.736 56.5734C175.122 57.2458 175.229 57.8531 175.058 58.3808C174.886 58.9086 174.464 59.2773 173.784 59.4725L171.86 60.0726L169.141 55.3226L171.509 54.5996L169.807 51.6282L159.04 54.9033L160.743 57.8747L163.74 56.971L162.71 55.178L164.491 54.6285L168.24 61.1715L163.919 62.4874C163.232 62.6826 162.574 62.6392 161.93 62.3572C161.287 62.0753 160.779 61.5981 160.4 60.9402L155.814 52.9368Z" fill="white"/>
</g>
<mask id="mask15_1_15391" style="mask-type:luminance" maskUnits="userSpaceOnUse" x="1" y="0" width="188" height="190">
<path d="M189 0H1V190H189V0Z" fill="white"/>
</mask>
<g mask="url(#mask15_1_15391)">
<path d="M169.721 80.3161C169.012 80.3378 168.376 80.1209 167.825 79.6871C167.274 79.2461 166.895 78.6605 166.695 77.923L164.241 69.0086C164.033 68.2567 164.083 67.6494 164.384 67.1723C164.684 66.7023 165.192 66.4565 165.9 66.4348L176.173 66.0227C176.881 66.001 177.518 66.2179 178.069 66.6517C178.62 67.0927 178.999 67.6784 179.199 68.4158L181.653 77.3302C181.86 78.0821 181.81 78.6894 181.51 79.1666C181.209 79.6365 180.702 79.8823 179.993 79.904L169.721 80.3161ZM178.112 71.2933L166.881 71.7271L167.789 75.0383L179.02 74.6045L178.112 71.2933Z" fill="white"/>
</g>
<mask id="mask16_1_15391" style="mask-type:luminance" maskUnits="userSpaceOnUse" x="1" y="0" width="188" height="190">
<path d="M189 0H1V190H189V0Z" fill="white"/>
</mask>
<g mask="url(#mask16_1_15391)">
<path d="M95.0001 163.951C85.7861 163.951 76.8511 162.129 68.4454 158.529C60.3188 155.058 53.022 150.084 46.7553 143.751C40.4887 137.417 35.5669 130.043 32.1331 121.83C28.5777 113.328 26.7678 104.298 26.7678 94.9928C26.7678 85.688 28.5706 76.6507 32.1331 68.1557C35.5669 59.9426 40.4887 52.5681 46.7553 46.2348C53.022 39.9015 60.3188 34.9274 68.4454 31.457C76.8582 27.8638 85.7932 26.0347 95.0001 26.0347C104.207 26.0347 113.149 27.8566 121.555 31.457C129.681 34.9274 136.978 39.9015 143.245 46.2348C149.511 52.5681 154.433 59.9426 157.867 68.1557C161.422 76.6579 163.232 85.688 163.232 94.9928C163.232 104.298 161.43 113.335 157.867 121.83C154.433 130.043 149.511 137.417 143.245 143.751C136.978 150.084 129.681 155.058 121.555 158.529C113.149 162.129 104.214 163.951 95.0001 163.951ZM95.0001 27.0613C85.922 27.0613 77.1229 28.8543 68.8317 32.3969C60.8267 35.8166 53.6372 40.7185 47.4636 46.9578C41.2899 53.1971 36.4397 60.4631 33.0559 68.5533C29.5506 76.9327 27.7765 85.8254 27.7765 95C27.7765 104.175 29.5506 113.067 33.0559 121.447C36.4397 129.537 41.2899 136.803 47.4636 143.042C53.6372 149.282 60.8267 154.183 68.8317 157.603C77.1158 161.146 85.922 162.939 95.0001 162.939C104.078 162.939 112.877 161.146 121.168 157.603C129.173 154.183 136.363 149.282 142.537 143.042C148.71 136.803 153.561 129.537 156.944 121.447C160.45 113.067 162.224 104.175 162.224 95C162.224 85.8254 160.45 76.9327 156.944 68.5533C153.561 60.4631 148.71 53.1971 142.537 46.9578C136.363 40.7185 129.173 35.8166 121.168 32.3969C112.877 28.8543 104.078 27.0613 95.0001 27.0613Z" fill="white"/>
</g>
<mask id="mask17_1_15391" style="mask-type:luminance" maskUnits="userSpaceOnUse" x="1" y="0" width="188" height="190">
<path d="M189 0H1V190H189V0Z" fill="white"/>
</mask>
<g mask="url(#mask17_1_15391)">
<path d="M12.2957 113.689L11.6018 110.407L21.7887 110.371L22.4898 113.66L12.2957 113.689Z" fill="white"/>
</g>
<mask id="mask18_1_15391" style="mask-type:luminance" maskUnits="userSpaceOnUse" x="1" y="0" width="188" height="190">
<path d="M189 0H1V190H189V0Z" fill="white"/>
</mask>
<g mask="url(#mask18_1_15391)">
<path d="M15.5077 124.852L14.5419 121.909L21.5383 121.136L21.0161 119.538L14.0197 120.312L13.054 117.362L21.1591 116.465L23.2194 122.763C23.3339 123.117 23.3124 123.413 23.1479 123.659C22.9833 123.905 22.7186 124.049 22.3467 124.086L15.5077 124.852Z" fill="white"/>
</g>
<mask id="mask19_1_15391" style="mask-type:luminance" maskUnits="userSpaceOnUse" x="1" y="0" width="188" height="190">
<path d="M189 0H1V190H189V0Z" fill="white"/>
</mask>
<g mask="url(#mask19_1_15391)">
<path d="M27.5114 138.755C27.0464 138.899 26.61 138.885 26.188 138.726C25.7659 138.567 25.444 138.278 25.2151 137.873L23.3336 134.504L20.2933 135.48L18.6479 132.559L28.3556 129.421L31.9038 135.718C32.1399 136.13 32.19 136.514 32.054 136.853C31.9181 137.193 31.6177 137.439 31.1598 137.576L27.5114 138.755ZM28.7919 132.74L24.5426 134.113L25.5728 135.942L29.8221 134.569L28.7919 132.74Z" fill="white"/>
</g>
<mask id="mask20_1_15391" style="mask-type:luminance" maskUnits="userSpaceOnUse" x="1" y="0" width="188" height="190">
<path d="M189 0H1V190H189V0Z" fill="white"/>
</mask>
<g mask="url(#mask20_1_15391)">
<path d="M34.1573 142.283L27.8191 145.363L28.8349 146.693L35.1731 143.613L37.0474 146.064L31.1455 148.949C30.7092 149.159 30.2728 149.209 29.8293 149.108C29.3929 149.007 29.0352 148.768 28.749 148.4L25.8733 144.647C25.5871 144.271 25.4798 143.903 25.5656 143.548C25.6515 143.194 25.9162 142.912 26.3525 142.703L32.2687 139.832L34.1573 142.283Z" fill="white"/>
</g>
<mask id="mask21_1_15391" style="mask-type:luminance" maskUnits="userSpaceOnUse" x="1" y="0" width="188" height="190">
<path d="M189 0H1V190H189V0Z" fill="white"/>
</mask>
<g mask="url(#mask21_1_15391)">
<path d="M42.3701 153.099L40.2669 150.952L34.3436 154.791L32.176 152.578L37.9634 148.812C38.2782 148.609 38.6144 148.522 38.9792 148.566C39.3441 148.602 39.6517 148.754 39.9092 149.021L43.3072 152.484L42.3701 153.099Z" fill="white"/>
</g>
<mask id="mask22_1_15391" style="mask-type:luminance" maskUnits="userSpaceOnUse" x="1" y="0" width="188" height="190">
<path d="M189 0H1V190H189V0Z" fill="white"/>
</mask>
<g mask="url(#mask22_1_15391)">
<path d="M47.4135 160.264C47.6996 160.495 47.8427 160.755 47.8427 161.052C47.8427 161.348 47.6925 161.616 47.4063 161.854L46.04 163.018C45.6751 163.336 45.2602 163.495 44.8095 163.495C44.3588 163.503 43.9511 163.358 43.5862 163.069L39.8949 160.133C39.5229 159.837 39.3369 159.504 39.3369 159.143C39.3369 158.774 39.5229 158.434 39.8949 158.131L40.503 157.632L42.9209 159.555L41.948 160.358L43.25 161.399L45.1028 159.844L42.6062 157.856C42.2342 157.56 42.0482 157.227 42.0482 156.866C42.0482 156.497 42.2342 156.157 42.6062 155.853L43.9511 154.711C44.2372 154.465 44.5663 154.342 44.9311 154.342C45.296 154.335 45.625 154.451 45.9112 154.675L50.089 158.001C50.3751 158.232 50.5182 158.492 50.5182 158.789C50.5182 159.085 50.368 159.353 50.0818 159.591L49.2305 160.307L46.8269 158.391L47.7998 157.589L46.4978 156.547L44.6593 158.08L47.4135 160.264Z" fill="white"/>
</g>
<mask id="mask23_1_15391" style="mask-type:luminance" maskUnits="userSpaceOnUse" x="1" y="0" width="188" height="190">
<path d="M189 0H1V190H189V0Z" fill="white"/>
</mask>
<g mask="url(#mask23_1_15391)">
<path d="M55.9407 161.782L51.1835 167.016L52.6142 167.87L57.3714 162.635L60.0112 164.204L55.583 169.091C55.2539 169.446 54.8676 169.663 54.4241 169.728C53.9806 169.8 53.5585 169.713 53.165 169.475L49.116 167.067C48.7083 166.828 48.4793 166.525 48.4293 166.156C48.3792 165.795 48.5151 165.433 48.8513 165.079L53.2866 160.199L55.9407 161.782Z" fill="white"/>
</g>
<mask id="mask24_1_15391" style="mask-type:luminance" maskUnits="userSpaceOnUse" x="1" y="0" width="188" height="190">
<path d="M189 0H1V190H189V0Z" fill="white"/>
</mask>
<g mask="url(#mask24_1_15391)">
<path d="M60.4258 173.198L57.6216 171.911L62.4575 165.281L65.2618 166.568L60.4258 173.198ZM65.8126 165.816L63.0083 164.529L63.6736 163.618L66.4779 164.905L65.8126 165.816Z" fill="white"/>
</g>
<mask id="mask25_1_15391" style="mask-type:luminance" maskUnits="userSpaceOnUse" x="1" y="0" width="188" height="190">
<path d="M189 0H1V190H189V0Z" fill="white"/>
</mask>
<g mask="url(#mask25_1_15391)">
<path d="M65.9343 175.461C65.4908 175.302 65.2046 175.056 65.083 174.709C64.9614 174.362 65.033 173.979 65.2833 173.567L68.0948 168.867L66.6855 168.376L67.2649 167.407L68.6742 167.898L69.7258 166.134L72.6302 167.154L71.5786 168.918L72.9951 169.417L72.4156 170.385L70.9992 169.887L67.9374 174.998L69.3538 175.497L68.7744 176.466L65.9343 175.461Z" fill="white"/>
</g>
<mask id="mask26_1_15391" style="mask-type:luminance" maskUnits="userSpaceOnUse" x="1" y="0" width="188" height="190">
<path d="M189 0H1V190H189V0Z" fill="white"/>
</mask>
<g mask="url(#mask26_1_15391)">
<path d="M86.0152 178.642C85.8363 179.097 85.5573 179.444 85.171 179.676C84.7847 179.907 84.3627 179.987 83.9048 179.914L78.3607 179.061C77.8957 178.989 77.5666 178.794 77.3878 178.476C77.2089 178.158 77.2018 177.767 77.3806 177.312L79.8343 170.689C80.0132 170.234 80.2922 169.887 80.6785 169.655C81.0648 169.424 81.4868 169.344 81.9447 169.417L87.4888 170.27C87.9538 170.342 88.2829 170.537 88.4617 170.855C88.6406 171.174 88.6477 171.564 88.4689 172.019L86.0152 178.642ZM83.2467 170.892L80.5497 178.129L82.61 178.447L85.3069 171.21L83.2467 170.892Z" fill="white"/>
</g>
<mask id="mask27_1_15391" style="mask-type:luminance" maskUnits="userSpaceOnUse" x="1" y="0" width="188" height="190">
<path d="M189 0H1V190H189V0Z" fill="white"/>
</mask>
<g mask="url(#mask27_1_15391)">
<path d="M98.2475 171.73L95.2573 171.68L95.057 172.583L97.3819 172.627L97.1316 173.733L94.8066 173.689L93.2256 180.616L90.1638 180.558L91.7448 173.632L90.2425 173.603L90.4929 172.496L91.9952 172.525C92.0452 172.28 92.1096 172.041 92.174 171.802C92.2384 171.564 92.3314 171.354 92.453 171.166C92.5746 170.978 92.732 170.826 92.9252 170.704C93.1183 170.588 93.3758 170.53 93.6906 170.537L98.5051 170.624L98.2475 171.73Z" fill="white"/>
</g>
<mask id="mask28_1_15391" style="mask-type:luminance" maskUnits="userSpaceOnUse" x="1" y="0" width="188" height="190">
<path d="M189 0H1V190H189V0Z" fill="white"/>
</mask>
<g mask="url(#mask28_1_15391)">
<path d="M105.637 180.008C105.172 180.081 104.8 180.001 104.536 179.748C104.264 179.502 104.149 179.134 104.178 178.642L104.521 171.578C104.55 171.094 104.715 170.675 105.015 170.335C105.316 169.995 105.688 169.793 106.145 169.713L111.582 168.831L111.525 170.111L107.827 170.711L107.354 178.447L111.139 177.832L111.081 179.112L105.637 180.008Z" fill="white"/>
</g>
<mask id="mask29_1_15391" style="mask-type:luminance" maskUnits="userSpaceOnUse" x="1" y="0" width="188" height="190">
<path d="M189 0H1V190H189V0Z" fill="white"/>
</mask>
<g mask="url(#mask29_1_15391)">
<path d="M117.212 177.651L114.236 178.454L113.721 168.166L116.697 167.371L117.212 177.651Z" fill="white"/>
</g>
<mask id="mask30_1_15391" style="mask-type:luminance" maskUnits="userSpaceOnUse" x="1" y="0" width="188" height="190">
<path d="M189 0H1V190H189V0Z" fill="white"/>
</mask>
<g mask="url(#mask30_1_15391)">
<path d="M119.516 169.937C119.458 169.561 119.516 169.214 119.702 168.896C119.888 168.578 120.145 168.347 120.489 168.217L125.453 166.301C125.797 166.171 126.09 166.178 126.34 166.337C126.591 166.489 126.741 166.756 126.805 167.125L127.535 171.752L123.121 173.458L123.286 174.586L127.699 172.88L127.878 174L122.048 176.256C121.605 176.43 121.233 176.415 120.918 176.235C120.603 176.047 120.417 175.714 120.345 175.23L119.516 169.937ZM122.377 168.672L122.928 172.301L124.48 171.701L123.929 168.072L122.377 168.672Z" fill="white"/>
</g>
<mask id="mask31_1_15391" style="mask-type:luminance" maskUnits="userSpaceOnUse" x="1" y="0" width="188" height="190">
<path d="M189 0H1V190H189V0Z" fill="white"/>
</mask>
<g mask="url(#mask31_1_15391)">
<path d="M138.123 168.773L132.657 171.795C132.242 172.027 131.87 172.07 131.534 171.925C131.198 171.781 130.962 171.477 130.833 171.007L129.953 168.079C129.846 167.718 129.86 167.363 129.989 167.024C130.125 166.684 130.354 166.424 130.668 166.243L133.737 164.544L133.415 163.438L130.604 164.992L130.282 163.908L134.689 161.464C135.011 161.283 135.304 161.254 135.569 161.377C135.833 161.493 136.027 161.739 136.134 162.1L138.123 168.773ZM132.614 166.46L133.651 169.981L135.111 169.171L134.074 165.65L132.614 166.46Z" fill="white"/>
</g>
<mask id="mask32_1_15391" style="mask-type:luminance" maskUnits="userSpaceOnUse" x="1" y="0" width="188" height="190">
<path d="M189 0H1V190H189V0Z" fill="white"/>
</mask>
<g mask="url(#mask32_1_15391)">
<path d="M147.766 162.071L145.305 163.915L142.4 157.437L141.063 158.434L143.967 164.912L141.492 166.763L138.123 159.259L143.395 155.318C143.688 155.102 143.974 155.029 144.26 155.109C144.539 155.188 144.761 155.405 144.919 155.745L147.766 162.071Z" fill="white"/>
</g>
<mask id="mask33_1_15391" style="mask-type:luminance" maskUnits="userSpaceOnUse" x="1" y="0" width="188" height="190">
<path d="M189 0H1V190H189V0Z" fill="white"/>
</mask>
<g mask="url(#mask33_1_15391)">
<path d="M152.552 157.842L150.284 159.938L145.104 151.067L147.372 148.971L152.552 157.842Z" fill="white"/>
</g>
<mask id="mask34_1_15391" style="mask-type:luminance" maskUnits="userSpaceOnUse" x="1" y="0" width="188" height="190">
<path d="M189 0H1V190H189V0Z" fill="white"/>
</mask>
<g mask="url(#mask34_1_15391)">
<path d="M151.887 145.768L149.776 148.031L149.132 147.098L151.243 144.835L151.887 145.768ZM157.059 153.294L154.948 155.557L150.298 148.79L152.409 146.527L157.059 153.294Z" fill="white"/>
</g>
<mask id="mask35_1_15391" style="mask-type:luminance" maskUnits="userSpaceOnUse" x="1" y="0" width="188" height="190">
<path d="M189 0H1V190H189V0Z" fill="white"/>
</mask>
<g mask="url(#mask35_1_15391)">
<path d="M164.334 144.315L162.481 146.78L157.895 141.387L156.887 142.724L161.472 148.118L159.612 150.598L154.297 144.344L158.267 139.066C158.489 138.769 158.747 138.625 159.04 138.618C159.333 138.618 159.598 138.755 159.848 139.044L164.334 144.315Z" fill="white"/>
</g>
<mask id="mask36_1_15391" style="mask-type:luminance" maskUnits="userSpaceOnUse" x="1" y="0" width="188" height="190">
<path d="M189 0H1V190H189V0Z" fill="white"/>
</mask>
<g mask="url(#mask36_1_15391)">
<path d="M161.186 136.868C160.907 136.615 160.736 136.311 160.671 135.943C160.607 135.581 160.671 135.234 160.85 134.909L163.468 130.231C163.647 129.906 163.883 129.725 164.17 129.689C164.456 129.645 164.742 129.754 165.021 130L168.498 133.094L166.173 137.251L167.01 138.01L169.335 133.853L170.179 134.605L167.103 140.1C166.874 140.512 166.573 140.75 166.215 140.808C165.858 140.866 165.5 140.729 165.142 140.403L161.186 136.868ZM162.596 134.048L165.314 136.492L166.13 135.032L163.411 132.588L162.596 134.048Z" fill="white"/>
</g>
<mask id="mask37_1_15391" style="mask-type:luminance" maskUnits="userSpaceOnUse" x="1" y="0" width="188" height="190">
<path d="M189 0H1V190H189V0Z" fill="white"/>
</mask>
<g mask="url(#mask37_1_15391)">
<path d="M170.458 122.56C170.594 122.213 170.801 122.003 171.08 121.924C171.359 121.844 171.659 121.909 171.967 122.119L173.455 123.11C173.856 123.377 174.128 123.731 174.263 124.165C174.399 124.599 174.378 125.04 174.206 125.474L172.468 129.884C172.296 130.325 172.031 130.6 171.688 130.708C171.338 130.817 170.966 130.73 170.565 130.455L169.914 130.007L171.051 127.115L172.089 127.831L172.704 126.269L170.701 124.917L169.542 127.896C169.37 128.337 169.106 128.611 168.762 128.72C168.412 128.828 168.04 128.742 167.639 128.467L166.173 127.484C165.858 127.274 165.65 126.992 165.543 126.638C165.436 126.283 165.443 125.936 165.579 125.589L167.546 120.594C167.682 120.247 167.889 120.037 168.168 119.957C168.447 119.878 168.748 119.943 169.056 120.153L169.978 120.774L168.848 123.652L167.811 122.936L167.196 124.498L169.17 125.842L170.458 122.56Z" fill="white"/>
</g>
<mask id="mask38_1_15391" style="mask-type:luminance" maskUnits="userSpaceOnUse" x="1" y="0" width="188" height="190">
<path d="M189 0H1V190H189V0Z" fill="white"/>
</mask>
<g mask="url(#mask38_1_15391)">
<path d="M173.448 112.012C173.533 111.65 173.712 111.412 173.977 111.296C174.242 111.18 174.549 111.202 174.886 111.361L176.495 112.142C176.931 112.351 177.246 112.662 177.432 113.074C177.625 113.487 177.661 113.92 177.554 114.376L176.431 118.981C176.316 119.444 176.095 119.755 175.765 119.907C175.436 120.058 175.057 120.03 174.621 119.813L173.92 119.458L174.657 116.436L175.78 117L176.18 115.366L174.013 114.296L173.247 117.412C173.133 117.875 172.911 118.186 172.582 118.338C172.253 118.49 171.874 118.461 171.437 118.244L169.856 117.47C169.52 117.304 169.27 117.058 169.12 116.718C168.962 116.386 168.926 116.039 169.019 115.677L170.293 110.457C170.379 110.096 170.558 109.857 170.822 109.742C171.087 109.626 171.395 109.648 171.731 109.807L172.725 110.298L171.988 113.306L170.865 112.742L170.465 114.376L172.603 115.439L173.448 112.012Z" fill="white"/>
</g>
<mask id="mask39_1_15391" style="mask-type:luminance" maskUnits="userSpaceOnUse" x="1" y="0" width="188" height="190">
<path d="M189 0H1V190H189V0Z" fill="white"/>
</mask>
<g mask="url(#mask39_1_15391)">
<path d="M19.8788 95.0218C19.8788 98.1451 17.3678 100.683 14.2774 100.683C11.187 100.683 8.67603 98.1451 8.67603 95.0218C8.67603 91.8985 11.187 89.3608 14.2774 89.3608C17.3678 89.3608 19.8788 91.8985 19.8788 95.0218Z" fill="white"/>
</g>
<mask id="mask40_1_15391" style="mask-type:luminance" maskUnits="userSpaceOnUse" x="1" y="0" width="188" height="190">
<path d="M189 0H1V190H189V0Z" fill="white"/>
</mask>
<g mask="url(#mask40_1_15391)">
<path d="M180.058 94.8192C180.058 97.9425 177.547 100.48 174.457 100.48C171.366 100.48 168.855 97.9425 168.855 94.8192C168.855 91.6959 171.366 89.1582 174.457 89.1582C177.547 89.1582 180.058 91.6959 180.058 94.8192Z" fill="white"/>
</g>
<mask id="mask41_1_15391" style="mask-type:luminance" maskUnits="userSpaceOnUse" x="1" y="0" width="188" height="190">
<path d="M189 0H1V190H189V0Z" fill="white"/>
</mask>
<g mask="url(#mask41_1_15391)">
<path d="M88.2183 122.423C88.2183 133.022 79.7197 141.611 69.2323 141.611C58.745 141.611 50.2463 133.022 50.2463 122.423C50.2463 111.824 58.745 103.235 69.2323 103.235C79.7197 103.235 88.2183 111.824 88.2183 122.423Z" fill="#412387"/>
</g>
<mask id="mask42_1_15391" style="mask-type:luminance" maskUnits="userSpaceOnUse" x="1" y="0" width="188" height="190">
<path d="M189 0H1V190H189V0Z" fill="white"/>
</mask>
<g mask="url(#mask42_1_15391)">
<path d="M85.9577 122.423C85.9577 131.757 78.4677 139.326 69.2323 139.326C59.9968 139.326 52.5068 131.757 52.5068 122.423C52.5068 113.089 59.9968 105.52 69.2323 105.52C78.4749 105.52 85.9577 113.089 85.9577 122.423Z" fill="#5AB1FF"/>
</g>
<mask id="mask43_1_15391" style="mask-type:luminance" maskUnits="userSpaceOnUse" x="1" y="0" width="188" height="190">
<path d="M189 0H1V190H189V0Z" fill="white"/>
</mask>
<g mask="url(#mask43_1_15391)">
<path d="M84.4554 122.423C84.4554 130.918 77.645 137.801 69.2394 137.801C60.8338 137.801 54.0234 130.918 54.0234 122.423C54.0234 113.928 60.8338 107.045 69.2394 107.045C77.6379 107.045 84.4554 113.928 84.4554 122.423Z" fill="white"/>
</g>
<mask id="mask44_1_15391" style="mask-type:luminance" maskUnits="userSpaceOnUse" x="1" y="0" width="188" height="190">
<path d="M189 0H1V190H189V0Z" fill="white"/>
</mask>
<g mask="url(#mask44_1_15391)">
<path d="M56.2768 123.204C56.0479 123.204 55.8548 123.03 55.8262 122.792C55.8047 122.575 55.3612 117.405 59.6391 112.93C63.9599 108.411 69.4254 108.852 69.6543 108.874C69.9047 108.896 70.0835 109.12 70.0621 109.366C70.0406 109.619 69.8188 109.8 69.5756 109.778C69.5255 109.771 64.2962 109.366 60.2901 113.566C56.3126 117.731 56.7204 122.661 56.7275 122.705C56.749 122.958 56.5701 123.175 56.3198 123.204C56.3054 123.204 56.2911 123.204 56.2768 123.204Z" fill="#CCCCCC"/>
</g>
<mask id="mask45_1_15391" style="mask-type:luminance" maskUnits="userSpaceOnUse" x="1" y="0" width="188" height="190">
<path d="M189 0H1V190H189V0Z" fill="white"/>
</mask>
<g mask="url(#mask45_1_15391)">
<path d="M59.2889 122.611C59.0958 122.611 58.9384 122.466 58.9169 122.271C58.9026 122.105 58.5664 118.237 61.7713 114.889C65.0048 111.506 69.0967 111.838 69.2755 111.853C69.483 111.875 69.6332 112.055 69.6189 112.265C69.5974 112.475 69.4186 112.626 69.2111 112.612C69.1754 112.612 65.2909 112.308 62.3149 115.424C59.3605 118.512 59.6681 122.17 59.6681 122.206C59.6895 122.416 59.5393 122.596 59.3318 122.618C59.3175 122.611 59.3032 122.611 59.2889 122.611Z" fill="#CCCCCC"/>
</g>
<mask id="mask46_1_15391" style="mask-type:luminance" maskUnits="userSpaceOnUse" x="1" y="0" width="188" height="190">
<path d="M189 0H1V190H189V0Z" fill="white"/>
</mask>
<g mask="url(#mask46_1_15391)">
<path d="M61.9356 122.459C61.8212 122.459 61.721 122.372 61.7139 122.256C61.6996 122.141 61.4563 119.321 63.7956 116.877C66.1492 114.412 69.1323 114.651 69.261 114.665C69.3827 114.68 69.4757 114.788 69.4685 114.911C69.4542 115.034 69.3469 115.128 69.2253 115.121C69.1967 115.121 66.328 114.896 64.1247 117.196C61.9428 119.48 62.1645 122.191 62.1717 122.213C62.186 122.336 62.093 122.452 61.9714 122.459C61.9499 122.459 61.9428 122.459 61.9356 122.459Z" fill="#CCCCCC"/>
</g>
<mask id="mask47_1_15391" style="mask-type:luminance" maskUnits="userSpaceOnUse" x="1" y="0" width="188" height="190">
<path d="M189 0H1V190H189V0Z" fill="white"/>
</mask>
<g mask="url(#mask47_1_15391)">
<path d="M82.1808 121.606C82.4097 121.606 82.6028 121.779 82.6315 122.018C82.6529 122.235 83.0965 127.404 78.8185 131.879C74.4977 136.398 69.0322 135.957 68.8033 135.935C68.5529 135.914 68.3741 135.689 68.3955 135.444C68.417 135.191 68.6388 135.01 68.882 135.032C68.9321 135.039 74.1614 135.444 78.1675 131.243C82.145 127.079 81.7372 122.148 81.7301 122.105C81.7086 121.852 81.8875 121.635 82.1379 121.606C82.1522 121.606 82.1665 121.606 82.1808 121.606Z" fill="#CCCCCC"/>
</g>
<mask id="mask48_1_15391" style="mask-type:luminance" maskUnits="userSpaceOnUse" x="1" y="0" width="188" height="190">
<path d="M189 0H1V190H189V0Z" fill="white"/>
</mask>
<g mask="url(#mask48_1_15391)">
<path d="M79.1761 122.206C79.3693 122.206 79.5267 122.351 79.5481 122.546C79.5624 122.712 79.8987 126.58 76.6938 129.927C73.4603 133.311 69.3684 132.978 69.1895 132.964C68.9821 132.942 68.8318 132.762 68.8462 132.552C68.8676 132.342 69.0465 132.19 69.2539 132.205C69.2897 132.205 73.1742 132.508 76.1501 129.392C79.1046 126.305 78.797 122.647 78.797 122.611C78.7755 122.401 78.9258 122.22 79.1332 122.199C79.1475 122.206 79.1618 122.206 79.1761 122.206Z" fill="#CCCCCC"/>
</g>
<mask id="mask49_1_15391" style="mask-type:luminance" maskUnits="userSpaceOnUse" x="1" y="0" width="188" height="190">
<path d="M189 0H1V190H189V0Z" fill="white"/>
</mask>
<g mask="url(#mask49_1_15391)">
<path d="M76.5294 122.358C76.6438 122.358 76.744 122.444 76.7511 122.56C76.7654 122.676 77.0087 125.495 74.6694 127.939C72.3158 130.404 69.3327 130.166 69.2039 130.151C69.0823 130.137 68.9893 130.029 68.9965 129.906C69.0108 129.783 69.1181 129.689 69.2397 129.696C69.2683 129.696 72.137 129.92 74.3403 127.621C76.5222 125.336 76.3004 122.625 76.2933 122.603C76.279 122.481 76.372 122.365 76.4936 122.358C76.5151 122.358 76.5222 122.358 76.5294 122.358Z" fill="#CCCCCC"/>
</g>
<mask id="mask50_1_15391" style="mask-type:luminance" maskUnits="userSpaceOnUse" x="1" y="0" width="188" height="190">
<path d="M189 0H1V190H189V0Z" fill="white"/>
</mask>
<g mask="url(#mask50_1_15391)">
<path d="M92.8468 121.266L93.2331 117.984L91.2944 117.564L91.5949 115.945L96.6454 117.434C96.6454 117.434 96.4809 118.425 96.0874 118.598L94.3634 118.273L93.9556 121.779L92.8468 121.266Z" fill="#AC65ED"/>
</g>
<mask id="mask51_1_15391" style="mask-type:luminance" maskUnits="userSpaceOnUse" x="1" y="0" width="188" height="190">
<path d="M189 0H1V190H189V0Z" fill="white"/>
</mask>
<g mask="url(#mask51_1_15391)">
<path d="M114.694 89.3606C114.694 89.3606 113.843 89.6426 113.936 90.0113C114.029 90.38 115.438 93.2864 115.438 93.2864L117.348 92.2092L116.225 89.3606C116.225 89.3606 116.154 89.0642 115.868 89.057C115.538 89.0498 115.124 89.1582 114.694 89.3606Z" fill="#5AB1FF"/>
</g>
<mask id="mask52_1_15391" style="mask-type:luminance" maskUnits="userSpaceOnUse" x="1" y="0" width="188" height="190">
<path d="M189 0H1V190H189V0Z" fill="white"/>
</mask>
<g mask="url(#mask52_1_15391)">
<path d="M147.723 122.423C147.723 133.022 139.225 141.611 128.737 141.611C118.25 141.611 109.751 133.022 109.751 122.423C109.751 111.824 118.25 103.235 128.737 103.235C139.225 103.235 147.723 111.824 147.723 122.423Z" fill="#0F3282"/>
</g>
<mask id="mask53_1_15391" style="mask-type:luminance" maskUnits="userSpaceOnUse" x="1" y="0" width="188" height="190">
<path d="M189 0H1V190H189V0Z" fill="white"/>
</mask>
<g mask="url(#mask53_1_15391)">
<path d="M145.462 122.423C145.462 131.757 137.972 139.326 128.737 139.326C119.501 139.326 112.011 131.757 112.011 122.423C112.011 113.089 119.501 105.52 128.737 105.52C137.972 105.52 145.462 113.089 145.462 122.423Z" fill="#5AB1FF"/>
</g>
<mask id="mask54_1_15391" style="mask-type:luminance" maskUnits="userSpaceOnUse" x="1" y="0" width="188" height="190">
<path d="M189 0H1V190H189V0Z" fill="white"/>
</mask>
<g mask="url(#mask54_1_15391)">
<path d="M143.96 122.423C143.96 130.918 137.15 137.801 128.744 137.801C120.338 137.801 113.528 130.918 113.528 122.423C113.528 113.928 120.338 107.045 128.744 107.045C137.143 107.045 143.96 113.928 143.96 122.423Z" fill="white"/>
</g>
<mask id="mask55_1_15391" style="mask-type:luminance" maskUnits="userSpaceOnUse" x="1" y="0" width="188" height="190">
<path d="M189 0H1V190H189V0Z" fill="white"/>
</mask>
<g mask="url(#mask55_1_15391)">
<path d="M115.782 123.204C115.553 123.204 115.36 123.03 115.331 122.792C115.31 122.575 114.866 117.405 119.144 112.93C123.465 108.411 128.93 108.852 129.159 108.874C129.41 108.896 129.588 109.12 129.567 109.366C129.545 109.619 129.324 109.8 129.081 109.778C129.03 109.771 123.801 109.366 119.795 113.566C115.817 117.731 116.225 122.661 116.232 122.705C116.254 122.958 116.075 123.175 115.825 123.204C115.81 123.204 115.796 123.204 115.782 123.204Z" fill="#CCCCCC"/>
</g>
<mask id="mask56_1_15391" style="mask-type:luminance" maskUnits="userSpaceOnUse" x="1" y="0" width="188" height="190">
<path d="M189 0H1V190H189V0Z" fill="white"/>
</mask>
<g mask="url(#mask56_1_15391)">
<path d="M118.793 122.611C118.6 122.611 118.443 122.466 118.421 122.271C118.407 122.105 118.071 118.237 121.276 114.889C124.509 111.506 128.601 111.838 128.78 111.853C128.987 111.875 129.138 112.055 129.123 112.265C129.102 112.475 128.923 112.626 128.716 112.612C128.68 112.612 124.795 112.308 121.819 115.424C118.865 118.512 119.172 122.17 119.172 122.206C119.194 122.416 119.044 122.596 118.836 122.618C118.822 122.611 118.808 122.611 118.793 122.611Z" fill="#CCCCCC"/>
</g>
<mask id="mask57_1_15391" style="mask-type:luminance" maskUnits="userSpaceOnUse" x="1" y="0" width="188" height="190">
<path d="M189 0H1V190H189V0Z" fill="white"/>
</mask>
<g mask="url(#mask57_1_15391)">
<path d="M121.44 122.459C121.326 122.459 121.225 122.372 121.218 122.256C121.204 122.141 120.961 119.321 123.3 116.877C125.654 114.412 128.637 114.651 128.765 114.665C128.887 114.68 128.98 114.788 128.973 114.911C128.959 115.034 128.851 115.128 128.73 115.121C128.701 115.121 125.832 114.896 123.629 117.196C121.447 119.48 121.669 122.191 121.676 122.213C121.69 122.336 121.597 122.452 121.476 122.459C121.454 122.459 121.447 122.459 121.44 122.459Z" fill="#CCCCCC"/>
</g>
<mask id="mask58_1_15391" style="mask-type:luminance" maskUnits="userSpaceOnUse" x="1" y="0" width="188" height="190">
<path d="M189 0H1V190H189V0Z" fill="white"/>
</mask>
<g mask="url(#mask58_1_15391)">
<path d="M141.685 121.606C141.914 121.606 142.107 121.779 142.136 122.018C142.157 122.235 142.601 127.404 138.323 131.879C134.002 136.398 128.537 135.957 128.308 135.935C128.057 135.914 127.878 135.689 127.9 135.444C127.921 135.191 128.143 135.01 128.386 135.032C128.436 135.039 133.666 135.444 137.672 131.243C141.649 127.079 141.242 122.148 141.234 122.105C141.213 121.852 141.392 121.635 141.642 121.606C141.657 121.606 141.671 121.606 141.685 121.606Z" fill="#CCCCCC"/>
</g>
<mask id="mask59_1_15391" style="mask-type:luminance" maskUnits="userSpaceOnUse" x="1" y="0" width="188" height="190">
<path d="M189 0H1V190H189V0Z" fill="white"/>
</mask>
<g mask="url(#mask59_1_15391)">
<path d="M138.681 122.206C138.874 122.206 139.031 122.351 139.053 122.546C139.067 122.712 139.403 126.58 136.198 129.927C132.965 133.311 128.873 132.978 128.694 132.964C128.486 132.942 128.336 132.762 128.351 132.552C128.372 132.342 128.551 132.19 128.758 132.205C128.794 132.205 132.679 132.508 135.655 129.392C138.609 126.305 138.301 122.647 138.301 122.611C138.28 122.401 138.43 122.22 138.638 122.199C138.652 122.206 138.666 122.206 138.681 122.206Z" fill="#CCCCCC"/>
</g>
<mask id="mask60_1_15391" style="mask-type:luminance" maskUnits="userSpaceOnUse" x="1" y="0" width="188" height="190">
<path d="M189 0H1V190H189V0Z" fill="white"/>
</mask>
<g mask="url(#mask60_1_15391)">
<path d="M136.034 122.358C136.148 122.358 136.248 122.444 136.256 122.56C136.27 122.676 136.513 125.495 134.174 127.939C131.82 130.404 128.837 130.166 128.708 130.151C128.587 130.137 128.494 130.029 128.501 129.906C128.515 129.783 128.622 129.689 128.744 129.696C128.773 129.696 131.641 129.92 133.845 127.621C136.027 125.336 135.805 122.625 135.798 122.603C135.783 122.481 135.876 122.365 135.998 122.358C136.019 122.358 136.027 122.358 136.034 122.358Z" fill="#CCCCCC"/>
</g>
<mask id="mask61_1_15391" style="mask-type:luminance" maskUnits="userSpaceOnUse" x="1" y="0" width="188" height="190">
<path d="M189 0H1V190H189V0Z" fill="white"/>
</mask>
<g mask="url(#mask61_1_15391)">
<path d="M128.78 117.232C128.623 117.232 128.465 117.239 128.315 117.254C127.142 113.877 122.034 101.398 119.616 95.5929C118.858 93.7638 118.3 92.5781 118.3 92.5781C118.085 91.9925 117.799 92.0792 117.799 92.0792C115.846 92.3323 115.045 93.0697 114.852 93.2866C114.816 93.3228 114.802 93.3734 114.802 93.4312C114.895 94.2771 116.454 97.4799 116.454 97.4799C112.341 98.2463 88.9411 102.056 88.9411 102.056L88.8982 105.91L89.6636 104.681L117.334 99.6489L117.964 101.08L101.303 116.791C101.303 116.791 100.916 115.511 98.5915 114.672C98.4627 114.629 98.3339 114.586 98.198 114.542C98.1479 114.528 98.105 114.513 98.0549 114.499C98.0549 114.499 97.7116 114.391 97.2394 114.109C97.1321 114.043 97.0176 113.971 96.9032 113.884C96.6814 113.725 96.4382 113.523 96.2021 113.284C96.1163 113.198 96.0304 113.104 95.9517 113.002C95.8945 112.937 95.8444 112.872 95.7872 112.8C95.7872 112.8 95.0647 111.477 94.5496 111.477L94.7213 111.202L91.0443 110.038L90.8154 110.971C90.8154 110.971 90.1429 110.653 89.7351 111.058C89.5491 111.246 89.1915 110.436 88.8624 109.503L88.798 115.439L99.7218 118.287L96.0304 121.823C94.9216 120.876 93.0259 120.731 93.0259 120.731L90.0213 120.89L87.8108 124.845L89.0627 131.598C89.0627 131.598 89.3918 131.034 91.9099 132.017C94.428 133.007 96.524 130.911 96.524 130.911C99.4714 128.604 98.0764 124.375 98.0764 124.375L119.18 103.951L125.518 118.403C124.352 119.365 123.608 120.825 123.608 122.459C123.608 125.344 125.926 127.686 128.78 127.686C131.635 127.686 133.952 125.344 133.952 122.459C133.952 119.574 131.635 117.232 128.78 117.232ZM125.511 124.274C125.182 124.274 124.917 124.006 124.917 123.674C124.917 123.341 125.182 123.074 125.511 123.074C125.84 123.074 126.105 123.341 126.105 123.674C126.105 123.999 125.84 124.274 125.511 124.274ZM125.568 121.606C125.239 121.606 124.974 121.338 124.974 121.006C124.974 120.673 125.239 120.406 125.568 120.406C125.897 120.406 126.162 120.673 126.162 121.006C126.162 121.338 125.897 121.606 125.568 121.606ZM127.307 126.255C126.977 126.255 126.713 125.987 126.713 125.655C126.713 125.322 126.977 125.055 127.307 125.055C127.636 125.055 127.9 125.322 127.9 125.655C127.9 125.987 127.636 126.255 127.307 126.255ZM132.007 120.558C132.336 120.558 132.6 120.825 132.6 121.158C132.6 121.49 132.336 121.758 132.007 121.758C131.677 121.758 131.413 121.49 131.413 121.158C131.413 120.832 131.685 120.558 132.007 120.558ZM130.025 126.334C129.696 126.334 129.431 126.067 129.431 125.734C129.431 125.402 129.696 125.134 130.025 125.134C130.354 125.134 130.619 125.402 130.619 125.734C130.619 126.067 130.354 126.334 130.025 126.334ZM130.189 119.784C129.86 119.784 129.596 119.516 129.596 119.184C129.596 118.851 129.86 118.584 130.189 118.584C130.519 118.584 130.783 118.851 130.783 119.184C130.783 119.516 130.519 119.784 130.189 119.784ZM131.921 124.476C131.592 124.476 131.327 124.209 131.327 123.876C131.327 123.543 131.592 123.276 131.921 123.276C132.25 123.276 132.514 123.543 132.514 123.876C132.514 124.209 132.25 124.476 131.921 124.476Z" fill="#0F3282"/>
</g>
<mask id="mask62_1_15391" style="mask-type:luminance" maskUnits="userSpaceOnUse" x="1" y="0" width="188" height="190">
<path d="M189 0H1V190H189V0Z" fill="white"/>
</mask>
<g mask="url(#mask62_1_15391)">
<path d="M130.683 122.423C130.683 123.507 129.817 124.382 128.744 124.382C127.671 124.382 126.805 123.507 126.805 122.423C126.805 121.338 127.671 120.463 128.744 120.463C129.81 120.463 130.683 121.338 130.683 122.423Z" fill="#59B1FE"/>
</g>
<mask id="mask63_1_15391" style="mask-type:luminance" maskUnits="userSpaceOnUse" x="1" y="0" width="188" height="190">
<path d="M189 0H1V190H189V0Z" fill="white"/>
</mask>
<g mask="url(#mask63_1_15391)">
<path d="M129.545 122.423C129.545 122.871 129.188 123.24 128.737 123.24C128.294 123.24 127.929 122.878 127.929 122.423C127.929 121.967 128.286 121.606 128.737 121.606C129.188 121.606 129.545 121.974 129.545 122.423Z" fill="white"/>
</g>
<mask id="mask64_1_15391" style="mask-type:luminance" maskUnits="userSpaceOnUse" x="1" y="0" width="188" height="190">
<path d="M189 0H1V190H189V0Z" fill="white"/>
</mask>
<g mask="url(#mask64_1_15391)">
<g opacity="0.15">
<mask id="mask65_1_15391" style="mask-type:luminance" maskUnits="userSpaceOnUse" x="88" y="105" width="1" height="5">
<path d="M88.9052 105.91H88.1255V109.503H88.9052V105.91Z" fill="white"/>
</mask>
<g mask="url(#mask65_1_15391)">
<path d="M88.9126 105.91L88.8697 109.503C88.4833 108.419 88.1328 107.161 88.1328 107.161L88.9126 105.91Z" fill="#FFCC93"/>
</g>
</g>
</g>
<mask id="mask66_1_15391" style="mask-type:luminance" maskUnits="userSpaceOnUse" x="1" y="0" width="188" height="190">
<path d="M189 0H1V190H189V0Z" fill="white"/>
</mask>
<g mask="url(#mask66_1_15391)">
<path d="M90.9582 109.872L90.4932 111.455L94.5565 112.019L95.0286 110.638L90.9582 109.872Z" fill="#FFEEDE"/>
</g>
<mask id="mask67_1_15391" style="mask-type:luminance" maskUnits="userSpaceOnUse" x="1" y="0" width="188" height="190">
<path d="M189 0H1V190H189V0Z" fill="white"/>
</mask>
<g mask="url(#mask67_1_15391)">
<path d="M101.303 116.776L100.645 117.355C99.0707 117.297 91.545 114.832 91.2231 114.723C91.2159 114.723 91.2159 114.723 91.2159 114.723C90.522 114.781 90.0999 114.159 90.0999 114.159L89.7423 111.05L89.7351 110.985C89.8138 110.942 89.8996 110.913 89.9855 110.899C90.2216 110.848 90.4791 110.877 90.7509 110.949C90.7724 110.956 90.7939 110.956 90.8153 110.964C90.9226 110.993 91.0228 111.029 91.1301 111.065C91.7954 111.311 92.4678 111.723 92.8684 111.802C93.3835 111.911 93.8485 111.484 94.5496 111.47C95.0646 111.477 95.7872 112.793 95.7872 112.793C96.7815 114.101 98.0549 114.492 98.0549 114.492C100.68 115.273 101.245 116.603 101.303 116.776Z" fill="#5AB1FF"/>
</g>
<mask id="mask68_1_15391" style="mask-type:luminance" maskUnits="userSpaceOnUse" x="1" y="0" width="188" height="190">
<path d="M189 0H1V190H189V0Z" fill="white"/>
</mask>
<g mask="url(#mask68_1_15391)">
<path d="M89.7422 110.985C89.8209 110.942 89.9067 110.913 89.9926 110.898C89.9067 110.927 89.8209 110.978 89.7493 111.05L89.7422 110.985Z" fill="#5AB1FF"/>
</g>
<mask id="mask69_1_15391" style="mask-type:luminance" maskUnits="userSpaceOnUse" x="1" y="0" width="188" height="190">
<path d="M189 0H1V190H189V0Z" fill="white"/>
</mask>
<g mask="url(#mask69_1_15391)">
<path d="M90.7576 110.942C90.7793 110.949 90.8009 110.949 90.8226 110.956V110.964C90.8154 110.971 90.7937 110.956 90.7576 110.942Z" fill="#5AB1FF"/>
</g>
<mask id="mask70_1_15391" style="mask-type:luminance" maskUnits="userSpaceOnUse" x="1" y="0" width="188" height="190">
<path d="M189 0H1V190H189V0Z" fill="white"/>
</mask>
<g mask="url(#mask70_1_15391)">
<path d="M96.2089 113.284C95.7654 113.646 95.1573 113.826 95.1215 113.834C95.1072 113.841 95.0858 113.841 95.0715 113.841C94.9856 113.841 94.9141 113.783 94.8926 113.703C94.864 113.602 94.9212 113.494 95.0214 113.465C95.2074 113.414 95.6438 113.248 95.9514 113.002C96.0372 113.103 96.1231 113.197 96.2089 113.284Z" fill="white"/>
</g>
<mask id="mask71_1_15391" style="mask-type:luminance" maskUnits="userSpaceOnUse" x="1" y="0" width="188" height="190">
<path d="M189 0H1V190H189V0Z" fill="white"/>
</mask>
<g mask="url(#mask71_1_15391)">
<path d="M97.239 114.108C96.8241 114.434 96.3091 114.614 96.2804 114.622C96.259 114.629 96.2447 114.629 96.2232 114.629C96.1445 114.629 96.073 114.578 96.0444 114.499C96.0157 114.398 96.0658 114.289 96.166 114.26C96.3162 114.21 96.631 114.072 96.91 113.884C97.0244 113.971 97.1389 114.043 97.239 114.108Z" fill="white"/>
</g>
<mask id="mask72_1_15391" style="mask-type:luminance" maskUnits="userSpaceOnUse" x="1" y="0" width="188" height="190">
<path d="M189 0H1V190H189V0Z" fill="white"/>
</mask>
<g mask="url(#mask72_1_15391)">
<path d="M98.5983 114.672C98.1906 115.164 97.4108 115.432 97.3679 115.446C97.3464 115.453 97.3321 115.453 97.3106 115.453C97.232 115.453 97.1604 115.403 97.1318 115.323C97.096 115.222 97.1533 115.113 97.2534 115.084C97.4466 115.019 97.9116 114.817 98.2049 114.542C98.3408 114.586 98.4695 114.629 98.5983 114.672Z" fill="white"/>
</g>
<mask id="mask73_1_15391" style="mask-type:luminance" maskUnits="userSpaceOnUse" x="1" y="0" width="188" height="190">
<path d="M189 0H1V190H189V0Z" fill="white"/>
</mask>
<g mask="url(#mask73_1_15391)">
<path d="M72.5947 122.408C72.5947 124.274 71.0995 125.785 69.2539 125.785C67.4082 125.785 65.9131 124.274 65.9131 122.408C65.9131 120.543 67.4082 119.032 69.2539 119.032C71.0995 119.032 72.5947 120.543 72.5947 122.408Z" fill="#5AB1FF"/>
</g>
<mask id="mask74_1_15391" style="mask-type:luminance" maskUnits="userSpaceOnUse" x="1" y="0" width="188" height="190">
<path d="M189 0H1V190H189V0Z" fill="white"/>
</mask>
<g mask="url(#mask74_1_15391)">
<path d="M85.0851 124.519C83.1106 124.801 75.2773 123.493 73.589 123.204C73.6391 122.943 73.6606 122.676 73.6606 122.401C73.6606 120.803 72.8307 119.401 71.5788 118.62C73.26 116.841 79.9702 109.742 81.4009 108.621L82.1163 105.512L70.6059 118.164C70.1767 118.027 69.726 117.948 69.2539 117.948C66.8216 117.948 64.8472 119.943 64.8472 122.401C64.8472 124.859 66.8216 126.855 69.2539 126.855C70.9064 126.855 72.3443 125.936 73.0954 124.577C74.7265 125.091 84.7918 126.551 84.7918 126.551H85.2496L85.0851 124.519ZM69.2539 125.611C67.5012 125.611 66.0848 124.18 66.0848 122.408C66.0848 120.637 67.5084 119.206 69.2539 119.206C70.9994 119.206 72.423 120.637 72.423 122.408C72.423 124.18 70.9994 125.611 69.2539 125.611Z" fill="#412387"/>
</g>
<mask id="mask75_1_15391" style="mask-type:luminance" maskUnits="userSpaceOnUse" x="1" y="0" width="188" height="190">
<path d="M189 0H1V190H189V0Z" fill="white"/>
</mask>
<g mask="url(#mask75_1_15391)">
<path d="M70.7275 123.406C70.9206 123.124 71.0279 122.777 71.0279 122.408C71.0279 121.418 70.2339 120.615 69.2538 120.615C68.2738 120.615 67.4797 121.418 67.4797 122.408C67.4797 123.399 68.2738 124.201 69.2538 124.201C69.5185 124.201 69.776 124.143 69.9978 124.035C70.4986 125.553 69.8905 126.862 69.2896 127.693C69.1107 127.614 68.9176 127.57 68.7101 127.57C67.9304 127.57 67.2937 128.214 67.2937 129.002C67.2937 129.797 67.9304 130.433 68.7101 130.433C69.497 130.433 70.1266 129.79 70.1266 129.002C70.1266 128.749 70.0622 128.51 69.9477 128.301C70.7346 127.245 71.5788 125.466 70.7275 123.406ZM68.4311 128.655L68.7173 129.009L68.5814 128.843L68.4311 128.655Z" fill="#8154CB"/>
</g>
<mask id="mask76_1_15391" style="mask-type:luminance" maskUnits="userSpaceOnUse" x="1" y="0" width="188" height="190">
<path d="M189 0H1V190H189V0Z" fill="white"/>
</mask>
<g mask="url(#mask76_1_15391)">
<path d="M68.7173 129.009L68.5814 128.843L68.4312 128.655L68.7173 129.009Z" fill="#412387"/>
</g>
<mask id="mask77_1_15391" style="mask-type:luminance" maskUnits="userSpaceOnUse" x="1" y="0" width="188" height="190">
<path d="M189 0H1V190H189V0Z" fill="white"/>
</mask>
<g mask="url(#mask77_1_15391)">
<path d="M69.9905 122.408C69.9905 122.82 69.6614 123.153 69.2537 123.153C68.8459 123.153 68.5168 122.82 68.5168 122.408C68.5168 121.996 68.8459 121.664 69.2537 121.664C69.6614 121.664 69.9905 121.996 69.9905 122.408Z" fill="#FFEEDE"/>
</g>
<mask id="mask78_1_15391" style="mask-type:luminance" maskUnits="userSpaceOnUse" x="1" y="0" width="188" height="190">
<path d="M189 0H1V190H189V0Z" fill="white"/>
</mask>
<g mask="url(#mask78_1_15391)">
<path d="M68.7173 129.009L68.5814 128.843L68.4312 128.655L68.7173 129.009Z" fill="#412387"/>
</g>
<mask id="mask79_1_15391" style="mask-type:luminance" maskUnits="userSpaceOnUse" x="1" y="0" width="188" height="190">
<path d="M189 0H1V190H189V0Z" fill="white"/>
</mask>
<g mask="url(#mask79_1_15391)">
<path d="M69.4113 129.009C69.4113 129.4 69.1036 129.71 68.7173 129.71C68.331 129.71 68.0234 129.4 68.0234 129.009C68.0234 128.619 68.331 128.308 68.7173 128.308C69.0965 128.308 69.4113 128.619 69.4113 129.009Z" fill="#FFEEDE"/>
</g>
<mask id="mask80_1_15391" style="mask-type:luminance" maskUnits="userSpaceOnUse" x="1" y="0" width="188" height="190">
<path d="M189 0H1V190H189V0Z" fill="white"/>
</mask>
<g mask="url(#mask80_1_15391)">
<path d="M84.8057 131.735L68.6454 130.347L67.3506 129.067L67.508 125.777L67.8084 125.792L67.6582 128.944L68.7813 130.05L84.5553 131.409L85.936 123.081L84.6912 121.114H72.5943V120.811H84.8558L86.2579 123.016L86.2436 123.073L84.8057 131.735Z" fill="#412387"/>
</g>
<mask id="mask81_1_15391" style="mask-type:luminance" maskUnits="userSpaceOnUse" x="1" y="0" width="188" height="190">
<path d="M189 0H1V190H189V0Z" fill="white"/>
</mask>
<g mask="url(#mask81_1_15391)">
<path d="M96.8671 126.558C96.8671 128.807 95.0644 130.629 92.8396 130.629C90.6148 130.629 88.812 128.807 88.812 126.558C88.812 124.31 90.6148 122.488 92.8396 122.488C95.0644 122.488 96.8671 124.31 96.8671 126.558Z" fill="#5AB1FF"/>
</g>
<mask id="mask82_1_15391" style="mask-type:luminance" maskUnits="userSpaceOnUse" x="1" y="0" width="188" height="190">
<path d="M189 0H1V190H189V0Z" fill="white"/>
</mask>
<g mask="url(#mask82_1_15391)">
<path d="M95.3431 126.558C95.3431 128.004 94.1556 129.175 92.6819 129.175C91.2154 129.175 90.0208 128.004 90.0208 126.558C90.0208 125.112 91.2083 123.941 92.6819 123.941C94.1556 123.941 95.3431 125.112 95.3431 126.558Z" fill="#412387"/>
</g>
<mask id="mask83_1_15391" style="mask-type:luminance" maskUnits="userSpaceOnUse" x="1" y="0" width="188" height="190">
<path d="M189 0H1V190H189V0Z" fill="white"/>
</mask>
<g mask="url(#mask83_1_15391)">
<path d="M94.2776 126.58C94.2776 127.426 93.598 128.113 92.761 128.113C91.924 128.113 91.2444 127.426 91.2444 126.58C91.2444 125.734 91.924 125.047 92.761 125.047C93.598 125.047 94.2776 125.734 94.2776 126.58Z" fill="#AC65ED"/>
</g>
<mask id="mask84_1_15391" style="mask-type:luminance" maskUnits="userSpaceOnUse" x="1" y="0" width="188" height="190">
<path d="M189 0H1V190H189V0Z" fill="white"/>
</mask>
<g mask="url(#mask84_1_15391)">
<path d="M92.0597 127.505L91.4158 132.993L88.9907 135.957C88.9907 135.957 88.5901 136.239 88.6616 136.861C88.7403 137.483 88.8333 137.981 89.3913 137.945C89.9493 137.909 92.5747 137.801 92.5747 137.801C92.5747 137.801 94.0341 137.808 94.0341 137.193C94.0341 136.572 93.9482 135.588 93.9482 135.588L92.4674 133.174L93.147 127.838L92.0597 127.505Z" fill="#AC65ED"/>
</g>
<mask id="mask85_1_15391" style="mask-type:luminance" maskUnits="userSpaceOnUse" x="1" y="0" width="188" height="190">
<path d="M189 0H1V190H189V0Z" fill="white"/>
</mask>
<g mask="url(#mask85_1_15391)">
<path d="M98.305 135.892L93.0756 136.131C93.0756 136.131 86.3296 136.362 85.9576 136.268C85.5856 136.174 85.7573 135.191 85.7573 135.191C85.7573 135.191 87.7461 135.155 89.277 135.191C90.8079 135.227 95.2002 135.169 96.5165 134.995C97.6826 134.844 98.2477 134.901 98.355 134.916C98.913 135.733 98.305 135.892 98.305 135.892Z" fill="#0F3282"/>
</g>
<mask id="mask86_1_15391" style="mask-type:luminance" maskUnits="userSpaceOnUse" x="1" y="0" width="188" height="190">
<path d="M189 0H1V190H189V0Z" fill="white"/>
</mask>
<g mask="url(#mask86_1_15391)">
<path d="M91.7309 136.919C91.7309 137.143 91.5521 137.323 91.3303 137.323C91.1085 137.323 90.9297 137.143 90.9297 136.919C90.9297 136.694 91.1085 136.514 91.3303 136.514C91.5521 136.514 91.7309 136.694 91.7309 136.919Z" fill="white"/>
</g>
<mask id="mask87_1_15391" style="mask-type:luminance" maskUnits="userSpaceOnUse" x="1" y="0" width="188" height="190">
<path d="M189 0H1V190H189V0Z" fill="white"/>
</mask>
<g mask="url(#mask87_1_15391)">
<path d="M94.2417 117.34C94.2417 117.543 94.0844 117.702 93.8841 117.702C93.6837 117.702 93.5264 117.543 93.5264 117.34C93.5264 117.138 93.6837 116.979 93.8841 116.979C94.0844 116.979 94.2417 117.138 94.2417 117.34Z" fill="white"/>
</g>
<mask id="mask88_1_15391" style="mask-type:luminance" maskUnits="userSpaceOnUse" x="1" y="0" width="188" height="190">
<path d="M189 0H1V190H189V0Z" fill="white"/>
</mask>
<g mask="url(#mask88_1_15391)">
<path d="M89.8278 130.101L89.9136 131.554L85.9576 132.046L85.6858 130.448L89.8278 130.101Z" fill="#FFEEDE"/>
</g>
<mask id="mask89_1_15391" style="mask-type:luminance" maskUnits="userSpaceOnUse" x="1" y="0" width="188" height="190">
<path d="M189 0H1V190H189V0Z" fill="white"/>
</mask>
<g mask="url(#mask89_1_15391)">
<path d="M99.1491 78.8485C99.1491 78.8485 96.6954 86.5555 96.7312 89.2667L91.137 87.3363L98.3837 78.4292L99.1491 78.8485Z" fill="#1E74C1"/>
</g>
<mask id="mask90_1_15391" style="mask-type:luminance" maskUnits="userSpaceOnUse" x="1" y="0" width="188" height="190">
<path d="M189 0H1V190H189V0Z" fill="white"/>
</mask>
<g mask="url(#mask90_1_15391)">
<path d="M98.3763 134.916C98.3763 134.916 97.8326 134.822 96.5164 134.995C95.2001 135.169 90.8148 135.227 89.2768 135.191C87.7459 135.155 85.7571 135.191 85.7571 135.191C85.657 134.742 85.4424 132.01 85.4424 132.01C85.7858 131.243 87.567 131.742 87.567 131.742C88.9906 132.053 89.8705 131.055 89.8705 131.055C90.45 130.672 91.0509 131.359 91.9022 131.973C91.9594 132.017 92.0167 132.053 92.0739 132.096C92.1168 132.125 92.1669 132.154 92.217 132.183C92.4745 132.335 92.7893 132.458 93.104 132.559C93.2328 132.602 93.3544 132.639 93.4832 132.667C93.8552 132.769 94.22 132.834 94.4847 132.884C94.6707 132.913 94.8138 132.935 94.8782 132.942C94.9139 132.949 94.9282 132.949 94.9282 132.949C98.2547 132.978 98.3763 134.916 98.3763 134.916Z" fill="#5AB1FF"/>
</g>
<mask id="mask91_1_15391" style="mask-type:luminance" maskUnits="userSpaceOnUse" x="1" y="0" width="188" height="190">
<path d="M189 0H1V190H189V0Z" fill="white"/>
</mask>
<g mask="url(#mask91_1_15391)">
<path d="M91.2231 114.723C91.2159 114.723 91.2159 114.723 91.2159 114.723C90.522 114.781 90.0999 114.159 90.0999 114.159L89.7423 111.05L89.7351 110.985C89.8138 110.942 89.8996 110.913 89.9855 110.899C90.2216 110.848 90.4791 110.877 90.7509 110.949C90.7724 110.956 90.7939 110.956 90.8153 110.964C90.9226 110.993 91.0228 111.029 91.1301 111.065L91.2231 114.723Z" fill="#4199FF"/>
</g>
<mask id="mask92_1_15391" style="mask-type:luminance" maskUnits="userSpaceOnUse" x="1" y="0" width="188" height="190">
<path d="M189 0H1V190H189V0Z" fill="white"/>
</mask>
<g mask="url(#mask92_1_15391)">
<path d="M74.5188 90.9225C74.5188 90.9225 74.0323 93.3228 76.0711 97.9282C78.11 102.534 79.8483 104.363 81.8084 114.94L85.371 131.446L90.443 130.253C90.443 130.253 90.7148 107.486 88.7261 97.2197L94.2058 96.6413C94.2058 96.6413 91.4087 104.153 90.2928 109.966L95.1215 111.325C95.1215 111.325 102.211 101.876 104.321 93.3878C104.321 93.3878 105.53 91.1828 102.347 89.5705C99.7929 88.2836 95.6223 87.1485 92.21 87.1268L87.095 86.2375L76.2858 89.7802L74.5188 90.9225Z" fill="#0F3282"/>
</g>
<mask id="mask93_1_15391" style="mask-type:luminance" maskUnits="userSpaceOnUse" x="1" y="0" width="188" height="190">
<path d="M189 0H1V190H189V0Z" fill="white"/>
</mask>
<g mask="url(#mask93_1_15391)">
<path d="M123.257 98.6943C123.029 98.7811 122.771 98.7594 122.578 98.622C122.499 98.5642 122.42 98.4847 122.356 98.3835C122.134 97.993 122.163 97.4653 122.578 97.1688C122.993 96.8724 126.047 94.9493 125.132 92.3176C124.209 89.686 121.276 90.4162 121.276 90.4162L118.815 90.9295L118.035 91.0886L117.22 91.4284L114.287 92.6502C114.187 92.6936 114.072 92.6863 113.979 92.6285C113.865 92.5562 113.729 92.4044 113.607 92.0863C113.607 92.0863 113.4 91.5513 113.378 91.1102C113.378 91.0885 113.378 91.0669 113.378 91.0452C113.378 90.915 113.45 90.7921 113.564 90.7343C114.058 90.4523 115.675 89.6064 118.028 89.0787C119.495 88.7461 121.247 88.5436 123.193 88.681C123.193 88.681 126.727 88.8256 126.899 93.0261C126.899 93.0117 127.328 97.1038 123.257 98.6943Z" fill="#412387"/>
</g>
<mask id="mask94_1_15391" style="mask-type:luminance" maskUnits="userSpaceOnUse" x="1" y="0" width="188" height="190">
<path d="M189 0H1V190H189V0Z" fill="white"/>
</mask>
<g mask="url(#mask94_1_15391)">
<path d="M118.815 90.9224L118.035 91.0814L117.22 91.4212C116.969 91.1826 116.626 90.8428 116.397 90.5826C115.996 90.1199 114.673 90.9151 114.029 91.2549C113.736 91.4068 113.521 91.2839 113.378 91.1031C113.378 91.0814 113.378 91.0597 113.378 91.038C113.378 90.9079 113.45 90.785 113.564 90.7272C114.058 90.4452 115.675 89.5993 118.028 89.0715L118.815 90.9224Z" fill="#2E1864"/>
</g>
<mask id="mask95_1_15391" style="mask-type:luminance" maskUnits="userSpaceOnUse" x="1" y="0" width="188" height="190">
<path d="M189 0H1V190H189V0Z" fill="white"/>
</mask>
<g mask="url(#mask95_1_15391)">
<path d="M116.468 88.5582C116.468 88.5582 117.184 89.2668 117.57 90.3079C117.956 91.3562 118.5 92.4117 119.115 92.1298C119.115 92.1298 119.602 91.9707 119.573 91.4935C119.573 91.4935 119.909 92.0286 120.281 91.884C120.653 91.7394 120.725 91.3923 120.725 91.2622C120.725 91.2622 121.211 91.9201 121.676 91.5008C121.676 91.5008 121.984 91.3345 121.884 90.8862C121.884 90.8862 122.549 91.2044 122.692 90.8139C122.835 90.4235 122.821 89.6644 121.783 88.5944C121.783 88.5944 122.878 88.8474 123.186 88.5655C123.493 88.2907 123.422 88.1967 123.343 88.0811C123.264 87.9726 122.642 87.2713 119.079 86.3242L116.468 88.5582Z" fill="#FFCC93"/>
</g>
<mask id="mask96_1_15391" style="mask-type:luminance" maskUnits="userSpaceOnUse" x="1" y="0" width="188" height="190">
<path d="M189 0H1V190H189V0Z" fill="white"/>
</mask>
<g mask="url(#mask96_1_15391)">
<path d="M119.294 86.3242C118.807 86.9749 116.683 88.6233 116.497 88.6667C116.468 88.6739 116.44 88.6667 116.411 88.6522C116.232 88.5655 116.003 88.1679 116.003 88.1679C116.003 88.1679 117.348 84.8277 117.67 84.8855C117.784 84.9072 118.021 85.0518 118.271 85.2398C118.714 85.5651 119.23 85.9989 119.294 86.0712C119.387 86.1869 119.294 86.3242 119.294 86.3242Z" fill="#8154CB"/>
</g>
<mask id="mask97_1_15391" style="mask-type:luminance" maskUnits="userSpaceOnUse" x="1" y="0" width="188" height="190">
<path d="M189 0H1V190H189V0Z" fill="white"/>
</mask>
<g mask="url(#mask97_1_15391)">
<path d="M118.271 85.2398L116.411 88.6522C116.232 88.5655 116.003 88.1679 116.003 88.1679C116.003 88.1679 117.348 84.8277 117.67 84.8855C117.784 84.9072 118.021 85.0518 118.271 85.2398Z" fill="#5B3BBB"/>
</g>
<mask id="mask98_1_15391" style="mask-type:luminance" maskUnits="userSpaceOnUse" x="1" y="0" width="188" height="190">
<path d="M189 0H1V190H189V0Z" fill="white"/>
</mask>
<g mask="url(#mask98_1_15391)">
<path d="M118.336 94.8915L119.172 94.3132C119.172 94.3132 119.409 94.1902 119.602 94.5662C119.795 94.9422 120.675 96.6556 120.739 97.3352C120.739 97.3352 120.911 97.5087 120.296 97.6533C119.974 97.7256 119.738 97.769 119.58 97.7907C119.451 97.8052 119.323 97.7401 119.265 97.6172L118.364 95.8025C118.364 95.8025 118.207 95.4699 118.185 95.2097C118.171 95.0867 118.228 94.9638 118.336 94.8915Z" fill="#6C4EEA"/>
</g>
<mask id="mask99_1_15391" style="mask-type:luminance" maskUnits="userSpaceOnUse" x="1" y="0" width="188" height="190">
<path d="M189 0H1V190H189V0Z" fill="white"/>
</mask>
<g mask="url(#mask99_1_15391)">
<path d="M117.971 84.748C117.914 84.9504 117.72 85.5288 117.098 86.5338C116.819 86.9892 116.504 87.5387 116.004 88.1749C115.953 88.24 115.868 88.2617 115.796 88.2255C114.58 87.6616 104.787 83.0924 102.104 81.5018C102.104 81.5018 99.7646 80.2149 98.4984 79.3184C98.4984 79.3184 89.5205 91.2259 84.613 94.8625C84.4342 94.9927 84.2124 95.0505 83.9906 95.0216C82.6457 94.8119 77.6095 93.8431 73.9826 90.4162C73.9826 90.4162 72.609 88.5943 73.0168 87.1411C73.4174 85.6879 75.4777 81.9283 75.4777 81.9283C75.4777 81.9283 92.804 57.7735 94.8142 56.7107C94.8142 56.7107 95.4652 57.0288 96.0661 57.4771C96.295 57.6506 96.5168 57.8385 96.6956 58.0265C96.76 58.0916 96.8101 58.1567 96.8602 58.229C96.989 58.4097 97.0676 58.5977 97.0676 58.7784L98.8847 60.3473L100.366 61.627C100.366 61.627 100.301 61.786 100.208 62.0246C100.108 62.2849 99.9721 62.6392 99.8504 62.9717C99.7145 63.3621 99.6001 63.7092 99.5929 63.8538C99.5929 63.8538 101.66 66.5288 102.24 71.9873C102.24 71.9873 103.52 74.872 105.287 76.3252C107.047 77.7784 112.298 81.0897 112.298 81.0897C112.298 81.0897 117.248 83.9166 117.906 84.5745C117.971 84.6251 117.985 84.6901 117.971 84.748Z" fill="#5AB1FF"/>
</g>
<mask id="mask100_1_15391" style="mask-type:luminance" maskUnits="userSpaceOnUse" x="1" y="0" width="188" height="190">
<path d="M189 0H1V190H189V0Z" fill="white"/>
</mask>
<g mask="url(#mask100_1_15391)">
<path d="M98.4979 79.3112L97.6752 80.4173C96.6379 79.4124 95.7294 78.4147 94.9496 77.4314C94.3415 76.6723 93.7979 75.9204 93.3257 75.2046C90.5429 70.9824 89.9062 67.6278 89.8848 67.4832C90.6288 69.4497 92.689 72.2982 94.6062 74.7058C94.6348 74.7419 94.6635 74.7781 94.6921 74.8142C95.0283 75.2335 95.3574 75.6384 95.6793 76.0288C95.758 76.1228 95.8367 76.2168 95.9082 76.3035C97.3604 78.0676 98.4979 79.3112 98.4979 79.3112Z" fill="#4099FF"/>
</g>
<mask id="mask101_1_15391" style="mask-type:luminance" maskUnits="userSpaceOnUse" x="1" y="0" width="188" height="190">
<path d="M189 0H1V190H189V0Z" fill="white"/>
</mask>
<g mask="url(#mask101_1_15391)">
<path d="M79.7555 88.6595C79.7197 88.6595 79.7054 88.6595 79.6911 88.6595C79.4836 88.6595 79.3191 88.486 79.3191 88.2763C79.3191 88.0667 79.4908 87.9004 79.6982 87.9004C79.7412 87.9004 84.1264 87.9438 86.2296 85.4206C86.3655 85.2615 86.6016 85.2398 86.759 85.3772C86.9164 85.5145 86.9378 85.7531 86.8019 85.9122C84.5985 88.5655 80.3492 88.6595 79.7555 88.6595Z" fill="#4099FF"/>
</g>
<mask id="mask102_1_15391" style="mask-type:luminance" maskUnits="userSpaceOnUse" x="1" y="0" width="188" height="190">
<path d="M189 0H1V190H189V0Z" fill="white"/>
</mask>
<g mask="url(#mask102_1_15391)">
<path d="M92.7893 60.839C92.7893 60.839 82.3806 76.0939 80.399 79.0581C78.4175 82.0224 76.8079 77.2868 76.8079 77.2868L82.9601 67.2663C82.9601 67.2663 90.8363 59.8268 91.008 59.8846C91.1726 59.9352 92.7893 60.839 92.7893 60.839Z" fill="#4099FF"/>
</g>
<mask id="mask103_1_15391" style="mask-type:luminance" maskUnits="userSpaceOnUse" x="1" y="0" width="188" height="190">
<path d="M189 0H1V190H189V0Z" fill="white"/>
</mask>
<g mask="url(#mask103_1_15391)">
<path d="M100.895 69.2402H100.537C100.537 69.2402 98.4196 64.1287 92.1315 60.7018C92.1386 60.709 92.1887 60.7669 92.1315 60.9042C92.1315 60.9042 83.8332 73.701 79.4265 78.639C79.4265 78.639 87.2097 78.9499 93.0901 75.2699L93.3119 75.2048L94.6782 74.8217C95.0144 75.241 95.3435 75.6459 95.6654 76.0363L95.7942 76.2459L94.9429 77.4389L94.9143 77.4822C94.9143 77.4822 88.2756 81.9937 76.9298 81.2924C76.9298 81.2924 76.1286 82.6877 74.5977 82.225C74.5977 82.225 57.8007 74.8144 54.2596 69.8764C54.2596 69.8764 53.8733 69.3631 54.3741 68.257C54.8677 67.1508 62.6224 51.0644 67.9519 45.0275C67.959 45.013 67.9733 45.0058 67.9805 44.9914C67.9805 44.9914 69.6402 42.9092 70.2983 42.967C70.2983 42.967 71.3642 42.6489 77.08 45.9023C77.08 45.9023 87.7749 52.4092 91.4805 55.5758C91.4805 55.5758 93.2618 57.029 93.3905 57.6363C93.3905 57.6363 93.412 57.9689 93.1259 58.3738C93.1259 58.3738 93.1473 58.3882 93.1831 58.4099C93.7697 58.7714 98.5555 61.7718 99.5928 63.8757L100.752 65.7193C100.766 65.7193 101.188 67.1147 100.895 69.2402Z" fill="#F8F9FC"/>
</g>
<mask id="mask104_1_15391" style="mask-type:luminance" maskUnits="userSpaceOnUse" x="1" y="0" width="188" height="190">
<path d="M189 0H1V190H189V0Z" fill="white"/>
</mask>
<g mask="url(#mask104_1_15391)">
<path d="M93.1398 58.3736C93.1398 58.3736 93.1612 58.3881 93.197 58.4098L93.1755 58.4387C93.0682 58.4025 92.8179 58.4676 92.8179 58.4676L91.8879 60.0582C91.8879 60.0582 68.86 45.5985 68.2448 45.1936C68.1303 45.1213 68.0302 45.0707 67.9443 45.0346C67.9515 45.0201 67.9658 45.0129 67.973 44.9984C67.973 44.9984 69.6326 42.9162 70.2908 42.9741C70.2908 42.9741 71.3567 42.656 77.0725 45.9094C77.0725 45.9094 87.7673 52.4162 91.4729 55.5829C91.4729 55.5829 93.2542 57.0361 93.383 57.6434C93.4045 57.6362 93.4259 57.976 93.1398 58.3736Z" fill="#6C4EEA"/>
</g>
<mask id="mask105_1_15391" style="mask-type:luminance" maskUnits="userSpaceOnUse" x="1" y="0" width="188" height="190">
<path d="M189 0H1V190H189V0Z" fill="white"/>
</mask>
<g mask="url(#mask105_1_15391)">
<path d="M95.8944 76.3037L95.6225 76.5134C95.5724 76.5495 95.5152 76.564 95.4508 76.5567L95.2648 76.5278C95.2076 76.5206 95.1504 76.4844 95.1146 76.4338L94.2705 75.2409C94.2419 75.2048 94.2275 75.1542 94.2275 75.1108V75.0891C94.2275 75.0168 94.2633 74.9445 94.3205 74.9083L94.5924 74.7131C94.621 74.7493 94.6496 74.7854 94.6782 74.8216C95.0145 75.2409 95.3435 75.6458 95.6654 76.0362C95.7441 76.1229 95.8228 76.2169 95.8944 76.3037Z" fill="#2F1763"/>
</g>
<mask id="mask106_1_15391" style="mask-type:luminance" maskUnits="userSpaceOnUse" x="1" y="0" width="188" height="190">
<path d="M189 0H1V190H189V0Z" fill="white"/>
</mask>
<g mask="url(#mask106_1_15391)">
<path d="M92.2175 132.176C91.9099 132.646 91.4449 132.978 91.4163 132.993C91.3805 133.015 91.3447 133.029 91.309 133.029C91.2517 133.029 91.1873 133 91.1516 132.942C91.0943 132.855 91.1158 132.74 91.2016 132.675C91.2088 132.675 91.638 132.371 91.9027 131.959C91.9599 132.002 92.0172 132.039 92.0744 132.082C92.1245 132.118 92.1674 132.147 92.2175 132.176Z" fill="white"/>
</g>
<mask id="mask107_1_15391" style="mask-type:luminance" maskUnits="userSpaceOnUse" x="1" y="0" width="188" height="190">
<path d="M189 0H1V190H189V0Z" fill="white"/>
</mask>
<g mask="url(#mask107_1_15391)">
<path d="M93.4833 132.66C93.1757 133.137 92.7036 133.463 92.6821 133.484C92.6535 133.506 92.6106 133.521 92.5748 133.521C92.5176 133.521 92.4532 133.492 92.4174 133.434C92.3602 133.347 92.3817 133.231 92.4675 133.174C92.4747 133.166 92.8395 132.913 93.1042 132.552C93.233 132.595 93.3617 132.631 93.4833 132.66Z" fill="white"/>
</g>
<mask id="mask108_1_15391" style="mask-type:luminance" maskUnits="userSpaceOnUse" x="1" y="0" width="188" height="190">
<path d="M189 0H1V190H189V0Z" fill="white"/>
</mask>
<g mask="url(#mask108_1_15391)">
<path d="M94.8856 132.935C94.5995 133.513 93.9986 133.933 93.97 133.954C93.9414 133.976 93.8984 133.991 93.8627 133.991C93.8054 133.991 93.7411 133.962 93.7053 133.904C93.6481 133.817 93.6695 133.701 93.7554 133.644C93.7625 133.636 94.2275 133.311 94.4922 132.877C94.671 132.906 94.8141 132.921 94.8856 132.935Z" fill="white"/>
</g>
<mask id="mask109_1_15391" style="mask-type:luminance" maskUnits="userSpaceOnUse" x="1" y="0" width="188" height="190">
<path d="M189 0H1V190H189V0Z" fill="white"/>
</mask>
<g mask="url(#mask109_1_15391)">
<path d="M98.6915 52.4597L100.473 52.4236L103.971 61.8947C103.971 61.8947 102.655 63.2756 100.151 62.1911C97.647 61.1066 97.6184 58.0701 97.6184 58.0701V53.8985L98.6915 52.4597Z" fill="#412387"/>
</g>
<mask id="mask110_1_15391" style="mask-type:luminance" maskUnits="userSpaceOnUse" x="1" y="0" width="188" height="190">
<path d="M189 0H1V190H189V0Z" fill="white"/>
</mask>
<g mask="url(#mask110_1_15391)">
<path d="M97.8902 58.9665C97.9403 59.5666 98.1048 60.1378 98.4053 60.6511C98.4053 60.6511 96.903 59.328 96.6598 57.9182L96.1018 57.6651L95.2505 57.282L95.973 56.3638L96.2878 55.9589L96.531 55.648V55.4167C96.531 55.4167 96.6955 55.4528 96.9173 54.9757C97.1391 54.4985 97.2535 54.2671 97.1677 54.1731C97.0818 54.0792 96.6884 53.5225 96.8386 52.9007C96.9888 52.2789 97.3251 51.7295 97.7829 51.7656C98.2407 51.7945 98.763 52.0548 99.1564 52.4452C99.3496 52.6404 99.5141 52.785 99.6858 52.8573C99.2995 53.5008 97.6613 56.4433 97.8902 58.9665Z" fill="#FFCC93"/>
</g>
<mask id="mask111_1_15391" style="mask-type:luminance" maskUnits="userSpaceOnUse" x="1" y="0" width="188" height="190">
<path d="M189 0H1V190H189V0Z" fill="white"/>
</mask>
<g mask="url(#mask111_1_15391)">
<path d="M106.639 57.3833C106.639 57.3833 107.197 60.0294 105.022 61.5187C105.022 61.5187 103.864 62.4152 101.453 62.1333C101.453 62.1333 98.8345 61.6416 98.4053 59.4872C98.0047 57.4339 99.0992 54.2094 100.294 52.8285C100.802 52.6333 101.689 52.1561 101.875 52.1489C102.061 52.1416 102.941 52.0404 103.985 52.4308C104.808 52.7417 106.317 53.349 106.317 53.349C106.317 53.349 107.92 54.1805 108.263 54.2021C108.27 54.1949 108.12 55.5324 106.639 57.3833Z" fill="#FFCC93"/>
</g>
<mask id="mask112_1_15391" style="mask-type:luminance" maskUnits="userSpaceOnUse" x="1" y="0" width="188" height="190">
<path d="M189 0H1V190H189V0Z" fill="white"/>
</mask>
<g mask="url(#mask112_1_15391)">
<path d="M100.244 52.8429C100.022 52.9152 99.8503 52.9152 99.6929 52.8502C99.7 52.8285 99.7143 52.814 99.7215 52.7996C99.9433 52.8574 100.151 52.8502 100.244 52.8429Z" fill="#0F3282"/>
</g>
<mask id="mask113_1_15391" style="mask-type:luminance" maskUnits="userSpaceOnUse" x="1" y="0" width="188" height="190">
<path d="M189 0H1V190H189V0Z" fill="white"/>
</mask>
<g mask="url(#mask113_1_15391)">
<path d="M108.828 54.231C108.635 54.2816 108.435 54.325 108.242 54.3467C108.263 54.2454 108.27 54.1948 108.27 54.1948C107.927 54.1731 106.325 53.3417 106.325 53.3417C106.325 53.3417 104.808 52.7344 103.992 52.4235C102.948 52.0259 102.068 52.1271 101.882 52.1416C101.696 52.1488 100.809 52.626 100.301 52.8212C100.28 52.8284 100.265 52.8356 100.244 52.8429C100.158 52.8501 99.9435 52.8573 99.7217 52.8067C99.6359 52.785 99.5429 52.7561 99.457 52.7127C99.457 52.7127 99.457 52.7127 99.4499 52.7127C99.3569 52.6404 99.2639 52.5537 99.1566 52.4452C98.7703 52.0548 98.248 51.7945 97.783 51.7656C97.3252 51.7367 96.9818 52.2789 96.8387 52.9007C96.6885 53.5225 97.082 54.0792 97.1678 54.1731C97.2537 54.2671 97.1392 54.4985 96.9174 54.9757C96.6957 55.4528 96.5311 55.4167 96.5311 55.4167V55.4311C96.2664 55.3588 95.3222 55.0407 94.9645 53.7972C94.5496 52.3585 95.7871 50.3341 95.7871 50.3341C95.7871 50.3341 97.3467 45.7287 101.231 45.4757C105.123 45.2226 108.034 46.871 109.358 48.946C110.688 51.0137 109.708 53.9924 108.828 54.231Z" fill="#0F3282"/>
</g>
<mask id="mask114_1_15391" style="mask-type:luminance" maskUnits="userSpaceOnUse" x="1" y="0" width="188" height="190">
<path d="M189 0H1V190H189V0Z" fill="white"/>
</mask>
<g mask="url(#mask114_1_15391)">
<g opacity="0.49">
<mask id="mask115_1_15391" style="mask-type:luminance" maskUnits="userSpaceOnUse" x="100" y="52" width="1" height="1">
<path d="M100.302 52.821H100.244V52.8355H100.302V52.821Z" fill="white"/>
</mask>
<g mask="url(#mask115_1_15391)">
<path d="M100.295 52.821C100.287 52.8283 100.287 52.8283 100.28 52.8355C100.28 52.8355 100.266 52.8355 100.237 52.8355C100.259 52.8355 100.28 52.8283 100.295 52.821Z" fill="#0F3282"/>
</g>
</g>
</g>
<mask id="mask116_1_15391" style="mask-type:luminance" maskUnits="userSpaceOnUse" x="1" y="0" width="188" height="190">
<path d="M189 0H1V190H189V0Z" fill="white"/>
</mask>
<g mask="url(#mask116_1_15391)">
<g opacity="0.26">
<mask id="mask117_1_15391" style="mask-type:luminance" maskUnits="userSpaceOnUse" x="95" y="55" width="6" height="8">
<path d="M100.158 55.959H95.9729V62.9791H100.158V55.959Z" fill="white"/>
</mask>
<g mask="url(#mask117_1_15391)">
<path d="M100.158 62.191C100.065 62.4296 99.9647 62.7116 99.8645 62.9791C97.2677 61.7211 96.395 59.328 96.1017 57.6651C96.0945 57.6001 96.0802 57.535 96.0731 57.4699C96.0087 57.0217 95.9801 56.6385 95.9729 56.3565L96.2877 55.9517C96.352 56.3565 96.3735 56.9349 96.6597 57.9109C96.8814 59.2123 98.1977 60.4558 98.3837 60.6221C98.7557 61.2439 99.3208 61.8295 100.158 62.191Z" fill="black"/>
</g>
</g>
</g>
<mask id="mask118_1_15391" style="mask-type:luminance" maskUnits="userSpaceOnUse" x="1" y="0" width="188" height="190">
<path d="M189 0H1V190H189V0Z" fill="white"/>
</mask>
<g mask="url(#mask118_1_15391)">
<path d="M104.028 58.3591C103.863 58.3591 103.735 58.3374 103.706 58.3302C103.627 58.3157 103.57 58.2362 103.584 58.1567C103.599 58.0771 103.677 58.0193 103.756 58.0338C103.892 58.0555 104.286 58.0916 104.479 57.947C104.543 57.9036 104.579 57.8386 104.586 57.759C104.65 57.2746 104.164 57.1517 104.107 57.1373C104.028 57.1156 103.978 57.036 103.992 56.9565C104.007 56.877 104.092 56.8264 104.171 56.8408C104.45 56.9059 104.965 57.1806 104.886 57.7952C104.865 57.9615 104.786 58.0916 104.658 58.1856C104.479 58.323 104.228 58.3591 104.028 58.3591Z" fill="#FFB35F"/>
</g>
<mask id="mask119_1_15391" style="mask-type:luminance" maskUnits="userSpaceOnUse" x="1" y="0" width="188" height="190">
<path d="M189 0H1V190H189V0Z" fill="white"/>
</mask>
<g mask="url(#mask119_1_15391)">
<path d="M104.243 60.0582C102.655 60.0582 101.532 58.7062 101.517 58.6918C101.467 58.6267 101.474 58.5327 101.539 58.4749C101.603 58.4243 101.696 58.4315 101.753 58.4966C101.768 58.5182 103.263 60.304 105.18 59.5738C105.259 59.5449 105.344 59.581 105.373 59.6606C105.402 59.7401 105.366 59.8268 105.287 59.8558C104.922 60.0004 104.572 60.0582 104.243 60.0582Z" fill="#FFB35F"/>
</g>
<mask id="mask120_1_15391" style="mask-type:luminance" maskUnits="userSpaceOnUse" x="1" y="0" width="188" height="190">
<path d="M189 0H1V190H189V0Z" fill="white"/>
</mask>
<g mask="url(#mask120_1_15391)">
<path d="M103.263 60.7523C103.255 60.7523 103.255 60.7523 103.263 60.7523C102.476 60.7233 102.082 60.21 102.068 60.1883C102.018 60.1233 102.032 60.0293 102.097 59.9787C102.161 59.9281 102.254 59.9425 102.304 60.0076C102.318 60.0221 102.633 60.4269 103.27 60.4486C103.356 60.4486 103.42 60.5209 103.413 60.6077C103.406 60.6872 103.341 60.7523 103.263 60.7523Z" fill="#FFB35F"/>
</g>
<mask id="mask121_1_15391" style="mask-type:luminance" maskUnits="userSpaceOnUse" x="1" y="0" width="188" height="190">
<path d="M189 0H1V190H189V0Z" fill="white"/>
</mask>
<g mask="url(#mask121_1_15391)">
<path d="M106.854 55.9733C106.854 56.4505 106.467 56.8409 105.995 56.8409C105.523 56.8409 105.137 56.4505 105.137 55.9733C105.137 55.4961 105.523 55.1057 105.995 55.1057C106.467 55.1057 106.854 55.4961 106.854 55.9733Z" fill="white"/>
</g>
<mask id="mask122_1_15391" style="mask-type:luminance" maskUnits="userSpaceOnUse" x="1" y="0" width="188" height="190">
<path d="M189 0H1V190H189V0Z" fill="white"/>
</mask>
<g mask="url(#mask122_1_15391)">
<path d="M106.754 56.0528C106.754 56.2552 106.589 56.4215 106.389 56.4215C106.188 56.4215 106.024 56.2552 106.024 56.0528C106.024 55.8504 106.188 55.6841 106.389 55.6841C106.589 55.6841 106.754 55.8504 106.754 56.0528Z" fill="#39276B"/>
</g>
<mask id="mask123_1_15391" style="mask-type:luminance" maskUnits="userSpaceOnUse" x="1" y="0" width="188" height="190">
<path d="M189 0H1V190H189V0Z" fill="white"/>
</mask>
<g mask="url(#mask123_1_15391)">
<path d="M103.62 54.9323C103.556 55.4095 103.12 55.742 102.647 55.677C102.175 55.6119 101.846 55.1709 101.911 54.6937C101.975 54.2166 102.411 53.884 102.884 53.949C103.356 54.0141 103.685 54.4551 103.62 54.9323Z" fill="white"/>
</g>
<mask id="mask124_1_15391" style="mask-type:luminance" maskUnits="userSpaceOnUse" x="1" y="0" width="188" height="190">
<path d="M189 0H1V190H189V0Z" fill="white"/>
</mask>
<g mask="url(#mask124_1_15391)">
<path d="M103.542 54.9394C103.513 55.1418 103.334 55.2792 103.134 55.2503C102.934 55.2213 102.798 55.0406 102.826 54.8382C102.855 54.6357 103.034 54.4984 103.234 54.5273C103.427 54.549 103.563 54.7369 103.542 54.9394Z" fill="#39276B"/>
</g>
<mask id="mask125_1_15391" style="mask-type:luminance" maskUnits="userSpaceOnUse" x="1" y="0" width="188" height="190">
<path d="M189 0H1V190H189V0Z" fill="white"/>
</mask>
<g mask="url(#mask125_1_15391)">
<path d="M104.722 53.6526C104.708 53.6526 104.694 53.6526 104.679 53.6454L102.948 53.3201C102.826 53.2984 102.748 53.1755 102.769 53.0525C102.791 52.9296 102.912 52.8429 103.034 52.8718L104.765 53.1971C104.887 53.2188 104.965 53.3417 104.944 53.4646C104.922 53.5803 104.829 53.6526 104.722 53.6526Z" fill="#39276B"/>
</g>
<mask id="mask126_1_15391" style="mask-type:luminance" maskUnits="userSpaceOnUse" x="1" y="0" width="188" height="190">
<path d="M189 0H1V190H189V0Z" fill="white"/>
</mask>
<g mask="url(#mask126_1_15391)">
<path d="M107.183 55.1852C107.169 55.178 107.162 55.1707 107.147 55.1635L106.067 54.2815C105.974 54.2019 105.96 54.0573 106.038 53.9634C106.117 53.8694 106.26 53.8549 106.353 53.9344L107.433 54.8165C107.526 54.896 107.541 55.0406 107.462 55.1346C107.398 55.2213 107.276 55.243 107.183 55.1852Z" fill="#39276B"/>
</g>
<mask id="mask127_1_15391" style="mask-type:luminance" maskUnits="userSpaceOnUse" x="1" y="0" width="188" height="190">
<path d="M189 0H1V190H189V0Z" fill="white"/>
</mask>
<g mask="url(#mask127_1_15391)">
<path d="M97.9616 53.8262L98.6841 53.0816C98.6841 53.0816 98.026 51.9392 97.4179 52.6767C97.425 52.6695 96.9887 53.1828 97.9616 53.8262Z" fill="#FFB35F"/>
</g>
<mask id="mask128_1_15391" style="mask-type:luminance" maskUnits="userSpaceOnUse" x="1" y="0" width="188" height="190">
<path d="M189 0H1V190H189V0Z" fill="white"/>
</mask>
<g mask="url(#mask128_1_15391)">
<path d="M66.7141 57.6291L66.0273 57.2025L67.6799 54.5203L69.0104 55.3589C69.2966 55.5397 69.4683 55.7638 69.5327 56.0385C69.5899 56.3133 69.547 56.5735 69.3896 56.8338C69.2322 57.0869 69.0248 57.2459 68.7529 57.311C68.4811 57.376 68.2092 57.3182 67.9159 57.1447L67.2721 56.7398L66.7141 57.6291ZM68.1878 56.4723C68.2808 56.5302 68.3738 56.5518 68.4668 56.5374C68.5598 56.5229 68.6313 56.4723 68.6885 56.3856C68.7458 56.2916 68.7601 56.2048 68.7315 56.1181C68.7028 56.0313 68.6456 55.959 68.5526 55.9012L68.0018 55.5541L67.6512 56.1325L68.1878 56.4723Z" fill="#0D39B9"/>
</g>
<mask id="mask129_1_15391" style="mask-type:luminance" maskUnits="userSpaceOnUse" x="-16" y="-76" width="260" height="263">
<path d="M84.2457 -75.1263L-15.0183 86.2407L144.65 186.561L243.914 25.1937L84.2457 -75.1263Z" fill="white"/>
</mask>
<g mask="url(#mask129_1_15391)">
<path d="M70.2388 56.1287L68.5881 58.812L69.2747 59.2434L70.9253 56.5601L70.2388 56.1287Z" fill="#0D39B9"/>
</g>
<mask id="mask130_1_15391" style="mask-type:luminance" maskUnits="userSpaceOnUse" x="1" y="0" width="188" height="190">
<path d="M189 0H1V190H189V0Z" fill="white"/>
</mask>
<g mask="url(#mask130_1_15391)">
<path d="M71.0209 60.4052C70.6059 60.145 70.3484 59.8052 70.2339 59.3714C70.1195 58.9376 70.191 58.5255 70.4414 58.1134C70.6918 57.7013 71.0352 57.4555 71.4644 57.3687C71.8936 57.282 72.3157 57.3687 72.7306 57.629C73.2671 57.9616 73.5032 58.446 73.446 59.075L72.6805 58.9882C72.702 58.8508 72.6877 58.7135 72.6233 58.5689C72.5589 58.4243 72.4731 58.3158 72.3515 58.2363C72.1368 58.0989 71.9151 58.0628 71.6862 58.1278C71.4572 58.1857 71.2712 58.3303 71.1353 58.5472C70.9994 58.7641 70.9565 58.9954 71.0065 59.234C71.0566 59.4726 71.1854 59.6533 71.4 59.7907C71.5216 59.8702 71.6647 59.9064 71.8149 59.8919C71.9652 59.8847 72.1011 59.8341 72.2084 59.7546L72.6233 60.4052C72.3944 60.5426 72.144 60.6221 71.8722 60.6438C71.5932 60.6727 71.3142 60.586 71.0209 60.4052Z" fill="#0D39B9"/>
</g>
<mask id="mask131_1_15391" style="mask-type:luminance" maskUnits="userSpaceOnUse" x="1" y="0" width="188" height="190">
<path d="M189 0H1V190H189V0Z" fill="white"/>
</mask>
<g mask="url(#mask131_1_15391)">
<path d="M74.898 62.7766L74.061 62.2489L73.9894 60.8029L73.6675 60.9186L73.1882 61.6994L72.5015 61.2728L74.154 58.5906L74.8336 59.0171L74.1611 60.1161L75.6491 59.5305L76.4932 60.0582L74.6905 60.6655L74.898 62.7766Z" fill="#0D39B9"/>
</g>
<mask id="mask132_1_15391" style="mask-type:luminance" maskUnits="userSpaceOnUse" x="1" y="0" width="188" height="190">
<path d="M189 0H1V190H189V0Z" fill="white"/>
</mask>
<g mask="url(#mask132_1_15391)">
<path d="M77.3518 64.3818C76.9369 64.1215 76.6865 63.8251 76.6007 63.4853C76.5148 63.1455 76.5792 62.8057 76.7867 62.4586L77.7667 60.8608L78.4606 61.3019L77.4949 62.878C77.3947 63.0443 77.359 63.2033 77.3947 63.3624C77.4305 63.5214 77.5378 63.6588 77.7167 63.7745C77.8955 63.8829 78.06 63.9191 78.2246 63.8829C78.382 63.8468 78.5107 63.7383 78.6109 63.5793L79.5766 62.0032L80.2705 62.4369L79.2905 64.0275C79.0759 64.3745 78.804 64.5842 78.4678 64.6565C78.1387 64.736 77.7596 64.642 77.3518 64.3818Z" fill="#0D39B9"/>
</g>
<mask id="mask133_1_15391" style="mask-type:luminance" maskUnits="userSpaceOnUse" x="1" y="0" width="188" height="190">
<path d="M189 0H1V190H189V0Z" fill="white"/>
</mask>
<g mask="url(#mask133_1_15391)">
<path d="M79.791 65.8493L79.1042 65.4227L80.7568 62.7405L82.0873 63.5791C82.3735 63.7599 82.5452 63.984 82.6096 64.2587C82.6668 64.5335 82.6239 64.7938 82.4665 65.054C82.3091 65.3071 82.1017 65.4661 81.8298 65.5312C81.558 65.5963 81.2861 65.5384 80.9928 65.3649L80.349 64.96L79.791 65.8493ZM81.2718 64.6925C81.3648 64.7504 81.4578 64.7721 81.5508 64.7576C81.6438 64.7431 81.7154 64.6925 81.7726 64.6058C81.8298 64.5118 81.8441 64.425 81.8155 64.3383C81.7869 64.2515 81.7297 64.1792 81.6367 64.1214L81.0858 63.7743L80.7353 64.3527L81.2718 64.6925Z" fill="#0D39B9"/>
</g>
<mask id="mask134_1_15391" style="mask-type:luminance" maskUnits="userSpaceOnUse" x="1" y="0" width="188" height="190">
<path d="M189 0H1V190H189V0Z" fill="white"/>
</mask>
<g mask="url(#mask134_1_15391)">
<path d="M72.2155 67.1652L71.45 66.688L71.3928 66.4205C71.0923 66.4277 70.8205 66.3554 70.5701 66.1964C70.3054 66.0301 70.1337 65.8276 70.0479 65.5818C69.962 65.336 69.9978 65.0902 70.1552 64.8372C70.2697 64.6492 70.4127 64.5335 70.5844 64.4757C70.7561 64.4178 70.9564 64.4034 71.1853 64.4323C71.2139 64.1503 71.2712 63.9334 71.3713 63.7671C71.4858 63.5792 71.6575 63.4707 71.8864 63.4418C72.1153 63.4129 72.3442 63.4707 72.5803 63.6153C72.7878 63.7455 72.9237 63.9045 73.0095 64.1069C73.0882 64.3094 73.0739 64.4901 72.9666 64.6709C72.8521 64.8588 72.7091 64.9673 72.5302 65.0034C72.3514 65.0396 72.1368 65.0396 71.8792 64.9962C71.8864 65.0974 71.9007 65.2203 71.9222 65.3649C71.9293 65.4517 71.9436 65.5674 71.9651 65.712C72.1511 65.618 72.3228 65.5095 72.473 65.3722L72.8164 65.9072C72.5588 66.0807 72.3013 66.2108 72.0581 66.2976C72.0867 66.5434 72.1439 66.8326 72.2155 67.1652ZM70.9493 65.7698C71.0423 65.8276 71.1567 65.8566 71.2855 65.8638C71.2426 65.6397 71.2211 65.4878 71.2211 65.4083C71.1996 65.2203 71.1853 65.0685 71.1782 64.9456C71.0208 64.9673 70.9063 65.0468 70.8276 65.1697C70.7633 65.2782 70.7418 65.3939 70.7633 65.5023C70.7919 65.6252 70.8563 65.712 70.9493 65.7698ZM71.9651 64.1576C71.915 64.2443 71.8792 64.3672 71.8649 64.5263C72.008 64.5407 72.1225 64.5407 72.2083 64.519C72.2942 64.4974 72.3657 64.4467 72.4158 64.3745C72.4515 64.3166 72.4587 64.2588 72.4444 64.2082C72.4301 64.1503 72.3943 64.1069 72.3371 64.0708C72.2727 64.0274 72.2012 64.013 72.1296 64.0346C72.0581 64.0491 72.008 64.0925 71.9651 64.1576Z" fill="#0D39B9"/>
</g>
<mask id="mask135_1_15391" style="mask-type:luminance" maskUnits="userSpaceOnUse" x="1" y="0" width="188" height="190">
<path d="M189 0H1V190H189V0Z" fill="white"/>
</mask>
<g mask="url(#mask135_1_15391)">
<path d="M60.655 65.9722L59.5391 65.2709L61.1916 62.5886L62.3076 63.2899C62.7296 63.5574 63.0015 63.8972 63.1231 64.3021C63.2447 64.7142 63.1732 65.1191 62.9228 65.5312C62.6724 65.9433 62.3362 66.1818 61.9213 66.2614C61.4992 66.3337 61.0771 66.2397 60.655 65.9722ZM61.0199 65.3721C61.2417 65.5167 61.4706 65.5529 61.6923 65.495C61.9141 65.4372 62.0858 65.2998 62.2146 65.0974C62.3505 64.8805 62.3934 64.6636 62.3505 64.4467C62.3076 64.2298 62.1716 64.0491 61.9356 63.9045L61.4992 63.6297L60.5907 65.0974L61.0199 65.3721Z" fill="#0D39B9"/>
</g>
<mask id="mask136_1_15391" style="mask-type:luminance" maskUnits="userSpaceOnUse" x="1" y="0" width="188" height="190">
<path d="M189 0H1V190H189V0Z" fill="white"/>
</mask>
<g mask="url(#mask136_1_15391)">
<path d="M64.375 68.3148L62.4292 67.0929L64.0817 64.4106L66.0275 65.6325L65.6555 66.2326L64.3965 65.4445L64.1389 65.8566L65.3694 66.6374L64.9974 67.2375L63.7669 66.4639L63.488 66.9194L64.747 67.7074L64.375 68.3148Z" fill="#0D39B9"/>
</g>
<mask id="mask137_1_15391" style="mask-type:luminance" maskUnits="userSpaceOnUse" x="1" y="0" width="188" height="190">
<path d="M189 0H1V190H189V0Z" fill="white"/>
</mask>
<g mask="url(#mask137_1_15391)">
<path d="M66.5283 69.6666L64.7756 68.5604L66.421 65.8782L67.1077 66.312L65.8272 68.3869L66.8931 69.0593L66.5283 69.6666Z" fill="#0D39B9"/>
</g>
<mask id="mask138_1_15391" style="mask-type:luminance" maskUnits="userSpaceOnUse" x="-26" y="-72" width="260" height="263">
<path d="M74.1319 -71.3626L-25.1321 90.0044L134.536 190.324L233.8 28.9574L74.1319 -71.3626Z" fill="white"/>
</mask>
<g mask="url(#mask138_1_15391)">
<path d="M68.5344 67.2022L66.8838 69.8855L67.5703 70.3169L69.221 67.6336L68.5344 67.2022Z" fill="#0D39B9"/>
</g>
<mask id="mask139_1_15391" style="mask-type:luminance" maskUnits="userSpaceOnUse" x="1" y="0" width="188" height="190">
<path d="M189 0H1V190H189V0Z" fill="white"/>
</mask>
<g mask="url(#mask139_1_15391)">
<path d="M69.6187 71.6043L68.7603 71.0693L69.4112 67.7581L70.1838 68.2425L69.6473 70.5849L71.493 69.0667L72.2727 69.5511L69.6187 71.6043Z" fill="#0D39B9"/>
</g>
<mask id="mask140_1_15391" style="mask-type:luminance" maskUnits="userSpaceOnUse" x="1" y="0" width="188" height="190">
<path d="M189 0H1V190H189V0Z" fill="white"/>
</mask>
<g mask="url(#mask140_1_15391)">
<path d="M72.759 73.5779L70.8132 72.3561L72.4657 69.6738L74.4116 70.8957L74.0396 71.503L72.7805 70.7077L72.523 71.127L73.7534 71.9006L73.3814 72.5079L72.151 71.7271L71.872 72.1826L73.131 72.9779L72.759 73.5779Z" fill="#0D39B9"/>
</g>
<mask id="mask141_1_15391" style="mask-type:luminance" maskUnits="userSpaceOnUse" x="1" y="0" width="188" height="190">
<path d="M189 0H1V190H189V0Z" fill="white"/>
</mask>
<g mask="url(#mask141_1_15391)">
<path d="M75.4203 75.2554L74.6334 74.7638L74.7407 73.5853L74.3902 73.3684L73.8393 74.2722L73.1526 73.8456L74.8051 71.1633L76.1357 72.002C76.4218 72.1827 76.5935 72.4069 76.6579 72.6816C76.7223 72.9563 76.6722 73.2166 76.5077 73.4769C76.3789 73.6938 76.2144 73.8311 76.0284 73.9034C75.8424 73.9757 75.6564 73.9902 75.4847 73.9468L75.4203 75.2554ZM75.313 73.0937C75.406 73.1515 75.499 73.1732 75.592 73.166C75.685 73.1515 75.7637 73.1009 75.8209 73.0142C75.8782 72.9274 75.8853 72.8334 75.8567 72.7467C75.8209 72.6527 75.7637 72.5804 75.6707 72.5225L75.127 72.1827L74.7765 72.7611L75.313 73.0937Z" fill="#0D39B9"/>
</g>
<mask id="mask142_1_15391" style="mask-type:luminance" maskUnits="userSpaceOnUse" x="1" y="0" width="188" height="190">
<path d="M189 0H1V190H189V0Z" fill="white"/>
</mask>
<g mask="url(#mask142_1_15391)">
<path d="M77.1945 76.3688L76.5149 75.9423L77.1802 74.8578L77.1587 72.6238L77.9313 73.1082L77.8956 74.4602L79.0759 73.8312L79.8485 74.3156L77.8669 75.2844L77.1945 76.3688Z" fill="#0D39B9"/>
</g>
<mask id="mask143_1_15391" style="mask-type:luminance" maskUnits="userSpaceOnUse" x="1" y="0" width="188" height="190">
<path d="M189 0H1V190H189V0Z" fill="white"/>
</mask>
<g mask="url(#mask143_1_15391)">
<path d="M95 189C146.915 189 189 146.915 189 95C189 43.0852 146.915 1 95 1C43.0852 1 1 43.0852 1 95C1 146.915 43.0852 189 95 189Z" stroke="#0F3282" stroke-width="0.986" stroke-miterlimit="10"/>
</g>
<mask id="mask144_1_15391" style="mask-type:luminance" maskUnits="userSpaceOnUse" x="1" y="0" width="188" height="191">
<path d="M189 0H1V191H189V0Z" fill="white"/>
</mask>
<g mask="url(#mask144_1_15391)">
<path d="M94.9999 188.699C146.204 188.699 187.712 146.748 187.712 94.9999C187.712 43.2516 146.204 1.30127 94.9999 1.30127C43.7963 1.30127 2.2876 43.2516 2.2876 94.9999C2.2876 146.748 43.7963 188.699 94.9999 188.699Z" stroke="white" stroke-width="0.973" stroke-miterlimit="10"/>
</g>
</g>
</g>
<defs>
<radialGradient id="paint0_radial_1_15391" cx="0" cy="0" r="1" gradientUnits="userSpaceOnUse" gradientTransform="translate(94.9999 94.9963) scale(66.3542)">
<stop stop-color="#5AB1FF"/>
<stop offset="0.2123" stop-color="#58AEFC"/>
<stop offset="0.3867" stop-color="#52A4F2"/>
<stop offset="0.5477" stop-color="#4892E1"/>
<stop offset="0.7005" stop-color="#3A7AC9"/>
<stop offset="0.8478" stop-color="#275BAA"/>
<stop offset="0.9888" stop-color="#113585"/>
<stop offset="1" stop-color="#0F3282"/>
</radialGradient>
<clipPath id="clip0_1_15391">
<rect width="190" height="190" fill="white"/>
</clipPath>
</defs>
</svg>
