<svg width="88" height="88" viewBox="0 0 88 88" fill="none" xmlns="http://www.w3.org/2000/svg">
<path d="M38.375 79.3625C37.1332 79.5422 35.8798 79.63 34.625 79.625C29.145 79.6128 23.7879 77.9999 19.212 74.9846C14.6361 71.9692 11.0408 67.6827 8.86795 62.6519C6.69506 57.621 6.03923 52.0649 6.98105 46.6664C7.92287 41.2679 10.4213 36.2621 14.1693 32.2642C17.9174 28.2663 22.7517 25.4505 28.0783 24.1627C33.4049 22.8749 38.9917 23.1713 44.1521 25.0154C49.3126 26.8595 53.8219 30.1711 57.1259 34.5431C60.4299 38.9151 62.3847 44.1571 62.75 49.625H68.375V19.625H0.875V87.125H6.5V81.5C6.5 81.0027 6.69754 80.5258 7.04918 80.1742C7.40081 79.8225 7.87772 79.625 8.375 79.625H15.875C16.3723 79.625 16.8492 79.8225 17.2008 80.1742C17.5525 80.5258 17.75 81.0027 17.75 81.5V87.125H41.2625C39.326 85.0121 38.2901 82.2273 38.375 79.3625Z" fill="white"/>
<path d="M10.25 83.375H14V87.125H10.25V83.375Z" fill="white"/>
<path d="M0.875 0.875H19.625V15.875H0.875V0.875Z" fill="white"/>
<path d="M68.375 0.875H23.375V15.875H68.375V0.875ZM34.625 12.125C33.8833 12.125 33.1583 11.9051 32.5416 11.493C31.9249 11.081 31.4443 10.4953 31.1605 9.81006C30.8766 9.12484 30.8024 8.37084 30.9471 7.64341C31.0917 6.91598 31.4489 6.2478 31.9734 5.72335C32.4978 5.1989 33.166 4.84175 33.8934 4.69706C34.6208 4.55236 35.3748 4.62662 36.0601 4.91045C36.7453 5.19428 37.331 5.67493 37.743 6.29161C38.1551 6.9083 38.375 7.63332 38.375 8.375C38.375 9.36956 37.9799 10.3234 37.2766 11.0267C36.5734 11.7299 35.6196 12.125 34.625 12.125ZM55.25 10.25C55.25 10.7473 55.0525 11.2242 54.7008 11.5758C54.3492 11.9275 53.8723 12.125 53.375 12.125C52.8777 12.125 52.4008 11.9275 52.0492 11.5758C51.6975 11.2242 51.5 10.7473 51.5 10.25V6.5C51.5 6.00272 51.6975 5.52581 52.0492 5.17417C52.4008 4.82254 52.8777 4.625 53.375 4.625C53.8723 4.625 54.3492 4.82254 54.7008 5.17417C55.0525 5.52581 55.25 6.00272 55.25 6.5V10.25ZM62.75 10.25C62.75 10.7473 62.5525 11.2242 62.2008 11.5758C61.8492 11.9275 61.3723 12.125 60.875 12.125C60.3777 12.125 59.9008 11.9275 59.5492 11.5758C59.1975 11.2242 59 10.7473 59 10.25V6.5C59 6.00272 59.1975 5.52581 59.5492 5.17417C59.9008 4.82254 60.3777 4.625 60.875 4.625C61.3723 4.625 61.8492 4.82254 62.2008 5.17417C62.5525 5.52581 62.75 6.00272 62.75 6.5V10.25Z" fill="white"/>
<path d="M45.875 49.6251C52.9062 49.6251 51.2188 49.9813 51.2188 48.3688C50.9012 46.734 50.3453 45.1546 49.5687 43.6813C48.7233 43.9702 47.8212 44.0536 46.9371 43.9244C46.053 43.7953 45.2124 43.4575 44.4849 42.9389C43.7573 42.4202 43.1638 41.7358 42.7534 40.9421C42.3431 40.1485 42.1276 39.2685 42.125 38.3751C42.125 36.3126 43.0438 36.7438 41.5438 36.1251C31.7938 30.8751 17.75 38.5813 17.75 51.5001C17.7499 54.0969 18.3491 56.6586 19.5009 58.986C20.6528 61.3133 22.3262 63.3435 24.3909 64.9183C26.4556 66.4932 28.856 67.5703 31.4051 68.0658C33.9541 68.5613 36.5832 68.4618 39.0875 67.7751C38.5684 66.6884 38.3243 65.4908 38.3766 64.2877C38.4289 63.0845 38.776 61.9126 39.3875 60.8751C38.7296 59.7355 38.383 58.4429 38.3827 57.127C38.3824 55.8111 38.7282 54.5183 39.3856 53.3784C40.0429 52.2385 40.9886 51.2916 42.1277 50.6328C43.2668 49.974 44.5591 49.6264 45.875 49.6251Z" fill="white"/>
<path d="M41.7312 70.8687C38.6136 72.0129 35.2658 72.3873 31.9725 71.9603C28.6791 71.5332 25.5376 70.3171 22.815 68.4155C20.0924 66.5139 17.8692 63.983 16.3345 61.038C14.7998 58.0929 13.9989 54.8208 14 51.4999C14 36.4999 29.7312 26.7687 42.125 32.3187C45.875 33.6312 46.625 35.7874 45.875 37.8499C45.7542 38.1848 45.7312 38.5471 45.8088 38.8946C45.8863 39.2421 46.0612 39.5603 46.3129 39.812C46.5646 40.0637 46.8828 40.2386 47.2303 40.3161C47.5778 40.3937 47.9401 40.3707 48.275 40.2499C52.8312 38.5624 54.8 45.3687 55.25 49.6249H59C58.6235 44.7055 56.763 40.0162 53.6645 36.1767C50.5659 32.3373 46.3752 29.5285 41.6462 28.1217C36.9173 26.7149 31.8727 26.7763 27.1794 28.2978C22.4861 29.8193 18.3649 32.7292 15.3607 36.6429C12.3565 40.5565 10.6107 45.2898 10.3541 50.2169C10.0974 55.144 11.342 60.033 13.9233 64.2376C16.5046 68.4423 20.3011 71.7646 24.811 73.7655C29.3208 75.7663 34.3317 76.3515 39.1812 75.4437C39.8428 73.7993 40.8836 72.3345 42.2187 71.1687L41.7312 70.8687Z" fill="white"/>
<path d="M44.9375 53.3751C44.1916 53.3751 43.4762 53.6714 42.9488 54.1988C42.4213 54.7263 42.125 55.4416 42.125 56.1876C42.125 56.9335 42.4213 57.6488 42.9488 58.1763C43.4762 58.7037 44.1916 59.0001 44.9375 59.0001H59C59.4973 59.0001 59.9742 59.1976 60.3258 59.5492C60.6775 59.9009 60.875 60.3778 60.875 60.8751C60.875 61.3723 60.6775 61.8492 60.3258 62.2009C59.9742 62.5525 59.4973 62.7501 59 62.7501H44.9375C44.1916 62.7501 43.4762 63.0464 42.9488 63.5738C42.4213 64.1013 42.125 64.8166 42.125 65.5626C42.125 66.3085 42.4213 67.0238 42.9488 67.5513C43.4762 68.0787 44.1916 68.3751 44.9375 68.3751H79.625C80.6746 68.3801 81.7135 68.1647 82.6747 67.7429C83.6358 67.3211 84.4977 66.7023 85.2046 65.9265C85.9115 65.1506 86.4477 64.235 86.7785 63.2389C87.1093 62.2428 87.2274 61.1884 87.125 60.1438C86.889 58.2486 85.9593 56.5081 84.5154 55.2581C83.0715 54.0081 81.2157 53.3372 79.3063 53.3751H44.9375Z" fill="white"/>
<path d="M84.3126 81.5001H70.2501C69.7528 81.5001 69.2759 81.3025 68.9243 80.9509C68.5726 80.5992 68.3751 80.1223 68.3751 79.6251C68.3751 79.1278 68.5726 78.6509 68.9243 78.2992C69.2759 77.9476 69.7528 77.7501 70.2501 77.7501H84.3126C85.0585 77.7501 85.7739 77.4537 86.3013 76.9263C86.8288 76.3988 87.1251 75.6835 87.1251 74.9376C87.1251 74.1916 86.8288 73.4763 86.3013 72.9488C85.7739 72.4214 85.0585 72.1251 84.3126 72.1251H49.9438C48.0344 72.0872 46.1786 72.7581 44.7347 74.0081C43.2908 75.2581 42.3611 76.9986 42.1251 78.8938C42.0228 79.9384 42.1408 80.9928 42.4716 81.9889C42.8024 82.985 43.3386 83.9006 44.0455 84.6765C44.7524 85.4523 45.6143 86.0711 46.5754 86.4929C47.5366 86.9147 48.5755 87.1301 49.6251 87.1251H84.3126C85.0585 87.1251 85.7739 86.8287 86.3013 86.3013C86.8288 85.7738 87.1251 85.0585 87.1251 84.3126C87.1251 83.5666 86.8288 82.8513 86.3013 82.3238C85.7739 81.7964 85.0585 81.5001 84.3126 81.5001Z" fill="white"/>
</svg>
