<svg width="69" height="90" viewBox="0 0 69 90" fill="none" xmlns="http://www.w3.org/2000/svg">
<path d="M68.3587 30.4721L61.6045 15.4404H6.84495L0.0908261 30.4721C0.0312063 30.6015 0.000225658 30.7424 0 30.8849C0.00246936 31.0792 0.0597096 31.2688 0.165138 31.4319C0.255682 31.574 0.38084 31.6908 0.528872 31.7714C0.676905 31.8519 0.84296 31.8935 1.01147 31.8923H67.438C67.6065 31.8935 67.7726 31.8519 67.9206 31.7714C68.0686 31.6908 68.1938 31.574 68.2843 31.4319C68.3898 31.2688 68.447 31.0792 68.4495 30.8849C68.4492 30.7424 68.4183 30.6015 68.3587 30.4721ZM54.9412 28.1374C54.81 28.3398 54.6301 28.506 54.4181 28.6211C54.2061 28.7361 53.9687 28.7962 53.7275 28.7959H14.7303C14.4889 28.7961 14.2513 28.7358 14.0393 28.6206C13.8272 28.5054 13.6474 28.3389 13.5162 28.1362C13.385 27.9336 13.3067 27.7014 13.2884 27.4608C13.27 27.2201 13.3123 26.9787 13.4112 26.7585L16.714 19.3893C16.8282 19.1351 17.0135 18.9194 17.2476 18.7682C17.4816 18.6169 17.7544 18.5365 18.033 18.5368H50.4082C50.6869 18.5365 50.9596 18.6169 51.1937 18.7682C51.4277 18.9194 51.613 19.1351 51.7272 19.3893L55.03 26.7585C55.1303 26.9782 55.174 27.2195 55.1571 27.4603C55.1401 27.7012 55.0631 27.934 54.933 28.1374H54.9412Z" fill="white"/>
<path d="M51.4857 25.9061H16.9637L18.9743 21.4268H49.4752L51.4857 25.9061Z" fill="white"/>
<path d="M58.9686 0H9.481C8.91728 0.000546506 8.37681 0.224726 7.9782 0.623337C7.57959 1.02195 7.3554 1.56242 7.35486 2.12614V12.5504H61.0947V2.12614C61.0942 1.56242 60.87 1.02195 60.4714 0.623337C60.0728 0.224726 59.5323 0.000546506 58.9686 0ZM14.175 11.1468C13.2137 11.1484 12.2734 10.865 11.4731 10.3322C10.6728 9.79953 10.0485 9.04149 9.67896 8.15396C9.30945 7.26643 9.21141 6.28927 9.39721 5.34603C9.58301 4.40278 10.0443 3.5358 10.7228 2.85471C11.4013 2.17362 12.2665 1.709 13.209 1.5196C14.1516 1.33019 15.1291 1.4245 16.018 1.79061C16.907 2.15672 17.6674 2.77819 18.2032 3.57643C18.7389 4.37467 19.026 5.31385 19.028 6.27522C19.0288 6.91433 18.9037 7.54733 18.6598 8.13807C18.4159 8.72881 18.0581 9.26571 17.6066 9.7181C17.1552 10.1705 16.6191 10.5295 16.0288 10.7746C15.4386 11.0198 14.8059 11.1462 14.1668 11.1468H14.175ZM26.4675 11.1468C25.5061 11.1484 24.5658 10.865 23.7655 10.3322C22.9652 9.79953 22.3409 9.04149 21.9714 8.15396C21.6019 7.26643 21.5038 6.28927 21.6896 5.34603C21.8754 4.40278 22.3367 3.5358 23.0152 2.85471C23.6937 2.17362 24.5589 1.709 25.5015 1.5196C26.444 1.33019 27.4215 1.4245 28.3105 1.79061C29.1994 2.15672 29.9598 2.77819 30.4956 3.57643C31.0313 4.37467 31.3184 5.31385 31.3204 6.27522C31.3212 6.91433 31.1961 7.54733 30.9523 8.13807C30.7084 8.72881 30.3505 9.26571 29.8991 9.7181C29.4476 10.1705 28.9115 10.5295 28.3213 10.7746C27.731 11.0198 27.0983 11.1462 26.4592 11.1468H26.4675ZM42.8945 10.2138H40.4381C40.0549 10.2138 39.6873 10.0615 39.4163 9.79054C39.1454 9.51955 38.9931 9.15203 38.9931 8.7688C38.9931 8.38558 39.1454 8.01804 39.4163 7.74706C39.6873 7.47608 40.0549 7.32385 40.4381 7.32385H42.8945C43.2777 7.32385 43.6453 7.47608 43.9162 7.74706C44.1872 8.01804 44.3395 8.38558 44.3395 8.7688C44.3395 9.15203 44.1872 9.51955 43.9162 9.79054C43.6453 10.0615 43.2777 10.2138 42.8945 10.2138ZM42.8945 5.2266H40.4381C40.0549 5.2266 39.6873 5.07437 39.4163 4.80338C39.1454 4.5324 38.9931 4.16487 38.9931 3.78165C38.9931 3.39842 39.1454 3.03089 39.4163 2.75991C39.6873 2.48893 40.0549 2.3367 40.4381 2.3367H42.8945C43.2777 2.3367 43.6453 2.48893 43.9162 2.75991C44.1872 3.03089 44.3395 3.39842 44.3395 3.78165C44.3395 4.16487 44.1872 4.5324 43.9162 4.80338C43.6453 5.07437 43.2777 5.2266 42.8945 5.2266ZM50.3009 10.2138H47.8486C47.4654 10.2138 47.0979 10.0615 46.8269 9.79054C46.5559 9.51955 46.4037 9.15203 46.4037 8.7688C46.4037 8.38558 46.5559 8.01804 46.8269 7.74706C47.0979 7.47608 47.4654 7.32385 47.8486 7.32385H50.2927C50.6759 7.32385 51.0434 7.47608 51.3144 7.74706C51.5854 8.01804 51.7376 8.38558 51.7376 8.7688C51.7376 9.15203 51.5854 9.51955 51.3144 9.79054C51.0434 10.0615 50.6759 10.2138 50.2927 10.2138H50.3009ZM50.3009 5.2266H47.8486C47.4654 5.2266 47.0979 5.07437 46.8269 4.80338C46.5559 4.5324 46.4037 4.16487 46.4037 3.78165C46.4037 3.39842 46.5559 3.03089 46.8269 2.75991C47.0979 2.48893 47.4654 2.3367 47.8486 2.3367H50.2927C50.6759 2.3367 51.0434 2.48893 51.3144 2.75991C51.5854 3.03089 51.7376 3.39842 51.7376 3.78165C51.7376 4.16487 51.5854 4.5324 51.3144 4.80338C51.0434 5.07437 50.6759 5.2266 50.2927 5.2266H50.3009ZM57.7094 10.2138H55.253C54.8698 10.2138 54.5022 10.0615 54.2312 9.79054C53.9603 9.51955 53.808 9.15203 53.808 8.7688C53.808 8.38558 53.9603 8.01804 54.2312 7.74706C54.5022 7.47608 54.8698 7.32385 55.253 7.32385H57.6991C58.0823 7.32385 58.4498 7.47608 58.7208 7.74706C58.9918 8.01804 59.144 8.38558 59.144 8.7688C59.144 9.15203 58.9918 9.51955 58.7208 9.79054C58.4498 10.0615 58.0823 10.2138 57.6991 10.2138H57.7094ZM57.7094 5.2266H55.253C54.8698 5.2266 54.5022 5.07437 54.2312 4.80338C53.9603 4.5324 53.808 4.16487 53.808 3.78165C53.808 3.39842 53.9603 3.03089 54.2312 2.75991C54.5022 2.48893 54.8698 2.3367 55.253 2.3367H57.6991C58.0823 2.3367 58.4498 2.48893 58.7208 2.75991C58.9918 3.03089 59.144 3.39842 59.144 3.78165C59.144 4.16487 58.9918 4.5324 58.7208 4.80338C58.4498 5.07437 58.0823 5.2266 57.6991 5.2266H57.7094Z" fill="white"/>
<path d="M67.438 34.782H1.01147C0.669998 34.7822 0.329967 34.7378 0 34.6499V85.89C0 88.1606 1.95481 89.9999 4.35756 89.9999H64.0919C66.4947 89.9999 68.4495 88.1565 68.4495 85.89V34.6499C68.1195 34.7378 67.7795 34.7822 67.438 34.782ZM34.2247 84.0673C29.695 84.0677 25.2668 82.7248 21.5002 80.2085C17.7337 77.6922 14.7979 74.1155 13.0641 69.9306C11.3304 65.7458 10.8765 61.1408 11.76 56.698C12.6435 52.2552 14.8245 48.1742 18.0274 44.971C21.2303 41.7678 25.3112 39.5864 29.7539 38.7025C34.1966 37.8186 38.8016 38.2721 42.9866 40.0054C47.1716 41.7388 50.7486 44.6743 53.2653 48.4406C55.7819 52.207 57.1252 56.635 57.1252 61.1648C57.1186 67.2365 54.7039 73.0578 50.4107 77.3513C46.1175 81.6449 40.2965 84.0602 34.2247 84.0673Z" fill="white"/>
<path d="M34.2248 41.1543C30.2665 41.1539 26.3969 42.3273 23.1056 44.5262C19.8142 46.725 17.2488 49.8505 15.7339 53.5075C14.2189 57.1644 13.8224 61.1884 14.5945 65.0707C15.3667 68.9529 17.2727 72.519 20.0716 75.3179C22.8706 78.1169 26.4367 80.0229 30.3189 80.7951C34.2012 81.5672 38.2252 81.1707 41.8821 79.6557C45.539 78.1408 48.6646 75.5754 50.8634 72.284C53.0623 68.9926 54.2357 65.1231 54.2353 61.1648C54.232 55.8587 52.1227 50.7709 48.3707 47.0189C44.6187 43.2669 39.5309 41.1576 34.2248 41.1543ZM34.2248 77.0717C33.9502 77.0717 33.6777 77.0717 33.3991 77.0511C33.1204 77.0304 32.8892 77.018 32.6374 76.9933C32.5073 76.9809 32.3773 76.9664 32.2493 76.9499C32.1709 76.9499 32.0904 76.9313 32.0119 76.9189C31.9335 76.9066 31.8199 76.8921 31.725 76.8756C31.63 76.8591 31.5186 76.8426 31.405 76.8219C31.2771 76.8013 31.1491 76.7765 31.0232 76.7497C30.7878 76.7015 30.5546 76.6478 30.3234 76.5887C30.2504 76.5722 30.1816 76.5536 30.117 76.5329L29.797 76.4442L29.5596 76.3719C29.2624 76.2811 28.9693 76.182 28.6803 76.0726C28.6142 76.0499 28.5482 76.0231 28.4738 75.9983L28.2034 75.8889C28.0982 75.8476 27.997 75.8022 27.8917 75.7568C27.739 75.6928 27.5904 75.6247 27.4438 75.5504L27.2126 75.4368L27.1445 75.4059C27.0433 75.3543 26.9381 75.3027 26.8431 75.249C26.7482 75.1953 26.6367 75.1334 26.519 75.0756L26.5005 75.0632L26.1888 74.8857C26.0835 74.8238 25.9823 74.7618 25.875 74.6958C25.7677 74.6297 25.7119 74.5946 25.6335 74.543L25.4271 74.4109C25.2206 74.2829 25.041 74.1488 24.8532 74.0105C24.7816 73.9595 24.7094 73.9059 24.6365 73.8495C24.5374 73.7751 24.4404 73.7008 24.3433 73.6224C24.2463 73.544 24.1493 73.4676 24.0543 73.3871C23.7695 73.1517 23.4943 72.9047 23.2287 72.646C23.1378 72.5614 23.0491 72.4747 22.9644 72.3859C22.6135 72.0371 22.2812 71.6696 21.9654 71.2878C21.8869 71.1928 21.8085 71.0958 21.7321 70.9988C21.3478 70.5121 20.9921 70.0034 20.667 69.4754C20.6009 69.3701 20.5369 69.269 20.475 69.1554C20.3491 68.949 20.2273 68.7219 20.1138 68.5011C20.056 68.3896 19.9982 68.2781 19.9445 68.1667C19.8908 68.0552 19.8475 67.9602 19.8021 67.8694L19.7649 67.791C19.7236 67.7043 19.6844 67.6176 19.6493 67.5309C19.5894 67.3946 19.5316 67.2563 19.4738 67.118L19.3438 66.7836C19.3005 66.6763 19.2612 66.5669 19.2241 66.4575C19.1725 66.3109 19.1229 66.1644 19.0755 66.0157C19.0404 65.9146 19.0094 65.8093 18.9805 65.7082C18.9516 65.607 18.9062 65.4646 18.8752 65.3407C18.8443 65.2169 18.8133 65.1137 18.7865 65.0002C18.7865 64.9733 18.7741 64.9465 18.7658 64.9217C18.7411 64.8185 18.7183 64.7153 18.6936 64.61V64.5811C18.6688 64.4614 18.642 64.3417 18.6193 64.2199C18.5966 64.0981 18.5738 63.9887 18.5553 63.8731C18.5553 63.8442 18.545 63.8153 18.5408 63.7864C18.5202 63.677 18.5037 63.5676 18.4892 63.4582C18.4748 63.3488 18.4521 63.2022 18.4376 63.0722C18.4232 62.9421 18.4067 62.8141 18.3963 62.6841C18.386 62.5541 18.3716 62.4343 18.3654 62.3084C18.3654 62.2919 18.3654 62.2733 18.3654 62.2568C18.3654 62.1619 18.3509 62.0648 18.3489 61.9699C18.3489 61.9451 18.3489 61.9224 18.3489 61.8976C18.3489 61.8729 18.3489 61.8543 18.3489 61.8316C18.3365 61.6107 18.3323 61.3878 18.3323 61.1648C18.3367 56.9497 20.0119 52.9083 22.9909 49.9262C25.9699 46.9441 30.0096 45.2646 34.2248 45.2559C34.4993 45.2559 34.7718 45.2559 35.0504 45.2765C35.3291 45.2972 35.5603 45.3096 35.8121 45.3343C36.1135 45.3632 36.4108 45.4025 36.7059 45.4479L37.0465 45.5057C37.1766 45.5284 37.3066 45.5531 37.4346 45.58L37.8 45.6605L38.1344 45.741C38.2073 45.7575 38.2796 45.7761 38.3511 45.7967L38.6422 45.8772L38.9394 45.966L39.0117 45.9887C39.1149 46.0217 39.2181 46.0548 39.3213 46.0919C39.3267 46.0902 39.3325 46.0902 39.3378 46.0919C39.439 46.1229 39.5442 46.158 39.6392 46.1951L39.9426 46.3087C40.019 46.3396 40.0975 46.3685 40.1738 46.4015L40.3183 46.4593L40.5743 46.5687L40.6424 46.5997L40.9417 46.7339H40.952C41.0649 46.7862 41.1764 46.8398 41.2864 46.8949L41.5734 47.0394L41.6725 47.0931C41.7653 47.1426 41.8582 47.1921 41.9491 47.2437C42.0399 47.2953 42.1658 47.3655 42.2731 47.4295C42.3805 47.4935 42.4796 47.5472 42.5725 47.6091C42.7108 47.6958 42.847 47.7825 42.9853 47.8733C43.0637 47.9229 43.1422 47.9765 43.2186 48.0302C43.2949 48.0839 43.4105 48.1623 43.5055 48.2366C43.7119 48.3873 43.9183 48.5401 44.1144 48.699C44.2094 48.7733 44.3043 48.8497 44.3972 48.9281C44.6842 49.1676 44.9649 49.4174 45.2229 49.6754C45.3137 49.76 45.4025 49.8467 45.4871 49.9355C45.7514 50.1997 46.0053 50.4749 46.2488 50.7612C46.4119 50.947 46.5688 51.1389 46.7195 51.333C46.8702 51.527 47.025 51.7252 47.1674 51.9275C47.2417 52.0286 47.3119 52.1339 47.3738 52.233C47.4358 52.332 47.5142 52.4394 47.5803 52.5426C47.6463 52.6458 47.6814 52.6995 47.7309 52.7779C47.8796 53.0153 48.022 53.2568 48.1562 53.5025C48.2903 53.7481 48.4225 53.9979 48.5442 54.2518L48.6743 54.4953C48.728 54.6089 48.7796 54.7245 48.827 54.8401C48.8745 54.9557 48.9282 55.0713 48.9736 55.1869C49.019 55.3025 49.0686 55.4201 49.1119 55.5378C49.2027 55.7731 49.2874 56.0105 49.3617 56.252C49.403 56.3717 49.4422 56.4935 49.4752 56.6153C49.5082 56.7371 49.5495 56.8589 49.5805 56.9827C49.6816 57.3502 49.7704 57.7238 49.8406 58.1015C49.8674 58.2274 49.8922 58.3554 49.9108 58.4834C49.9562 58.7366 49.9933 58.9926 50.0222 59.2513C50.0387 59.3813 50.0511 59.5093 50.0635 59.6394C50.0759 59.7694 50.0883 59.8995 50.0965 60.0316C50.1048 60.1637 50.111 60.238 50.1151 60.3391V60.4258C50.1151 60.4258 50.1151 60.4671 50.1151 60.4878C50.1254 60.7086 50.1316 60.9316 50.1316 61.1566C50.1294 65.3756 48.4532 69.4214 45.4708 72.4057C42.4885 75.3899 38.4438 77.0688 34.2248 77.0738V77.0717Z" fill="white"/>
<path d="M46.9156 64.0713C46.2245 67.0912 44.4793 69.7656 41.9934 71.6142C39.5075 73.4628 36.4439 74.3644 33.353 74.157C30.262 73.9496 27.3463 72.6468 25.1297 70.4826C22.9131 68.3185 21.5408 65.4349 21.2594 62.3498L21.4658 62.1145C22.3183 61.1278 22.8117 60.6138 23.8355 60.6138C24.8594 60.6138 25.3527 61.1278 26.2073 62.1124C27.1197 63.1651 28.3686 64.6101 30.761 64.6101C33.1534 64.6101 34.4023 63.1651 35.3147 62.1124C36.1692 61.1278 36.6605 60.6138 37.6844 60.6138C38.7082 60.6138 39.2016 61.1278 40.0562 62.1124C40.9686 63.1651 42.2195 64.6101 44.6119 64.6101C45.4121 64.6202 46.2028 64.4353 46.9156 64.0713Z" fill="white"/>
<path d="M47.1901 59.9798C47.1179 60.0603 47.0497 60.1408 46.9837 60.2192C46.1291 61.2039 45.6357 61.7199 44.614 61.7199C43.5922 61.7199 43.0947 61.2039 42.2401 60.2192C41.3277 59.1665 40.0768 57.7236 37.6864 57.7236C35.2961 57.7236 34.0452 59.1685 33.1328 60.2192C32.2782 61.2039 31.7869 61.7199 30.7631 61.7199C29.7392 61.7199 29.2459 61.2039 28.3933 60.2192C27.4789 59.1665 26.23 57.7236 23.8376 57.7236C23.0374 57.7138 22.2468 57.8987 21.5339 58.2623C22.226 55.2435 23.9715 52.5702 26.4569 50.7224C28.9424 48.8745 32.0052 47.9731 35.0954 48.18C38.1856 48.3868 41.1009 49.6884 43.3179 51.851C45.535 54.0136 46.9086 56.8957 47.1922 59.9798H47.1901Z" fill="white"/>
<path d="M16.1381 6.27504C16.1381 6.66493 16.0225 7.04607 15.8059 7.37025C15.5893 7.69443 15.2814 7.94711 14.9212 8.09631C14.5609 8.24552 14.1646 8.28455 13.7822 8.20849C13.3998 8.13243 13.0485 7.94468 12.7728 7.66898C12.4971 7.39328 12.3094 7.04203 12.2333 6.65963C12.1572 6.27723 12.1963 5.88086 12.3455 5.52065C12.4947 5.16043 12.7474 4.85255 13.0716 4.63594C13.3957 4.41933 13.7769 4.30371 14.1668 4.30371C14.6894 4.30426 15.1905 4.51213 15.5601 4.8817C15.9297 5.25128 16.1375 5.75238 16.1381 6.27504Z" fill="white"/>
<path d="M28.4304 6.27504C28.4304 6.66493 28.3148 7.04607 28.0982 7.37025C27.8816 7.69443 27.5737 7.94711 27.2135 8.09631C26.8533 8.24552 26.4569 8.28455 26.0745 8.20849C25.6921 8.13243 25.3409 7.94468 25.0652 7.66898C24.7895 7.39328 24.6017 7.04203 24.5257 6.65963C24.4496 6.27723 24.4886 5.88086 24.6379 5.52065C24.7871 5.16043 25.0397 4.85255 25.3639 4.63594C25.6881 4.41933 26.0692 4.30371 26.4591 4.30371C26.9818 4.30426 27.4829 4.51213 27.8525 4.8817C28.222 5.25128 28.4299 5.75238 28.4304 6.27504Z" fill="white"/>
</svg>
