<svg width="90" height="91" viewBox="0 0 90 91" fill="none" xmlns="http://www.w3.org/2000/svg">
<path fill-rule="evenodd" clip-rule="evenodd" d="M49.59 32.1665H0V81.6215C0 86.6165 4.05 90.6665 9.045 90.6665H67.455C72.45 90.6665 76.5 86.6165 76.5 81.6215V38.9165H56.25C52.5825 38.9165 49.59 35.9465 49.59 32.2565V32.1665ZM20.25 74.9165C24.345 80.384 30.8925 83.9165 38.25 83.9165C50.67 83.9165 60.75 73.8365 60.75 61.4165C60.75 48.9965 50.67 38.9165 38.25 38.9165C30.8925 38.9165 24.3675 42.449 20.25 47.9165H15.75C13.9725 47.9165 12.24 48.6365 10.98 49.8965C9.72 51.1565 9 52.889 9 54.6665V68.1665C9 69.944 9.72 71.6765 10.98 72.9365C12.24 74.1965 13.9725 74.9165 15.75 74.9165H20.25ZM38.25 43.4165C48.195 43.4165 56.25 51.4715 56.25 61.4165C56.25 71.3615 48.195 79.4165 38.25 79.4165C28.305 79.4165 20.25 71.3615 20.25 61.4165C20.25 51.4715 28.305 43.4165 38.25 43.4165ZM38.25 45.6665C29.565 45.6665 22.5 52.7315 22.5 61.4165C22.5 70.1015 29.565 77.1665 38.25 77.1665C46.935 77.1665 54 70.1015 54 61.4165C54 52.7315 46.935 45.6665 38.25 45.6665ZM47.25 68.1665C45.2025 70.889 41.9175 72.6665 38.25 72.6665C32.04 72.6665 27 67.6265 27 61.4165C27 55.2065 32.04 50.1665 38.25 50.1665C41.9175 50.1665 45.2025 51.944 47.25 54.6665C45.45 54.6665 43.74 55.3865 42.48 56.6465C41.22 57.9065 40.5 59.639 40.5 61.4165C40.5 63.194 41.22 64.9265 42.48 66.1865C43.74 67.4465 45.4725 68.1665 47.25 68.1665ZM17.6175 52.4165H15.7275C15.1425 52.4165 14.5575 52.664 14.13 53.069C13.7025 53.4965 13.4775 54.059 13.4775 54.6665V68.1665C13.4775 68.7515 13.725 69.3365 14.13 69.764C14.5575 70.1915 15.12 70.4165 15.7275 70.4165H17.6175C16.4025 67.649 15.75 64.6115 15.75 61.4165C15.75 58.2215 16.425 55.184 17.6175 52.4165ZM49.275 59.1665C49.4325 59.8865 49.5 60.6515 49.5 61.4165C49.5 62.1815 49.4325 62.9465 49.275 63.6665H47.25C46.6425 63.6665 46.08 63.419 45.6525 63.014C45.225 62.5865 45 62.024 45 61.4165C45 60.809 45.2475 60.2465 45.6525 59.819C46.08 59.3915 46.6425 59.1665 47.25 59.1665H49.275ZM90 7.3265C90 3.659 87.03 0.666504 83.34 0.666504L60.75 0.756504C57.0825 0.756504 54.09 3.7265 54.09 7.4165V27.7565C54.09 31.424 57.06 34.4165 60.75 34.4165L83.34 34.3265C87.0075 34.3265 90 31.3565 90 27.6665V7.3265ZM81 18.6665V14.1665C81 9.194 76.9725 5.1665 72 5.1665C67.0275 5.1665 63 9.194 63 14.1665V18.6665C61.7625 18.6665 60.75 19.679 60.75 20.9165C60.75 22.154 61.7625 23.1665 63 23.1665H65.25C65.25 24.9665 65.97 26.6765 67.23 27.9365C68.49 29.1965 70.2225 29.9165 72 29.9165C73.7775 29.9165 75.51 29.1965 76.77 27.9365C78.03 26.6765 78.75 24.944 78.75 23.1665H81C82.2375 23.1665 83.25 22.154 83.25 20.9165C83.25 19.679 82.2375 18.6665 81 18.6665ZM49.6575 18.6665V14.1665H33.75V27.6665H49.6125V23.1665H40.5C39.2625 23.1665 38.25 22.154 38.25 20.9165C38.25 19.679 39.2625 18.6665 40.5 18.6665H49.6575ZM29.25 14.1665H9.045C4.05 14.1665 0 18.2165 0 23.2115V27.6665H29.25V14.1665ZM74.25 23.1665H69.75C69.75 23.774 69.9975 24.3365 70.4025 24.764C70.83 25.1915 71.3925 25.4165 72 25.4165C72.6075 25.4165 73.17 25.169 73.5975 24.764C74.025 24.3365 74.25 23.774 74.25 23.1665ZM6.75 23.1665H11.25C12.4875 23.1665 13.5 22.154 13.5 20.9165C13.5 19.679 12.4875 18.6665 11.25 18.6665H6.75C5.5125 18.6665 4.5 19.679 4.5 20.9165C4.5 22.154 5.5125 23.1665 6.75 23.1665ZM18 23.1665H22.5C23.7375 23.1665 24.75 22.154 24.75 20.9165C24.75 19.679 23.7375 18.6665 22.5 18.6665H18C16.7625 18.6665 15.75 19.679 15.75 20.9165C15.75 22.154 16.7625 23.1665 18 23.1665ZM76.5 14.1665V18.6665H67.5V14.1665C67.5 11.6915 69.525 9.6665 72 9.6665C74.475 9.6665 76.5 11.6915 76.5 14.1665Z" fill="white"/>
</svg>
