<svg width="78" height="90" viewBox="0 0 78 90" fill="none" xmlns="http://www.w3.org/2000/svg">
<path d="M67.5 0H9.64286C7.08541 0 4.63271 1.01594 2.82433 2.82433C1.01594 4.63271 0 7.08541 0 9.64286V80.3571C0 82.9146 1.01594 85.3673 2.82433 87.1757C4.63271 88.9841 7.08541 90 9.64286 90H67.5C70.0574 90 72.5101 88.9841 74.3185 87.1757C76.1269 85.3673 77.1429 82.9146 77.1429 80.3571V9.64286C77.1429 7.08541 76.1269 4.63271 74.3185 2.82433C72.5101 1.01594 70.0574 0 67.5 0ZM54.6429 9.64286C55.2786 9.64286 55.9 9.83137 56.4286 10.1846C56.9572 10.5378 57.3692 11.0398 57.6125 11.6271C57.8558 12.2144 57.9194 12.8607 57.7954 13.4842C57.6714 14.1077 57.3652 14.6805 56.9157 15.13C56.4662 15.5795 55.8934 15.8856 55.2699 16.0097C54.6464 16.1337 54.0001 16.07 53.4128 15.8268C52.8255 15.5835 52.3235 15.1715 51.9703 14.6429C51.6171 14.1143 51.4286 13.4929 51.4286 12.8571C51.4286 12.0047 51.7672 11.1871 52.37 10.5843C52.9728 9.9815 53.7904 9.64286 54.6429 9.64286ZM9.64286 12.8571C9.64286 12.0047 9.98151 11.1871 10.5843 10.5843C11.1871 9.9815 12.0047 9.64286 12.8571 9.64286H22.5C23.3525 9.64286 24.17 9.9815 24.7728 10.5843C25.3756 11.1871 25.7143 12.0047 25.7143 12.8571C25.7143 13.7096 25.3756 14.5272 24.7728 15.13C24.17 15.7328 23.3525 16.0714 22.5 16.0714H12.8571C12.0047 16.0714 11.1871 15.7328 10.5843 15.13C9.98151 14.5272 9.64286 13.7096 9.64286 12.8571ZM38.5714 80.3571C33.4856 80.3571 28.514 78.849 24.2853 76.0235C20.0566 73.198 16.7608 69.182 14.8145 64.4833C12.8683 59.7846 12.359 54.6143 13.3512 49.6262C14.3434 44.6382 16.7925 40.0563 20.3887 36.4601C23.9849 32.8639 28.5667 30.4149 33.5548 29.4227C38.5429 28.4305 43.7132 28.9397 48.4119 30.886C53.1105 32.8322 57.1266 36.1281 59.9521 40.3568C62.7776 44.5855 64.2857 49.5571 64.2857 54.6429C64.2781 61.4604 61.5664 67.9964 56.7457 72.8171C51.925 77.6378 45.3889 80.3495 38.5714 80.3571ZM64.2857 16.0714C63.65 16.0714 63.0285 15.8829 62.5 15.5297C61.9714 15.1765 61.5594 14.6745 61.3161 14.0872C61.0728 13.4999 61.0092 12.8536 61.1332 12.2301C61.2572 11.6066 61.5633 11.0338 62.0129 10.5843C62.4624 10.1348 63.0351 9.82864 63.6586 9.70462C64.2821 9.58059 64.9284 9.64425 65.5158 9.88753C66.1031 10.1308 66.6051 10.5428 66.9583 11.0714C67.3115 11.6 67.5 12.2214 67.5 12.8571C67.5 13.7096 67.1614 14.5272 66.5586 15.13C65.9558 15.7328 65.1382 16.0714 64.2857 16.0714Z" fill="white"/>
<path d="M38.6712 54.6428C35.6634 53.1282 32.3408 52.344 28.9732 52.3541C25.6056 52.3642 22.2878 53.1681 19.2891 54.7007C19.292 59.8156 21.3268 64.7198 24.9457 68.3345C26.7376 70.1243 28.8644 71.5436 31.2048 72.5114C33.5453 73.4793 36.0534 73.9766 38.586 73.9752C41.1187 73.9737 43.6262 73.4734 45.9655 72.5028C48.3048 71.5323 50.43 70.1104 52.2198 68.3185C54.0096 66.5267 55.4289 64.3998 56.3968 62.0594C57.3646 59.719 57.862 57.2108 57.8605 54.6782C54.8799 56.1663 51.5931 56.938 48.2617 56.9318C44.9303 56.9257 41.6463 56.1419 38.6712 54.6428Z" fill="white"/>
</svg>
