<svg width="90" height="90" viewBox="0 0 90 90" fill="none" xmlns="http://www.w3.org/2000/svg">
<path d="M54.2365 47.0742C49.8912 47.0742 46.3562 50.6092 46.3562 54.9545C46.3562 59.2998 49.8912 62.8348 54.2365 62.8348C58.5818 62.8348 62.1167 59.2998 62.1167 54.9545C62.1167 50.6092 58.5818 47.0742 54.2365 47.0742Z" fill="white"/>
<path d="M41.6417 9.97754C42.2904 10.7896 42.8247 11.6756 43.2378 12.6143C43.6087 13.4545 43.8812 14.3387 44.0482 15.251C44.1695 15.9084 44.2363 16.5834 44.2468 17.2654C44.2855 19.8406 43.5068 22.24 42.1497 24.2158H82.1136V9.97754H41.6417ZM67.1335 19.3326C65.7941 19.3326 64.706 18.2463 64.706 16.9068C64.706 16.2652 64.9538 15.6852 65.3581 15.251C65.8011 14.7764 66.4339 14.4793 67.1335 14.4793C67.8349 14.4793 68.4659 14.7764 68.9107 15.251C69.3132 15.6852 69.5611 16.2652 69.5611 16.9068C69.5611 18.2463 68.4747 19.3326 67.1335 19.3326ZM76.8402 16.9701C76.8068 18.2797 75.7345 19.3326 74.4144 19.3326C73.0749 19.3326 71.9868 18.2463 71.9868 16.9068C71.9868 16.2652 72.2347 15.6852 72.639 15.251C73.082 14.7764 73.7148 14.4793 74.4144 14.4793C75.1157 14.4793 75.7468 14.7764 76.1915 15.251C76.58 15.6711 76.8261 16.2283 76.8402 16.8453V16.9701Z" fill="white"/>
<path d="M26.0359 29.4893V85.3895H30.9101V90.0002H38.9757V85.3895H69.8219V90.0002H77.8873V85.3895H82.1136V29.4893H26.0359ZM54.2365 68.1084C46.9837 68.1084 41.0828 62.2074 41.0828 54.9547C41.0828 47.702 46.9837 41.801 54.2365 41.801C61.4892 41.801 67.3902 47.702 67.3902 54.9547C67.3902 62.2074 61.4892 68.1084 54.2365 68.1084Z" fill="white"/>
<path d="M38.6077 15.251C38.5866 15.1859 38.5638 15.1227 38.5392 15.0594C38.4495 14.8238 38.3476 14.5936 38.2316 14.3703C38.1982 14.3053 38.1648 14.242 38.1296 14.1805C38.0523 14.0398 37.9679 13.9027 37.88 13.7674C37.764 13.5881 37.6374 13.4158 37.5038 13.2488C37.4704 13.2066 37.4353 13.1645 37.4019 13.124C37.2999 13.0027 37.1927 12.8832 37.0819 12.7707C37.0819 12.7689 37.0802 12.7689 37.0802 12.7689C37.0433 12.7303 37.0046 12.6934 36.9677 12.6564C36.9536 12.6406 36.9396 12.6283 36.9255 12.6143H36.9237C36.5054 12.2082 36.036 11.8584 35.5263 11.5754C35.4472 11.5297 35.3663 11.4875 35.2837 11.4453C35.2187 11.4119 35.1519 11.3785 35.0851 11.3486C35.0253 11.3205 34.9638 11.2941 34.9023 11.2678C34.8319 11.2361 34.7616 11.208 34.6913 11.1816C34.5911 11.1412 34.4909 11.1043 34.3872 11.0709C33.7175 10.8459 33.0003 10.7246 32.255 10.7246H32.153C29.381 10.7668 27.0273 12.4807 26.0359 14.8906C25.6984 15.708 25.5191 16.6063 25.5331 17.5467C25.5454 18.3518 25.6984 19.1217 25.9691 19.8318C25.9901 19.8898 26.013 19.9479 26.0359 20.0041C26.0534 20.048 26.0728 20.0902 26.0903 20.1324C26.1993 20.382 26.3206 20.6211 26.4577 20.8514C26.5122 20.9445 26.5685 21.0342 26.6282 21.1238V21.1256C26.688 21.2152 26.7478 21.3014 26.8093 21.3875C26.8093 21.3875 26.8093 21.3875 26.8093 21.3893C26.8726 21.4754 26.9376 21.5598 27.0044 21.6424C27.0694 21.7268 27.138 21.8094 27.2101 21.8885C27.2804 21.9676 27.3525 22.0467 27.4263 22.1223C27.4632 22.1609 27.5001 22.1996 27.5388 22.2365C27.6144 22.3104 27.6917 22.3824 27.7726 22.4545C27.8517 22.5266 27.9325 22.5951 28.0151 22.6619C28.1382 22.7621 28.2665 22.8588 28.3983 22.952C28.4845 23.0117 28.5741 23.0715 28.6638 23.1295C28.6673 23.1313 28.6708 23.133 28.6726 23.1348C28.7605 23.191 28.8501 23.2438 28.9398 23.2947C29.0804 23.3738 29.2228 23.4494 29.3687 23.518C29.4653 23.5637 29.5638 23.6076 29.664 23.6498C29.8134 23.7131 29.9646 23.7693 30.1192 23.8203C30.5007 23.9504 30.8997 24.0453 31.3093 24.1016C31.3269 24.1033 31.3427 24.1068 31.3603 24.1068C31.3778 24.1086 31.3937 24.1104 31.4112 24.1121C31.464 24.1191 31.5185 24.1262 31.5712 24.1297C31.6081 24.135 31.6468 24.1385 31.6837 24.142C31.7066 24.1438 31.7294 24.1455 31.7523 24.1473C31.761 24.149 31.7698 24.149 31.7786 24.149C31.7909 24.1508 31.805 24.1525 31.8191 24.1525C31.8261 24.1525 31.8349 24.1543 31.8419 24.1543C31.8999 24.1578 31.9579 24.1613 32.0159 24.1631C32.0704 24.1648 32.1232 24.1666 32.1776 24.1666C32.2023 24.1666 32.2269 24.1684 32.2515 24.1684C32.2866 24.1684 32.32 24.1684 32.3552 24.1666C36.0659 24.1121 39.0314 21.057 38.9751 17.3445C38.9646 16.6115 38.8362 15.9066 38.6077 15.251Z" fill="white"/>
<path d="M14.5697 18.2197C10.8835 18.2197 7.88647 21.2186 7.88647 24.9029C7.88647 28.5891 10.8835 31.5861 14.5697 31.5861C18.2541 31.5861 21.2529 28.5891 21.2529 24.9029C21.2529 21.2186 18.2541 18.2197 14.5697 18.2197Z" fill="white"/>
<path d="M15.3607 0C12.2423 0 9.70581 2.53652 9.70581 5.65488C9.70581 8.77148 12.2423 11.308 15.3607 11.308C18.4773 11.308 21.0138 8.77148 21.0138 5.65488C21.0138 2.53652 18.4773 0 15.3607 0Z" fill="white"/>
</svg>
