<svg width="90" height="90" viewBox="0 0 90 90" fill="none" xmlns="http://www.w3.org/2000/svg">
<path d="M71.1777 41.7103C71.132 41.3318 70.9485 40.9834 70.6623 40.7315C70.3761 40.4797 70.0072 40.342 69.626 40.3448C66.7087 40.3448 65.2967 42.5482 64.2725 44.162C63.2484 45.7758 62.6432 46.5517 61.5415 46.5517C60.4398 46.5517 59.7105 45.6827 58.6863 44.131C57.6622 42.5793 56.157 40.3448 53.2708 40.3448C50.3846 40.3448 48.9725 42.4551 47.8398 44.131C46.707 45.8068 46.1639 46.5517 45.0001 46.5517C43.8363 46.5517 43.1846 45.6827 42.1605 44.1465C41.1363 42.6103 39.6156 40.3448 36.7139 40.3448C33.8122 40.3448 32.4156 42.4396 31.2984 44.131C30.1811 45.8224 29.6225 46.5517 28.4432 46.5517C27.2639 46.5517 26.7674 45.8224 25.7122 44.1775C24.657 42.5327 23.276 40.3448 20.3587 40.3448C19.9775 40.342 19.6086 40.4797 19.3224 40.7315C19.0362 40.9834 18.8528 41.3318 18.807 41.7103C18.675 42.8018 18.6128 43.9005 18.6208 44.9999C18.6208 51.9962 21.4 58.7059 26.3471 63.6529C31.2942 68.6 38.0039 71.3793 45.0001 71.3793C51.9963 71.3793 58.706 68.6 63.6531 63.6529C68.6002 58.7059 71.3794 51.9962 71.3794 44.9999C71.3823 43.9002 71.3149 42.8014 71.1777 41.7103ZM45.0001 65.1724C44.6932 65.1724 44.3932 65.0813 44.138 64.9108C43.8828 64.7403 43.684 64.498 43.5665 64.2144C43.4491 63.9309 43.4183 63.6189 43.4782 63.3179C43.5381 63.0169 43.6859 62.7404 43.9029 62.5234C44.1199 62.3064 44.3964 62.1586 44.6974 62.0987C44.9984 62.0388 45.3104 62.0696 45.5939 62.187C45.8775 62.3045 46.1198 62.5034 46.2903 62.7585C46.4608 63.0137 46.5518 63.3137 46.5518 63.6206C46.5518 64.0322 46.3884 64.4269 46.0974 64.7179C45.8063 65.0089 45.4117 65.1724 45.0001 65.1724Z" fill="white"/>
<path d="M76.0345 0H13.9655C10.2616 0 6.70945 1.47136 4.09041 4.09041C1.47136 6.70945 0 10.2616 0 13.9655V76.0345C0 79.7384 1.47136 83.2906 4.09041 85.9096C6.70945 88.5286 10.2616 90 13.9655 90H76.0345C79.7384 90 83.2906 88.5286 85.9096 85.9096C88.5286 83.2906 90 79.7384 90 76.0345V13.9655C90 10.2616 88.5286 6.70945 85.9096 4.09041C83.2906 1.47136 79.7384 0 76.0345 0ZM7.75862 77.5862C7.45172 77.5862 7.15171 77.4952 6.89653 77.3247C6.64135 77.1542 6.44246 76.9118 6.32501 76.6283C6.20757 76.3448 6.17684 76.0328 6.23671 75.7318C6.29659 75.4308 6.44437 75.1543 6.66139 74.9372C6.8784 74.7202 7.15489 74.5725 7.45589 74.5126C7.7569 74.4527 8.0689 74.4834 8.35244 74.6009C8.63598 74.7183 8.87833 74.9172 9.04883 75.1724C9.21934 75.4276 9.31035 75.7276 9.31035 76.0345C9.31035 76.446 9.14686 76.8407 8.85586 77.1317C8.56485 77.4227 8.17016 77.5862 7.75862 77.5862ZM13.9655 83.7931C13.6586 83.7931 13.3586 83.7021 13.1034 83.5316C12.8482 83.3611 12.6494 83.1187 12.5319 82.8352C12.4145 82.5517 12.3837 82.2397 12.4436 81.9387C12.5035 81.6376 12.6513 81.3612 12.8683 81.1441C13.0853 80.9271 13.3618 80.7793 13.6628 80.7195C13.9638 80.6596 14.2758 80.6903 14.5593 80.8078C14.8429 80.9252 15.0852 81.1241 15.2557 81.3793C15.4262 81.6345 15.5172 81.9345 15.5172 82.2414C15.5172 82.6529 15.3538 83.0476 15.0628 83.3386C14.7717 83.6296 14.3771 83.7931 13.9655 83.7931ZM13.9655 77.5862C13.6586 77.5862 13.3586 77.4952 13.1034 77.3247C12.8482 77.1542 12.6494 76.9118 12.5319 76.6283C12.4145 76.3448 12.3837 76.0328 12.4436 75.7318C12.5035 75.4308 12.6513 75.1543 12.8683 74.9372C13.0853 74.7202 13.3618 74.5725 13.6628 74.5126C13.9638 74.4527 14.2758 74.4834 14.5593 74.6009C14.8429 74.7183 15.0852 74.9172 15.2557 75.1724C15.4262 75.4276 15.5172 75.7276 15.5172 76.0345C15.5172 76.446 15.3538 76.8407 15.0628 77.1317C14.7717 77.4227 14.3771 77.5862 13.9655 77.5862ZM45 77.5862C38.5551 77.5862 32.2548 75.6751 26.8961 72.0944C21.5373 68.5138 17.3606 63.4246 14.8943 57.4702C12.4279 51.5158 11.7826 44.9639 13.0399 38.6427C14.2973 32.3216 17.4008 26.5153 21.9581 21.9581C26.5153 17.4008 32.3216 14.2973 38.6427 13.0399C44.9639 11.7826 51.5158 12.4279 57.4702 14.8943C63.4246 17.3606 68.5138 21.5373 72.0944 26.8961C75.6751 32.2548 77.5862 38.5551 77.5862 45C77.5862 53.6424 74.153 61.9308 68.0419 68.0419C61.9308 74.153 53.6424 77.5862 45 77.5862Z" fill="white"/>
<path d="M52.7585 37.2411C53.6155 37.2411 54.3102 36.5464 54.3102 35.6894C54.3102 34.8324 53.6155 34.1377 52.7585 34.1377C51.9015 34.1377 51.2068 34.8324 51.2068 35.6894C51.2068 36.5464 51.9015 37.2411 52.7585 37.2411Z" fill="white"/>
<path d="M62.069 37.2415C64.64 37.2415 66.7242 35.1573 66.7242 32.5863C66.7242 30.0153 64.64 27.9312 62.069 27.9312C59.498 27.9312 57.4138 30.0153 57.4138 32.5863C57.4138 35.1573 59.498 37.2415 62.069 37.2415Z" fill="white"/>
</svg>
