<svg width="25" height="21" viewBox="0 0 25 21" fill="none" xmlns="http://www.w3.org/2000/svg">
<path d="M24.6004 9.52884L15.572 0.500258C15.3143 0.242536 14.9708 0.101074 14.6046 0.101074C14.2379 0.101074 13.8946 0.24274 13.6369 0.500258L12.8172 1.32017C12.5597 1.57748 12.4178 1.92118 12.4178 2.28764C12.4178 2.6539 12.5597 3.00918 12.8172 3.2665L18.0842 8.54511H1.3506C0.596133 8.54511 0 9.13576 0 9.89043V11.0496C0 11.8042 0.596133 12.4544 1.3506 12.4544H18.144L12.8174 17.7625C12.5599 18.0202 12.418 18.3546 12.418 18.721C12.418 19.0871 12.5599 19.4263 12.8174 19.6838L13.6371 20.5011C13.8948 20.7588 14.2381 20.8993 14.6048 20.8993C14.971 20.8993 15.3145 20.757 15.5722 20.4993L24.6006 11.4709C24.8589 11.2124 25.001 10.8672 25 10.5004C25.0008 10.1323 24.8589 9.78697 24.6004 9.52884Z" fill="black"/>
</svg>
