<svg width="144" height="88" viewBox="0 0 144 88" fill="none" xmlns="http://www.w3.org/2000/svg">
<path d="M118.442 80.0793C120.851 80.0793 122.804 78.1264 122.804 75.7174C122.804 73.3084 120.851 71.3555 118.442 71.3555C116.033 71.3555 114.08 73.3084 114.08 75.7174C114.08 78.1264 116.033 80.0793 118.442 80.0793Z" fill="#0D39B9"/>
<path d="M21.539 60.2843C29.3651 60.2843 35.8387 66.3037 36.7776 73.6968H85.636V25.5819C85.6494 23.5371 86.472 21.5808 87.9238 20.1408C89.3755 18.7007 91.3384 17.8941 93.3833 17.8972L101.814 17.8488L95.6868 3.7192C95.3256 2.89917 94.7307 2.20377 93.9765 1.71989C93.2224 1.23602 92.3423 0.985125 91.4463 0.99856H4.7069C2.15907 0.99856 0 2.94108 0 5.4889V69.0998C0.0219458 70.3312 0.528365 71.5043 1.40946 72.3649C2.29056 73.2254 3.47533 73.7039 4.7069 73.6968H6.31304C7.29539 66.3037 13.7464 60.2843 21.539 60.2843ZM27.8462 30.4441L31.4377 21.9914C32.4087 19.7093 33.9687 17.7261 35.9579 16.2449C37.9471 14.7636 40.2942 13.8375 42.7589 13.5612C42.9719 13.5377 43.1874 13.559 43.3917 13.6236C43.5961 13.6882 43.7846 13.7947 43.9454 13.9364C45.6807 15.4542 47.9074 16.2914 50.2127 16.2927C52.5181 16.2941 54.7458 15.4595 56.4828 13.9438C56.6448 13.8016 56.8344 13.6946 57.0398 13.6293C57.2452 13.5639 57.4618 13.5418 57.6762 13.5643C60.137 13.8436 62.4797 14.771 64.465 16.2518C66.4502 17.7325 68.007 19.7135 68.9764 21.9926L72.5599 30.4453C72.6431 30.6487 72.682 30.8676 72.6738 31.0872C72.6656 31.3068 72.6106 31.5222 72.5125 31.7188C72.41 31.9177 72.2671 32.0929 72.0929 32.2331C71.9187 32.3734 71.717 32.4757 71.5008 32.5333L64.6894 34.3815V55.2921C64.7023 55.4831 64.675 55.6747 64.6093 55.8545C64.5436 56.0343 64.441 56.1984 64.3081 56.3362C64.1751 56.4739 64.0148 56.5823 63.8374 56.6543C63.6601 56.7264 63.4696 56.7604 63.2782 56.7544H37.1439C36.9524 56.7604 36.7618 56.7263 36.5844 56.6542C36.407 56.582 36.2466 56.4735 36.1137 56.3356C35.9808 56.1978 35.8782 56.0335 35.8127 55.8536C35.7471 55.6736 35.72 55.4819 35.733 55.2909V34.3618L28.9253 32.5329C28.7086 32.476 28.5063 32.3741 28.3315 32.2339C28.1567 32.0938 28.0133 31.9185 27.9106 31.7194C27.8097 31.5236 27.7519 31.3086 27.741 31.0886C27.73 30.8687 27.7662 30.6489 27.8471 30.4441H27.8462ZM6.77695 32.8502C6.77695 33.2587 6.61468 33.6505 6.32583 33.9393C6.03699 34.2282 5.64523 34.3904 5.23673 34.3904C4.82824 34.3904 4.43648 34.2282 4.14764 33.9393C3.85879 33.6505 3.69652 33.2587 3.69652 32.8502V14.5771C3.69652 14.1686 3.85879 13.7769 4.14764 13.488C4.43648 13.1992 4.82824 13.0369 5.23673 13.0369C5.64523 13.0369 6.03699 13.1992 6.32583 13.488C6.61468 13.7769 6.77695 14.1686 6.77695 14.5771V32.8502ZM6.77695 8.00408C6.77695 8.41257 6.61468 8.80433 6.32583 9.09317C6.03699 9.38202 5.64523 9.5443 5.23673 9.5443C4.82824 9.5443 4.43648 9.38202 4.14764 9.09317C3.85879 8.80433 3.69652 8.41257 3.69652 8.00408V6.07326C3.69652 5.66477 3.85879 5.27301 4.14764 4.98417C4.43648 4.69532 4.82824 4.53305 5.23673 4.53305C5.64523 4.53305 6.03699 4.69532 6.32583 4.98417C6.61468 5.27301 6.77695 5.66477 6.77695 6.07326V8.00408Z" fill="#0D39B9"/>
<path d="M139.336 47.8551L135.044 47.239C134.429 47.1517 133.838 46.9438 133.303 46.6271C132.769 46.3105 132.302 45.8914 131.93 45.3939L116.6 24.9931C115.622 23.6953 114.353 22.6445 112.897 21.9247C111.44 21.2048 109.834 20.8359 108.209 20.8474L93.3951 20.9614C92.1634 20.9586 90.9805 21.4427 90.1042 22.3082C89.2278 23.1737 88.7291 24.3504 88.7166 25.5821V73.6969H103.201C104.141 66.3038 110.613 60.2354 118.44 60.2354C126.266 60.2354 132.74 66.3038 133.678 73.6969H138.841C141.389 73.6969 143.548 71.7473 143.548 69.1994V66.6119H136.258C135.349 66.6148 134.474 66.262 133.822 65.6288C133.17 64.9956 132.791 64.1322 132.767 63.2234V57.2166C132.767 55.3483 134.39 53.9821 136.258 53.9821H143.548V52.6708C143.533 51.4984 143.101 50.3699 142.329 49.4874C141.557 48.605 140.496 48.0263 139.336 47.8551ZM122.727 43.9494C122.593 44.1894 122.398 44.3894 122.161 44.5285C121.925 44.6677 121.655 44.741 121.38 44.7408H94.4751C94.2779 44.7391 94.083 44.6974 93.9023 44.6184C93.7216 44.5393 93.5588 44.4245 93.4237 44.2808C93.2886 44.1371 93.184 43.9675 93.1162 43.7823C93.0483 43.5971 93.0188 43.4 93.0292 43.2031V27.2683C93.0292 26.4178 93.6246 25.6421 94.4751 25.6421H111.45C111.715 25.6507 111.974 25.7257 112.202 25.8602C112.431 25.9948 112.622 26.1846 112.757 26.4122L122.687 42.3689C122.832 42.6055 122.912 42.8762 122.919 43.1537C122.926 43.4312 122.86 43.7057 122.727 43.9494Z" fill="#0D39B9"/>
<path d="M25.9013 75.7174C25.9013 74.8547 25.6455 74.0113 25.1662 73.294C24.6869 72.5767 24.0056 72.0176 23.2086 71.6875C22.4116 71.3574 21.5345 71.271 20.6884 71.4393C19.8423 71.6076 19.0651 72.023 18.4551 72.633C17.845 73.2431 17.4296 74.0203 17.2613 74.8664C17.093 75.7125 17.1794 76.5896 17.5095 77.3866C17.8397 78.1836 18.3987 78.8649 19.116 79.3441C19.8334 79.8234 20.6767 80.0793 21.5394 80.0793C22.6958 80.0779 23.8045 79.618 24.6223 78.8002C25.44 77.9825 25.9 76.8738 25.9013 75.7174Z" fill="#0D39B9"/>
<path d="M35.7332 27.8055C35.7332 27.397 35.8954 27.0052 36.1843 26.7164C36.4731 26.4275 36.8649 26.2653 37.2734 26.2653C37.6819 26.2653 38.0736 26.4275 38.3625 26.7164C38.6513 27.0052 38.8136 27.397 38.8136 27.8055V53.6737H61.6088V27.8055C61.6088 27.397 61.7711 27.0052 62.0599 26.7164C62.3488 26.4275 62.7405 26.2653 63.149 26.2653C63.5575 26.2653 63.9493 26.4275 64.2381 26.7164C64.527 27.0052 64.6892 27.397 64.6892 27.8055V31.1866L68.9867 30.0271L66.149 23.1962C65.4348 21.5183 64.3117 20.046 62.8822 18.9137C61.4528 17.7814 59.7624 17.0252 57.9656 16.7141C55.7498 18.4354 53.0237 19.3696 50.2179 19.3692C47.4121 19.3688 44.6863 18.4338 42.471 16.7119C40.6713 17.0208 38.9778 17.7763 37.5456 18.9091C36.1134 20.042 34.9884 21.516 34.2733 23.1962L31.4375 30.0228L35.7332 31.1699V27.8055Z" fill="#0D39B9"/>
<path d="M33.8186 75.717C33.8186 73.2884 33.0984 70.9143 31.7491 68.8949C30.3998 66.8755 28.482 65.3016 26.2382 64.3722C23.9944 63.4428 21.5254 63.1996 19.1434 63.6735C16.7614 64.1473 14.5734 65.3168 12.8561 67.0341C11.1388 68.7514 9.96928 70.9394 9.49547 73.3214C9.02167 75.7034 9.26484 78.1724 10.1943 80.4162C11.1237 82.66 12.6976 84.5778 14.7169 85.9271C16.7363 87.2764 19.1104 87.9966 21.5391 87.9966C24.7946 87.9928 27.9158 86.6979 30.2178 84.3958C32.5199 82.0938 33.8148 78.9726 33.8186 75.717ZM14.097 75.717C14.097 74.2451 14.5335 72.8062 15.3513 71.5823C16.1691 70.3584 17.3314 69.4045 18.6913 68.8412C20.0512 68.2779 21.5476 68.1305 22.9913 68.4177C24.435 68.7049 25.761 69.4137 26.8019 70.4545C27.8427 71.4953 28.5515 72.8214 28.8387 74.2651C29.1258 75.7088 28.9785 77.2052 28.4152 78.5651C27.8519 79.925 26.898 81.0873 25.6741 81.9051C24.4502 82.7229 23.0113 83.1593 21.5394 83.1593C19.5663 83.1571 17.6747 82.3724 16.2795 80.9773C14.8843 79.5822 14.0994 77.6907 14.097 75.7176V75.717Z" fill="#0D39B9"/>
<path d="M96.1094 28.7227V41.6605H118.605L110.596 28.7227H96.1094Z" fill="#0D39B9"/>
<path d="M118.44 63.439C116.011 63.439 113.637 64.1591 111.618 65.5084C109.598 66.8577 108.024 68.7755 107.095 71.0193C106.165 73.2631 105.922 75.7321 106.396 78.1141C106.87 80.4961 108.039 82.6841 109.757 84.4014C111.474 86.1187 113.662 87.2883 116.044 87.7621C118.426 88.2359 120.895 87.9927 123.139 87.0633C125.383 86.1339 127.3 84.56 128.65 82.5406C129.999 80.5213 130.719 78.1471 130.719 75.7185C130.715 72.4629 129.421 69.3417 127.118 67.0397C124.816 64.7376 121.695 63.4427 118.44 63.439ZM118.442 83.1608C116.971 83.1608 115.532 82.7243 114.308 81.9066C113.084 81.0888 112.13 79.9264 111.567 78.5665C111.003 77.2066 110.856 75.7102 111.143 74.2666C111.43 72.8229 112.139 71.4968 113.18 70.456C114.221 69.4151 115.547 68.7063 116.991 68.4192C118.434 68.132 119.931 68.2794 121.291 68.8427C122.65 69.406 123.813 70.3599 124.631 71.5838C125.448 72.8076 125.885 74.2465 125.885 75.7185C125.882 77.6914 125.097 79.5828 123.702 80.9779C122.307 82.3729 120.416 83.1576 118.443 83.1599L118.442 83.1608Z" fill="#0D39B9"/>
<path d="M135.847 57.2164V63.2233C135.847 63.393 136.088 63.5313 136.258 63.5313H143.548V57.0624H136.258C136.088 57.0624 135.847 57.0467 135.847 57.2164Z" fill="#0D39B9"/>
</svg>
