<svg width="91" height="91" viewBox="0 0 91 91" fill="none" xmlns="http://www.w3.org/2000/svg">
<path d="M0.333496 8.51514V43.2879H43.288V8.51514H0.333496ZM21.8108 41.2424C18.7766 41.2424 15.8106 40.3427 13.2878 38.657C10.765 36.9713 8.79873 34.5754 7.63762 31.7722C6.4765 28.969 6.1727 25.8845 6.76463 22.9086C7.35656 19.9328 8.81764 17.1993 10.9631 15.0538C13.1086 12.9084 15.8421 11.4473 18.8179 10.8554C21.7937 10.2634 24.8783 10.5672 27.6815 11.7283C30.4847 12.8895 32.8806 14.8557 34.5663 17.3785C36.252 19.9013 37.1517 22.8674 37.1517 25.9015C37.1517 29.9702 35.5354 33.8722 32.6584 36.7492C29.7815 39.6261 25.8794 41.2424 21.8108 41.2424Z" fill="#0D39B9"/>
<path d="M47.3789 8.51514V43.2879H90.3335V8.51514H47.3789ZM68.8562 41.2424C65.822 41.2424 62.856 40.3427 60.3332 38.657C57.8104 36.9713 55.8441 34.5754 54.683 31.7722C53.5219 28.969 53.2181 25.8845 53.81 22.9086C54.402 19.9328 55.8631 17.1993 58.0085 15.0538C60.154 12.9084 62.8875 11.4473 65.8633 10.8554C68.8392 10.2634 71.9237 10.5672 74.7269 11.7283C77.5301 12.8895 79.926 14.8557 81.6117 17.3785C83.2974 19.9013 84.1971 22.8674 84.1971 25.9015C84.1971 29.9702 82.5808 33.8722 79.7038 36.7492C76.8269 39.6261 72.9248 41.2424 68.8562 41.2424Z" fill="#0D39B9"/>
<path d="M0.333496 55.5605V90.3333H43.288V55.5605H0.333496ZM21.8108 88.2878C18.7766 88.2878 15.8106 87.3881 13.2878 85.7024C10.765 84.0167 8.79873 81.6208 7.63762 78.8176C6.4765 76.0144 6.1727 72.9299 6.76463 69.954C7.35656 66.9782 8.81764 64.2447 10.9631 62.0992C13.1086 59.9538 15.8421 58.4927 18.8179 57.9008C21.7937 57.3088 24.8783 57.6126 27.6815 58.7738C30.4847 59.9349 32.8806 61.9012 34.5663 64.424C36.252 66.9468 37.1517 69.9128 37.1517 72.9469C37.1517 77.0156 35.5354 80.9176 32.6584 83.7946C29.7815 86.6716 25.8794 88.2878 21.8108 88.2878Z" fill="#0D39B9"/>
<path d="M47.3789 55.5605V90.3333H90.3335V55.5605H47.3789ZM68.8562 88.2878C65.822 88.2878 62.856 87.3881 60.3332 85.7024C57.8104 84.0167 55.8441 81.6208 54.683 78.8176C53.5219 76.0144 53.2181 72.9299 53.81 69.954C54.402 66.9782 55.8631 64.2447 58.0085 62.0992C60.154 59.9538 62.8875 58.4927 65.8633 57.9008C68.8392 57.3088 71.9237 57.6126 74.7269 58.7738C77.5301 59.9349 79.926 61.9012 81.6117 64.424C83.2974 66.9468 84.1971 69.9128 84.1971 72.9469C84.1971 77.0156 82.5808 80.9176 79.7038 83.7946C76.8269 86.6716 72.9248 88.2878 68.8562 88.2878Z" fill="#0D39B9"/>
<path d="M21.8108 14.6519C19.5858 14.6519 17.4107 15.3117 15.5606 16.5478C13.7106 17.784 12.2686 19.541 11.4172 21.5967C10.5657 23.6523 10.3429 25.9143 10.777 28.0966C11.211 30.2789 12.2825 32.2835 13.8558 33.8568C15.4292 35.4301 17.4337 36.5016 19.616 36.9357C21.7983 37.3698 24.0603 37.147 26.116 36.2955C28.1717 35.444 29.9287 34.0021 31.1648 32.152C32.401 30.302 33.0608 28.1269 33.0608 25.9019C33.0554 22.9198 31.8684 20.0615 29.7598 17.9529C27.6512 15.8443 24.7928 14.6573 21.8108 14.6519ZM21.8108 20.7882C20.4546 20.7882 19.1539 21.327 18.1949 22.286C17.2359 23.245 16.6972 24.5456 16.6972 25.9019C16.6972 26.4443 16.4817 26.9646 16.0981 27.3482C15.7145 27.7318 15.1942 27.9473 14.6517 27.9473C10.2131 27.9473 13.179 16.6973 21.8108 16.6973C22.3533 16.6973 22.8736 16.9128 23.2572 17.2964C23.6407 17.68 23.8563 18.2003 23.8563 18.7428C23.8563 19.2853 23.6407 19.8055 23.2572 20.1891C22.8736 20.5727 22.3533 20.7882 21.8108 20.7882Z" fill="#0D39B9"/>
<path d="M68.8562 14.6519C66.6312 14.6519 64.4561 15.3117 62.606 16.5478C60.756 17.784 59.314 19.541 58.4626 21.5967C57.6111 23.6523 57.3883 25.9143 57.8224 28.0966C58.2565 30.2789 59.3279 32.2835 60.9013 33.8568C62.4746 35.4301 64.4792 36.5016 66.6614 36.9357C68.8437 37.3698 71.1057 37.147 73.1614 36.2955C75.2171 35.444 76.9741 34.0021 78.2102 32.152C79.4464 30.302 80.1062 28.1269 80.1062 25.9019C80.1008 22.9198 78.9138 20.0615 76.8052 17.9529C74.6966 15.8443 71.8382 14.6573 68.8562 14.6519ZM68.8562 20.7882C67.5 20.7882 66.1993 21.327 65.2403 22.286C64.2813 23.245 63.7426 24.5456 63.7426 25.9019C63.7426 26.4443 63.5271 26.9646 63.1435 27.3482C62.7599 27.7318 62.2396 27.9473 61.6971 27.9473C57.2585 27.9473 60.2244 16.6973 68.8562 16.6973C69.3987 16.6973 69.919 16.9128 70.3026 17.2964C70.6862 17.68 70.9017 18.2003 70.9017 18.7428C70.9017 19.2853 70.6862 19.8055 70.3026 20.1891C69.919 20.5727 69.3987 20.7882 68.8562 20.7882Z" fill="#0D39B9"/>
<path d="M21.8108 61.6973C19.5858 61.6973 17.4107 62.3571 15.5606 63.5932C13.7106 64.8294 12.2686 66.5864 11.4172 68.6421C10.5657 70.6977 10.3429 72.9597 10.777 75.142C11.211 77.3243 12.2825 79.3289 13.8558 80.9022C15.4292 82.4756 17.4337 83.547 19.616 83.9811C21.7983 84.4152 24.0603 84.1924 26.116 83.3409C28.1717 82.4894 29.9287 81.0475 31.1648 79.1974C32.401 77.3474 33.0608 75.1723 33.0608 72.9473C33.0554 69.9652 31.8684 67.1069 29.7598 64.9983C27.6512 62.8897 24.7928 61.7027 21.8108 61.6973ZM20.1949 79.5132C19.8097 79.8983 19.2873 80.1147 18.7426 80.1147C18.1979 80.1147 17.6755 79.8983 17.2903 79.5132C16.9052 79.128 16.6888 78.6056 16.6888 78.0609C16.6888 77.5162 16.9052 76.9938 17.2903 76.6086C17.8631 75.995 17.5153 75.6473 17.2903 75.4223C13.5472 71.6791 17.679 65.9109 20.1949 68.4268C20.5759 68.8101 20.7897 69.3285 20.7897 69.8689C20.7897 70.4092 20.5759 70.9277 20.1949 71.3109C19.6017 71.945 19.9494 72.2927 20.1949 72.5177C20.6689 72.9686 21.0464 73.5112 21.3043 74.1125C21.5622 74.7138 21.6952 75.3612 21.6952 76.0154C21.6952 76.6697 21.5622 77.3171 21.3043 77.9184C21.0464 78.5197 20.6689 79.0623 20.1949 79.5132ZM26.3313 75.4223C25.9461 75.8074 25.4237 76.0238 24.879 76.0238C24.3343 76.0238 23.8119 75.8074 23.4267 75.4223C23.0415 75.0371 22.8252 74.5147 22.8252 73.97C22.8252 73.4253 23.0415 72.9029 23.4267 72.5177C23.9994 71.9041 23.6517 71.5564 23.4267 71.3314C19.6835 67.5882 23.8153 61.82 26.3313 64.3359C26.7122 64.7191 26.9261 65.2376 26.9261 65.7779C26.9261 66.3183 26.7122 66.8368 26.3313 67.22C25.7381 67.8541 26.0858 68.2018 26.3313 68.4268C26.8053 68.8777 27.1828 69.4203 27.4407 70.0216C27.6986 70.6228 27.8316 71.2703 27.8316 71.9245C27.8316 72.5788 27.6986 73.2262 27.4407 73.8275C27.1828 74.4288 26.8053 74.9714 26.3313 75.4223Z" fill="#0D39B9"/>
<path d="M0.333496 0.333496H43.288V4.42441H0.333496V0.333496Z" fill="#0D39B9"/>
<path d="M47.3789 0.333496H90.3335V4.42441H47.3789V0.333496Z" fill="#0D39B9"/>
<path d="M0.333496 47.3789H43.288V51.4698H0.333496V47.3789Z" fill="#0D39B9"/>
<path d="M47.3789 47.3789H90.3335V51.4698H47.3789V47.3789Z" fill="#0D39B9"/>
<path d="M68.8562 61.6973C66.6312 61.6973 64.4561 62.3571 62.606 63.5932C60.756 64.8294 59.314 66.5864 58.4626 68.6421C57.6111 70.6977 57.3883 72.9597 57.8224 75.142C58.2565 77.3243 59.3279 79.3289 60.9013 80.9022C62.4746 82.4756 64.4792 83.547 66.6614 83.9811C68.8437 84.4152 71.1057 84.1924 73.1614 83.3409C75.2171 82.4894 76.9741 81.0475 78.2102 79.1974C79.4464 77.3474 80.1062 75.1723 80.1062 72.9473C80.1008 69.9652 78.9138 67.1069 76.8052 64.9983C74.6966 62.8897 71.8382 61.7027 68.8562 61.6973ZM67.2403 79.5132C66.8551 79.8983 66.3327 80.1147 65.788 80.1147C65.2433 80.1147 64.7209 79.8983 64.3358 79.5132C63.9506 79.128 63.7342 78.6056 63.7342 78.0609C63.7342 77.5162 63.9506 76.9938 64.3358 76.6086C64.9085 75.995 64.5608 75.6473 64.3358 75.4223C60.5926 71.6791 64.7244 65.9109 67.2403 68.4268C67.6213 68.8101 67.8351 69.3285 67.8351 69.8689C67.8351 70.4092 67.6213 70.9277 67.2403 71.3109C66.6471 71.945 66.9948 72.2927 67.2403 72.5177C67.7144 72.9686 68.0918 73.5112 68.3497 74.1125C68.6076 74.7138 68.7406 75.3612 68.7406 76.0154C68.7406 76.6697 68.6076 77.3171 68.3497 77.9184C68.0918 78.5197 67.7144 79.0623 67.2403 79.5132ZM73.3767 75.4223C72.9915 75.8074 72.4691 76.0238 71.9244 76.0238C71.3797 76.0238 70.8573 75.8074 70.4721 75.4223C70.087 75.0371 69.8706 74.5147 69.8706 73.97C69.8706 73.4253 70.087 72.9029 70.4721 72.5177C71.0448 71.9041 70.6971 71.5564 70.4721 71.3314C66.7289 67.5882 70.8608 61.82 73.3767 64.3359C73.7576 64.7191 73.9715 65.2376 73.9715 65.7779C73.9715 66.3183 73.7576 66.8368 73.3767 67.22C72.7835 67.8541 73.1312 68.2018 73.3767 68.4268C73.8507 68.8777 74.2282 69.4203 74.4861 70.0216C74.744 70.6228 74.877 71.2703 74.877 71.9245C74.877 72.5788 74.744 73.2262 74.4861 73.8275C74.2282 74.4288 73.8507 74.9714 73.3767 75.4223Z" fill="#0D39B9"/>
</svg>
