<svg width="91" height="91" viewBox="0 0 91 91" fill="none" xmlns="http://www.w3.org/2000/svg">
<path d="M54.1177 58.9909C52.7555 58.1518 51.1785 57.7274 49.5792 57.7694C47.9722 57.7383 46.3924 58.1858 45.0406 59.0552C43.2818 60.1044 41.2639 60.6389 39.2163 60.598C37.1647 60.6386 35.1427 60.1042 33.3792 59.0552C32.4143 58.4614 31.3378 58.0719 30.2163 57.9109C30.3615 61.3307 31.742 64.5819 34.1018 67.0613C36.4616 69.5408 39.6406 71.0803 43.049 71.3943C46.4575 71.7083 49.8642 70.7755 52.6373 68.7689C55.4104 66.7623 57.3616 63.8181 58.1292 60.4823C56.7071 60.2531 55.3441 59.7463 54.1177 58.9909Z" fill="#0D39B9"/>
<path d="M44.2949 36.4395C40.0712 36.4395 35.9423 37.6919 32.4303 40.0385C28.9184 42.3851 26.1812 45.7204 24.5648 49.6227C22.9485 53.5249 22.5255 57.8188 23.3496 61.9614C24.1736 66.104 26.2075 69.9093 29.1942 72.8959C32.1808 75.8826 35.986 77.9165 40.1286 78.7405C44.2712 79.5645 48.5652 79.1416 52.4674 77.5253C56.3696 75.9089 59.7049 73.1717 62.0515 69.6598C64.3981 66.1478 65.6506 62.0189 65.6506 57.7952C65.6438 52.1334 63.3917 46.7054 59.3882 42.7019C55.3847 38.6984 49.9567 36.4463 44.2949 36.4395ZM61.0092 59.1966C60.6314 63.5084 58.6056 67.5085 55.3533 70.3646C52.1011 73.2207 47.8729 74.7129 43.5484 74.5308C39.2239 74.3486 35.1362 72.506 32.1357 69.3865C29.1352 66.2669 27.4531 62.1106 27.4392 57.7823C27.4392 57.3194 27.4392 56.8566 27.5164 56.4066C27.7005 51.9515 29.6469 47.7521 32.9273 44.7321C36.2077 41.7121 40.5534 40.1189 45.0085 40.303C49.4636 40.4872 53.663 42.4335 56.683 45.7139C59.703 48.9943 61.2962 53.3401 61.1121 57.7952C61.1121 58.258 61.1121 58.7209 61.0478 59.1837L61.0092 59.1966Z" fill="#0D39B9"/>
<path d="M89.475 0.837891H2.20075C1.84033 0.841244 1.49563 0.985906 1.24077 1.24077C0.985906 1.49563 0.841244 1.84033 0.837891 2.20075V16.3436C6.95789 16.0479 31.2064 15.4565 52.9993 22.7722C54.375 23.235 55.815 23.8136 57.5379 24.585C64.17 27.6571 71.405 29.2078 78.7136 29.1236C82.8172 29.0786 86.8958 28.4774 90.8379 27.3365V2.20075C90.8345 1.84033 90.6898 1.49563 90.435 1.24077C90.1801 0.985906 89.8354 0.841244 89.475 0.837891ZM9.01503 9.01503H8.3336C7.97215 9.01503 7.6255 8.87144 7.36992 8.61586C7.11433 8.36027 6.97075 8.01363 6.97075 7.65217C6.97075 7.29072 7.11433 6.94407 7.36992 6.68849C7.6255 6.4329 7.97215 6.28932 8.3336 6.28932H9.01503C9.37648 6.28932 9.72313 6.4329 9.97872 6.68849C10.2343 6.94407 10.3779 7.29072 10.3779 7.65217C10.3779 8.01363 10.2343 8.36027 9.97872 8.61586C9.72313 8.87144 9.37648 9.01503 9.01503 9.01503ZM15.5465 9.01503H14.865C14.5036 9.01503 14.1569 8.87144 13.9013 8.61586C13.6458 8.36027 13.5022 8.01363 13.5022 7.65217C13.5022 7.29072 13.6458 6.94407 13.9013 6.68849C14.1569 6.4329 14.5036 6.28932 14.865 6.28932H15.5465C15.9079 6.28932 16.2546 6.4329 16.5101 6.68849C16.7657 6.94407 16.9093 7.29072 16.9093 7.65217C16.9093 8.01363 16.7657 8.36027 16.5101 8.61586C16.2546 8.87144 15.9079 9.01503 15.5465 9.01503ZM26.745 13.3479C25.7784 13.3377 24.8365 13.0418 24.0377 12.4974C23.2389 11.953 22.6191 11.1845 22.2562 10.2886C21.8933 9.39261 21.8036 8.40933 21.9984 7.46252C22.1931 6.5157 22.6637 5.64768 23.3508 4.96773C24.0379 4.28779 24.9107 3.82633 25.8595 3.64145C26.8083 3.45657 27.7906 3.55653 28.6827 3.92876C29.5748 4.30098 30.3369 4.92882 30.8729 5.73324C31.4089 6.53765 31.695 7.48267 31.695 8.44932C31.6951 9.09696 31.5667 9.73817 31.3173 10.3359C31.0679 10.9336 30.7025 11.4759 30.2421 11.9314C29.7818 12.387 29.2357 12.7467 28.6354 12.9899C28.0352 13.233 27.3926 13.3547 26.745 13.3479ZM84.4736 16.9607C84.4702 17.5496 84.2348 18.1134 83.8184 18.5298C83.402 18.9462 82.8382 19.1817 82.2493 19.185H64.8922C64.301 19.185 63.734 18.9511 63.3148 18.5343C62.8956 18.1176 62.6584 17.5518 62.655 16.9607V8.26932C62.6584 7.67822 62.8956 7.11249 63.3148 6.69572C63.734 6.27895 64.301 6.04502 64.8922 6.04503H82.2493C82.8382 6.04841 83.402 6.28383 83.8184 6.70024C84.2348 7.11664 84.4702 7.68044 84.4736 8.26932V16.9607Z" fill="#0D39B9"/>
<path d="M78.7779 31.8237H77.685C70.349 31.7885 63.1044 30.1932 56.4322 27.1437C54.7864 26.4108 53.4236 25.858 52.125 25.4208C30.5765 18.1565 6.52075 18.838 0.837891 19.0951V89.4751C0.841244 89.8355 0.985906 90.1802 1.24077 90.4351C1.49563 90.6899 1.84033 90.8346 2.20075 90.8379H89.475C89.8354 90.8346 90.1801 90.6899 90.435 90.4351C90.6898 90.1802 90.8345 89.8355 90.8379 89.4751V30.1651C86.9034 31.222 82.8515 31.7793 78.7779 31.8237ZM74.9207 63.5937C74.9276 63.961 74.8611 64.326 74.7253 64.6673C74.5894 65.0087 74.3869 65.3195 74.1295 65.5816C73.8721 65.8438 73.5651 66.052 73.2263 66.1942C72.8875 66.3363 72.5238 66.4094 72.1564 66.4094H66.7822C64.7796 71.673 60.9957 76.0683 56.0882 78.8311C51.1808 81.5938 45.4603 82.5493 39.9214 81.5312C34.3825 80.5132 29.3756 77.5861 25.7712 73.2589C22.1669 68.9318 20.1931 63.4782 20.1931 57.8465C20.1931 52.2149 22.1669 46.7613 25.7712 42.4341C29.3756 38.1069 34.3825 35.1799 39.9214 34.1618C45.4603 33.1438 51.1808 34.0992 56.0882 36.862C60.9957 39.6247 64.7796 44.0201 66.7822 49.2837H72.1564C72.8896 49.2837 73.5927 49.5749 74.1111 50.0933C74.6295 50.6117 74.9207 51.3148 74.9207 52.048V63.5937Z" fill="#0D39B9"/>
<path d="M68.3763 57.7951C68.3935 59.7617 68.1646 61.7226 67.6949 63.6323H72.2206V51.9966H67.6692C68.1392 53.8936 68.3767 55.8408 68.3763 57.7951Z" fill="#0D39B9"/>
</svg>
