<svg width="90" height="90" viewBox="0 0 90 90" fill="none" xmlns="http://www.w3.org/2000/svg">
<g clip-path="url(#clip0_30_98)">
<path d="M78.2714 63.4727C74.5862 63.4727 71.5991 66.4598 71.5991 70.1457C71.5991 73.8308 74.5862 76.818 78.2714 76.818C81.9573 76.818 84.9444 73.8308 84.9444 70.1457C84.9436 66.4606 81.9565 63.4735 78.2714 63.4727Z" fill="#0D39B9"/>
<path d="M74.7714 32.5653C73.5457 30.2858 71.1566 28.8746 68.5693 28.9018L52.9517 28.9625V47.5889H82.8157L74.7714 32.5653Z" fill="#0D39B9"/>
<path d="M20.7753 58.1917C14.2669 58.1933 8.03844 55.5483 3.52018 50.8638H0.552246V68.262H4.33892C5.19844 63.7589 9.25136 60.1569 14.1022 60.1569C18.9539 60.1569 23.0268 63.7589 23.8863 68.262H49.6767V50.8638H38.0304C33.5121 55.5483 27.2836 58.1933 20.7753 58.1917Z" fill="#0D39B9"/>
<path d="M87.2572 50.8638H52.9517V68.262H68.5077C69.3672 63.7589 73.4202 60.1569 78.271 60.1569C83.1227 60.1569 87.1748 63.7589 88.0352 68.262H89.9996V53.627C89.9797 52.1175 88.7667 50.8958 87.2572 50.8638Z" fill="#0D39B9"/>
<path d="M20.7755 54.9993C32.2499 54.9993 41.5511 45.6973 41.5511 34.2238C41.5511 22.7494 32.2499 13.4482 20.7755 13.4482C9.30118 13.4482 0 22.7494 0 34.2238C0.0151915 45.6909 9.30757 54.9833 20.7755 54.9993ZM18.3601 24.0095C18.3601 23.1052 19.0933 22.372 19.9976 22.372C20.9019 22.372 21.635 23.1052 21.635 24.0095V34.203L26.6706 39.197C27.3159 39.8262 27.3342 40.8584 26.7114 41.5101C26.4028 41.8195 25.9814 41.989 25.5448 41.981C25.1099 41.9794 24.6917 41.8115 24.3783 41.5101L18.8518 36.0451C18.5272 35.7421 18.3353 35.3224 18.3193 34.8786V24.0095H18.3601Z" fill="#0D39B9"/>
<path d="M14.1024 63.4727C10.4173 63.4727 7.43018 66.4598 7.43018 70.1457C7.43018 73.8308 10.4173 76.818 14.1024 76.818C17.7884 76.818 20.7755 73.8308 20.7755 70.1457C20.7747 66.4606 17.7876 63.4735 14.1024 63.4727Z" fill="#0D39B9"/>
</g>
<defs>
<clipPath id="clip0_30_98">
<rect width="90" height="90" fill="white"/>
</clipPath>
</defs>
</svg>
