<svg width="90" height="55" viewBox="0 0 90 55" fill="none" xmlns="http://www.w3.org/2000/svg">
<path d="M74.2597 49.5813C75.77 49.5813 76.9944 48.3569 76.9944 46.8466C76.9944 45.3362 75.77 44.1118 74.2597 44.1118C72.7493 44.1118 71.5249 45.3362 71.5249 46.8466C71.5249 48.3569 72.7493 49.5813 74.2597 49.5813Z" fill="#0D39B9"/>
<path d="M13.5042 37.1705C18.411 37.1705 22.4697 40.9445 23.0583 45.5797H53.691V15.4133C53.6994 14.1313 54.2151 12.9047 55.1253 12.0019C56.0355 11.099 57.2662 10.5932 58.5483 10.5952L63.8343 10.5649L59.9925 1.70607C59.7661 1.19194 59.3931 0.755948 58.9202 0.452575C58.4474 0.149201 57.8956 -0.00810164 57.3339 0.0003214H2.95107C1.35367 0.0003214 0 1.21822 0 2.81562V42.6976C0.0137593 43.4696 0.331267 44.2052 0.883688 44.7447C1.43611 45.2842 2.17892 45.5842 2.95107 45.5797H3.95807C4.57397 40.9445 8.61856 37.1705 13.5042 37.1705ZM17.4586 18.4617L19.7104 13.1621C20.3192 11.7313 21.2973 10.4879 22.5444 9.55925C23.7916 8.63056 25.2631 8.04989 26.8084 7.87667C26.942 7.86197 27.0771 7.8753 27.2052 7.91581C27.3333 7.95631 27.4515 8.0231 27.5524 8.11191C28.6403 9.06353 30.0364 9.58842 31.4817 9.58927C32.9271 9.59013 34.3238 9.06688 35.4129 8.11654C35.5144 8.02744 35.6333 7.9603 35.7621 7.91935C35.8909 7.87841 36.0267 7.86453 36.1611 7.87861C37.704 8.05377 39.1727 8.63522 40.4174 9.56359C41.6621 10.492 42.6382 11.734 43.246 13.1629L45.4927 18.4625C45.5449 18.59 45.5692 18.7272 45.5641 18.8649C45.559 19.0026 45.5245 19.1376 45.4629 19.2609C45.3987 19.3856 45.3091 19.4954 45.1999 19.5834C45.0907 19.6713 44.9642 19.7354 44.8287 19.7715L40.5581 20.9303V34.0406C40.5662 34.1604 40.5491 34.2805 40.5079 34.3932C40.4668 34.506 40.4024 34.6088 40.3191 34.6952C40.2357 34.7816 40.1352 34.8495 40.024 34.8947C39.9128 34.9398 39.7934 34.9612 39.6734 34.9574H23.288C23.168 34.9612 23.0485 34.9398 22.9372 34.8946C22.826 34.8493 22.7255 34.7813 22.6421 34.6949C22.5588 34.6084 22.4945 34.5055 22.4534 34.3926C22.4123 34.2798 22.3953 34.1596 22.4034 34.0398V20.918L18.1352 19.7714C17.9993 19.7356 17.8725 19.6718 17.7629 19.5839C17.6533 19.496 17.5634 19.3861 17.499 19.2613C17.4358 19.1385 17.3995 19.0037 17.3927 18.8658C17.3858 18.7279 17.4085 18.5901 17.4592 18.4617H17.4586ZM4.24893 19.9703C4.24893 20.2264 4.14719 20.472 3.96609 20.6531C3.78499 20.8342 3.53937 20.9359 3.28326 20.9359C3.02715 20.9359 2.78153 20.8342 2.60043 20.6531C2.41934 20.472 2.3176 20.2264 2.3176 19.9703V8.51363C2.3176 8.25752 2.41934 8.0119 2.60043 7.8308C2.78153 7.6497 3.02715 7.54796 3.28326 7.54796C3.53937 7.54796 3.78499 7.6497 3.96609 7.8308C4.14719 8.0119 4.24893 8.25752 4.24893 8.51363V19.9703ZM4.24893 4.39255C4.24893 4.64866 4.14719 4.89428 3.96609 5.07538C3.78499 5.25648 3.53937 5.35822 3.28326 5.35822C3.02715 5.35822 2.78153 5.25648 2.60043 5.07538C2.41934 4.89428 2.3176 4.64866 2.3176 4.39255V3.18199C2.3176 2.92588 2.41934 2.68026 2.60043 2.49917C2.78153 2.31807 3.02715 2.21633 3.28326 2.21633C3.53937 2.21633 3.78499 2.31807 3.96609 2.49917C4.14719 2.68026 4.24893 2.92588 4.24893 3.18199V4.39255Z" fill="#0D39B9"/>
<path d="M87.3589 29.3779L84.6681 28.9917C84.2825 28.9369 83.9115 28.8065 83.5763 28.608C83.2412 28.4095 82.9486 28.1467 82.7154 27.8348L73.1041 15.0442C72.4908 14.2305 71.6956 13.5717 70.7821 13.1204C69.8686 12.6691 68.8622 12.4378 67.8433 12.445L58.5554 12.5164C57.7831 12.5147 57.0415 12.8182 56.4921 13.3608C55.9426 13.9035 55.6299 14.6413 55.6221 15.4134V45.5799H64.7036C65.2924 40.9447 69.3507 37.1399 74.2575 37.1399C79.1642 37.1399 83.2233 40.9447 83.8116 45.5799H87.0485C88.6459 45.5799 89.9998 44.3575 89.9998 42.7601V41.1378H85.4289C84.8589 41.1397 84.3107 40.9184 83.9017 40.5214C83.4927 40.1244 83.2552 39.5832 83.2401 39.0133V35.2472C83.2401 34.0759 84.2575 33.2193 85.4289 33.2193H89.9998V32.3972C89.9902 31.6622 89.7191 30.9546 89.2352 30.4013C88.7512 29.8481 88.086 29.4852 87.3589 29.3779ZM76.9455 26.9292C76.8618 27.0797 76.7393 27.205 76.5909 27.2923C76.4424 27.3795 76.2733 27.4255 76.1011 27.4254H59.2325C59.1088 27.4243 58.9867 27.3982 58.8734 27.3486C58.7601 27.299 58.658 27.227 58.5733 27.1369C58.4886 27.0468 58.423 26.9405 58.3805 26.8244C58.338 26.7083 58.3194 26.5847 58.3259 26.4612V16.4707C58.3259 15.9374 58.6993 15.4511 59.2325 15.4511H69.8753C70.0414 15.4565 70.2036 15.5035 70.3468 15.5879C70.49 15.6722 70.6097 15.7912 70.6949 15.9339L76.9202 25.9382C77.0112 26.0866 77.0614 26.2563 77.0658 26.4303C77.0703 26.6043 77.0288 26.7764 76.9455 26.9292Z" fill="#0D39B9"/>
<path d="M16.2391 46.8466C16.2391 46.3057 16.0787 45.777 15.7782 45.3272C15.4777 44.8775 15.0506 44.527 14.5508 44.32C14.0511 44.113 13.5013 44.0588 12.9708 44.1644C12.4403 44.2699 11.953 44.5303 11.5705 44.9128C11.1881 45.2953 10.9276 45.7826 10.8221 46.3131C10.7166 46.8435 10.7707 47.3934 10.9777 47.8931C11.1847 48.3928 11.5352 48.82 11.9849 49.1205C12.4347 49.421 12.9634 49.5813 13.5043 49.5813C14.2293 49.5805 14.9245 49.2921 15.4372 48.7794C15.9499 48.2668 16.2382 47.5716 16.2391 46.8466Z" fill="#0D39B9"/>
<path d="M22.4037 16.8074C22.4037 16.5512 22.5054 16.3056 22.6865 16.1245C22.8676 15.9434 23.1132 15.8417 23.3694 15.8417C23.6255 15.8417 23.8711 15.9434 24.0522 16.1245C24.2333 16.3056 24.335 16.5512 24.335 16.8074V33.0259H38.6269V16.8074C38.6269 16.5512 38.7286 16.3056 38.9097 16.1245C39.0908 15.9434 39.3364 15.8417 39.5925 15.8417C39.8486 15.8417 40.0943 15.9434 40.2754 16.1245C40.4565 16.3056 40.5582 16.5512 40.5582 16.8074V18.9272L43.2526 18.2002L41.4735 13.9175C41.0257 12.8655 40.3215 11.9424 39.4253 11.2325C38.529 10.5226 37.4693 10.0485 36.3427 9.8534C34.9534 10.9326 33.2443 11.5183 31.4852 11.5181C29.726 11.5178 28.017 10.9316 26.6281 9.85205C25.4997 10.0457 24.438 10.5194 23.54 11.2296C22.6421 11.9399 21.9367 12.864 21.4884 13.9175L19.7104 18.1975L22.4037 18.9167V16.8074Z" fill="#0D39B9"/>
<path d="M21.2029 46.8463C21.2029 45.3236 20.7514 43.8351 19.9054 42.5691C19.0594 41.303 17.8571 40.3162 16.4503 39.7335C15.0435 39.1508 13.4955 38.9983 12.0021 39.2954C10.5086 39.5925 9.13683 40.3257 8.06012 41.4024C6.98342 42.4791 6.25017 43.8509 5.95311 45.3444C5.65605 46.8378 5.80851 48.3858 6.39122 49.7926C6.97393 51.1993 7.96071 52.4017 9.22678 53.2477C10.4929 54.0937 11.9813 54.5452 13.504 54.5452C15.5452 54.5428 17.5021 53.731 18.9454 52.2876C20.3887 50.8443 21.2006 48.8875 21.2029 46.8463ZM8.83814 46.8463C8.83814 45.9235 9.1118 45.0213 9.62452 44.254C10.1372 43.4866 10.866 42.8886 11.7186 42.5354C12.5712 42.1822 13.5094 42.0898 14.4145 42.2699C15.3197 42.4499 16.1511 42.8943 16.8037 43.5469C17.4562 44.1995 17.9006 45.0309 18.0807 45.936C18.2607 46.8411 18.1683 47.7793 17.8151 48.632C17.462 49.4846 16.8639 50.2133 16.0966 50.726C15.3292 51.2388 14.4271 51.5124 13.5042 51.5124C12.2672 51.511 11.0812 51.019 10.2065 50.1444C9.33172 49.2697 8.83962 48.0837 8.83814 46.8467V46.8463Z" fill="#0D39B9"/>
<path d="M60.2578 17.3823V25.4939H74.3621L69.3403 17.3823H60.2578Z" fill="#0D39B9"/>
<path d="M74.2579 39.1484C72.7353 39.1484 71.2468 39.6 69.9807 40.4459C68.7146 41.2919 67.7278 42.4943 67.1451 43.9011C66.5624 45.3079 66.41 46.8558 66.707 48.3493C67.0041 49.8427 67.7373 51.2145 68.814 52.2912C69.8907 53.3679 71.2625 54.1012 72.756 54.3982C74.2494 54.6953 75.7974 54.5428 77.2042 53.9601C78.611 53.3774 79.8134 52.3906 80.6593 51.1246C81.5053 49.8585 81.9568 48.37 81.9568 46.8473C81.9545 44.8062 81.1426 42.8493 79.6993 41.406C78.256 39.9627 76.2991 39.1508 74.2579 39.1484ZM74.2597 51.5134C73.3368 51.5134 72.4347 51.2397 71.6673 50.727C70.9 50.2143 70.3019 49.4856 69.9488 48.6329C69.5956 47.7803 69.5032 46.8421 69.6833 45.937C69.8633 45.0319 70.3077 44.2004 70.9603 43.5479C71.6128 42.8953 72.4442 42.4509 73.3494 42.2709C74.2545 42.0908 75.1927 42.1832 76.0453 42.5364C76.8979 42.8896 77.6267 43.4876 78.1394 44.255C78.6521 45.0223 78.9258 45.9244 78.9258 46.8473C78.9242 48.0843 78.4322 49.2701 77.5575 50.1448C76.6827 51.0194 75.4969 51.5114 74.2599 51.5128L74.2597 51.5134Z" fill="#0D39B9"/>
<path d="M85.1714 35.2472V39.0133C85.1714 39.1197 85.3224 39.2064 85.4288 39.2064H89.9997V35.1506H85.4288C85.3224 35.1506 85.1714 35.1408 85.1714 35.2472Z" fill="#0D39B9"/>
</svg>
