<svg width="91" height="78" viewBox="0 0 91 78" fill="none" xmlns="http://www.w3.org/2000/svg">
<path d="M84.1966 17.0451V18.3951H55.0489L52.2875 10.0906C51.9305 8.98006 51.443 7.9158 50.8352 6.92014C50.4779 6.30421 50.0744 5.71617 49.6284 5.16105L51.8171 3.91332C53.5672 2.91407 55.5085 2.29553 57.5141 2.09814C59.5197 1.90076 61.5444 2.12897 63.4557 2.76786L77.2011 7.34968C79.2383 8.02526 81.0108 9.32572 82.2666 11.0663C83.5224 12.8068 84.1978 14.8988 84.1966 17.0451Z" fill="#0D39B9"/>
<path d="M48.3807 11.3385C48.1187 10.5058 47.7546 9.70882 47.2966 8.96574C46.3635 7.37149 45.0756 6.01365 43.5329 4.99755L39.1352 2.0521C37.3299 0.855839 35.2414 0.156085 33.0798 0.0232298C30.9182 -0.109626 28.7598 0.329103 26.8216 1.29528L13.2397 8.08619C11.3009 9.05077 9.6537 10.5141 8.46744 12.3258C7.28117 14.1376 6.59857 16.2325 6.48975 18.3953H50.7534L48.3807 11.3385Z" fill="#0D39B9"/>
<path d="M5.11133 36.5117L11.6916 71.0615C12.0477 72.9326 13.0455 74.6208 14.513 75.835C15.9804 77.0493 17.8255 77.7136 19.7302 77.7133H70.9361C72.8408 77.7136 74.6859 77.0493 76.1533 75.835C77.6208 74.6208 78.6186 72.9326 78.9747 71.0615L85.555 36.5117H5.11133ZM13.8475 51.5049L12.295 43.3231C12.2387 43.0274 12.2483 42.723 12.3232 42.4315C12.3982 42.14 12.5365 41.8686 12.7283 41.6367C12.9202 41.4048 13.1608 41.2181 13.4331 41.09C13.7054 40.9618 14.0026 40.8952 14.3036 40.8951H23.0786C23.6011 40.8942 24.1042 41.0934 24.4846 41.4517C24.8649 41.81 25.0937 42.3003 25.1241 42.8219L25.5945 51.0038C25.6107 51.2822 25.5698 51.561 25.4742 51.823C25.3787 52.085 25.2306 52.3248 25.039 52.5274C24.8475 52.7301 24.6164 52.8915 24.3602 53.0016C24.104 53.1118 23.8279 53.1683 23.5491 53.1679H15.8581C15.3818 53.1682 14.9203 53.0022 14.5532 52.6986C14.1861 52.395 13.9365 51.9728 13.8475 51.5049ZM26.1202 70.9367C25.9289 71.139 25.6984 71.3001 25.4427 71.4102C25.187 71.5203 24.9115 71.577 24.6331 71.5769H19.3763C18.9003 71.5768 18.4393 71.4106 18.0727 71.1071C17.706 70.8035 17.4567 70.3816 17.3677 69.914L15.4225 59.6867C15.3662 59.3909 15.3759 59.0863 15.4509 58.7946C15.5259 58.503 15.6644 58.2315 15.8565 57.9996C16.0485 57.7677 16.2894 57.581 16.562 57.4529C16.8345 57.3249 17.132 57.2586 17.4331 57.2588H24.04C24.5625 57.2579 25.0656 57.457 25.4459 57.8153C25.8263 58.1736 26.0551 58.6639 26.0854 59.1856L26.6786 69.4129C26.6944 69.6915 26.653 69.9705 26.557 70.2325C26.461 70.4946 26.3123 70.7343 26.1202 70.9367ZM43.2877 69.5315C43.2877 70.074 43.0722 70.5942 42.6886 70.9778C42.305 71.3614 41.7847 71.5769 41.2422 71.5769H33.0604C32.5179 71.5769 31.9977 71.3614 31.6141 70.9778C31.2305 70.5942 31.015 70.074 31.015 69.5315V59.3042C31.015 58.7617 31.2305 58.2415 31.6141 57.8579C31.9977 57.4743 32.5179 57.2588 33.0604 57.2588H41.2422C41.7847 57.2588 42.305 57.4743 42.6886 57.8579C43.0722 58.2415 43.2877 58.7617 43.2877 59.3042V69.5315ZM43.2877 51.1224C43.2877 51.6649 43.0722 52.1852 42.6886 52.5688C42.305 52.9524 41.7847 53.1679 41.2422 53.1679H33.0604C32.5179 53.1679 31.9977 52.9524 31.6141 52.5688C31.2305 52.1852 31.015 51.6649 31.015 51.1224V42.9406C31.015 42.3981 31.2305 41.8778 31.6141 41.4942C31.9977 41.1106 32.5179 40.8951 33.0604 40.8951H41.2422C41.7847 40.8951 42.305 41.1106 42.6886 41.4942C43.0722 41.8778 43.2877 42.3981 43.2877 42.9406V51.1224ZM59.6513 69.5315C59.6513 70.074 59.4358 70.5942 59.0522 70.9778C58.6686 71.3614 58.1484 71.5769 57.6059 71.5769H49.4241C48.8816 71.5769 48.3613 71.3614 47.9777 70.9778C47.5941 70.5942 47.3786 70.074 47.3786 69.5315V59.3042C47.3786 58.7617 47.5941 58.2415 47.9777 57.8579C48.3613 57.4743 48.8816 57.2588 49.4241 57.2588H57.6059C58.1484 57.2588 58.6686 57.4743 59.0522 57.8579C59.4358 58.2415 59.6513 58.7617 59.6513 59.3042V69.5315ZM59.6513 51.1224C59.6513 51.6649 59.4358 52.1852 59.0522 52.5688C58.6686 52.9524 58.1484 53.1679 57.6059 53.1679H49.4241C48.8816 53.1679 48.3613 52.9524 47.9777 52.5688C47.5941 52.1852 47.3786 51.6649 47.3786 51.1224V42.9406C47.3786 42.3981 47.5941 41.8778 47.9777 41.4942C48.3613 41.1106 48.8816 40.8951 49.4241 40.8951H57.6059C58.1484 40.8951 58.6686 41.1106 59.0522 41.4942C59.4358 41.8778 59.6513 42.3981 59.6513 42.9406V51.1224ZM73.2986 69.914C73.2096 70.3816 72.9603 70.8035 72.5936 71.1071C72.227 71.4106 71.766 71.5768 71.29 71.5769H66.0331C65.7542 71.5774 65.4782 71.5208 65.222 71.4107C64.9658 71.3006 64.7347 71.1392 64.5432 70.9365C64.3516 70.7338 64.2035 70.4941 64.108 70.2321C64.0124 69.9701 63.9715 69.6913 63.9877 69.4129L64.5809 59.1856C64.6112 58.6639 64.84 58.1736 65.2203 57.8153C65.6007 57.457 66.1038 57.2579 66.6263 57.2588H73.2331C73.5343 57.2586 73.8318 57.3249 74.1043 57.4529C74.3769 57.581 74.6178 57.7677 74.8098 57.9996C75.0019 58.2315 75.1404 58.503 75.2154 58.7946C75.2904 59.0863 75.3001 59.3909 75.2438 59.6867L73.2986 69.914ZM76.8188 51.5049C76.7298 51.9728 76.4801 52.395 76.1131 52.6986C75.746 53.0022 75.2845 53.1682 74.8082 53.1679H67.1172C66.8383 53.1683 66.5623 53.1118 66.3061 53.0016C66.0498 52.8915 65.8188 52.7301 65.6273 52.5274C65.4357 52.3248 65.2876 52.085 65.1921 51.823C65.0965 51.561 65.0556 51.2822 65.0718 51.0038L65.5422 42.8219C65.5725 42.3003 65.8014 41.81 66.1817 41.4517C66.5621 41.0934 67.0651 40.8942 67.5877 40.8951H76.3627C76.6637 40.8952 76.9609 40.9618 77.2332 41.09C77.5055 41.2181 77.7461 41.4048 77.938 41.6367C78.1298 41.8686 78.2681 42.14 78.343 42.4315C78.418 42.723 78.4276 43.0274 78.3713 43.3231L76.8188 51.5049Z" fill="#0D39B9"/>
<path d="M86.2421 32.4209H4.42392C3.41782 32.4927 2.42399 32.1649 1.6581 31.5085C0.892215 30.8522 0.416073 29.9203 0.333008 28.915V25.9921C0.41659 24.987 0.892878 24.0554 1.65864 23.3992C2.4244 22.7429 3.41794 22.4149 4.42392 22.4862H86.2421C87.2481 22.4149 88.2416 22.7429 89.0074 23.3992C89.7731 24.0554 90.2494 24.987 90.333 25.9921V28.915C90.2499 29.9203 89.7738 30.8522 89.0079 31.5085C88.242 32.1649 87.2482 32.4927 86.2421 32.4209Z" fill="#0D39B9"/>
</svg>
