<svg width="90" height="88" viewBox="0 0 90 88" fill="none" xmlns="http://www.w3.org/2000/svg">
<path d="M80.5191 53.4809L60.0364 61.162C64.7022 64.0404 66.4758 69.9548 64.1639 74.9257L82.7226 67.9585C83.4252 67.5923 84.0644 67.1155 84.6157 66.5464C86.0832 65.1026 86.9057 63.1275 86.8967 61.0688C86.8835 57.3308 84.1991 54.137 80.5191 53.4809ZM62.0536 70.1154V70.0999C61.9114 65.9268 58.486 62.6181 54.3105 62.6206H7.75877C3.4738 62.6206 0.000150621 66.0942 0.000150621 70.3792C-0.00242051 70.4674 0.0027719 70.5557 0.0156679 70.643V70.6585C0.157917 74.8315 3.58331 78.1402 7.75877 78.1378H54.3105C56.3682 78.1378 58.3416 77.3204 59.7967 75.8654C61.2517 74.4103 62.0691 72.4369 62.0691 70.3792C62.0717 70.291 62.0665 70.2027 62.0536 70.1154ZM55.8622 71.9309H6.20705C5.35005 71.9309 4.65532 71.2362 4.65532 70.3792C4.65532 69.5222 5.35005 68.8275 6.20705 68.8275H55.8622C56.7192 68.8275 57.4139 69.5222 57.4139 70.3792C57.4139 71.2362 56.7192 71.9309 55.8622 71.9309ZM62.0536 51.4947V51.4792C61.9114 47.3062 58.486 43.9975 54.3105 43.9999H7.75877C3.4738 43.9999 0.000150621 47.4735 0.000150621 51.7585C-0.00242051 51.8467 0.0027719 51.935 0.0156679 52.0223V52.0378C0.157917 56.2109 3.58331 59.5196 7.75877 59.5171H54.3105C55.4947 59.5244 56.6641 59.2533 57.7243 58.7257C57.7677 58.6987 57.8147 58.6778 57.8639 58.6637C58.5788 58.2958 59.2287 57.8136 59.7881 57.2361C61.2556 55.7923 62.0781 53.8172 62.0691 51.7585C62.0717 51.6703 62.0665 51.582 62.0536 51.4947ZM55.8622 53.3102H6.20705C5.35005 53.3102 4.65532 52.6155 4.65532 51.7585C4.65532 50.9015 5.35005 50.2068 6.20705 50.2068H55.8622C56.7192 50.2068 57.4139 50.9015 57.4139 51.7585C57.4139 52.6155 56.7192 53.3102 55.8622 53.3102ZM62.0536 32.874V32.8585C61.9114 28.6855 58.486 25.3768 54.3105 25.3792H7.75877C7.10402 25.3747 6.45162 25.4582 5.81912 25.6275C5.77681 25.6404 5.73535 25.656 5.69498 25.674C4.40326 26.0186 3.22556 26.6984 2.28119 27.6447C0.81576 29.0963 -0.00597228 31.0752 0.000150621 33.1378C-0.00242051 33.226 0.0027719 33.3143 0.0156679 33.4016V33.4171C0.157917 37.5902 3.58331 40.8989 7.75877 40.8964H54.3105C55.4947 40.9037 56.6641 40.6326 57.7243 40.1051C57.7677 40.078 57.8147 40.0571 57.8639 40.043C58.5788 39.6751 59.2287 39.1929 59.7881 38.6154C61.2556 37.1716 62.0781 35.1965 62.0691 33.1378C62.0717 33.0496 62.0665 32.9613 62.0536 32.874ZM55.8622 34.6895H6.20705C5.35005 34.6895 4.65532 33.9948 4.65532 33.1378C4.65532 32.2808 5.35005 31.5861 6.20705 31.5861H55.8622C56.7192 31.5861 57.4139 32.2808 57.4139 33.1378C57.4139 33.9948 56.7192 34.6895 55.8622 34.6895ZM79.1381 16.0688H32.5864C31.9206 16.0684 31.2579 16.1572 30.6157 16.3326C29.995 16.5344 22.4226 19.374 14.695 22.2757H54.3105C58.0101 22.2767 61.4549 24.1607 63.4517 27.2753C65.4485 30.3898 65.7227 34.3065 64.1795 37.6688L71.0691 35.093C76.7795 32.9361 80.4726 31.5551 82.5674 30.7792C82.6295 30.7482 82.7071 30.7016 82.8002 30.6551C83.4803 30.3159 84.095 29.8588 84.6157 29.3051C86.0832 27.8612 86.9057 25.8861 86.8967 23.8275C86.8967 19.5425 83.423 16.0688 79.1381 16.0688ZM80.5346 34.8447C78.4553 35.6206 75.7088 36.6602 72.1553 37.9947L60.0364 42.5413C63.226 44.5199 65.168 48.005 65.1726 51.7585C65.1683 53.3274 64.8298 54.8773 64.1795 56.3051L82.5519 49.3999C82.6295 49.3688 82.7071 49.3223 82.8002 49.2757C83.4803 48.9366 84.095 48.4795 84.6157 47.9257C86.0832 46.4819 86.9057 44.5068 86.8967 42.4482C86.883 38.7126 84.2092 35.5171 80.5346 34.8447Z" fill="#0D39B9"/>
<path d="M12.414 6.75865C13.271 6.75865 13.9658 6.06392 13.9658 5.20693V2.10348C13.9658 1.24649 13.271 0.551758 12.414 0.551758C11.557 0.551758 10.8623 1.24649 10.8623 2.10348V5.20693C10.8623 6.06392 11.557 6.75865 12.414 6.75865Z" fill="#0D39B9"/>
<path d="M12.414 9.8623C11.557 9.8623 10.8623 10.557 10.8623 11.414V14.5175C10.8623 15.3745 11.557 16.0692 12.414 16.0692C13.271 16.0692 13.9658 15.3745 13.9658 14.5175V11.414C13.9658 10.557 13.271 9.8623 12.414 9.8623Z" fill="#0D39B9"/>
<path d="M9.31045 6.75879H6.207C5.35 6.75879 4.65527 7.45352 4.65527 8.31051C4.65527 9.16751 5.35 9.86224 6.207 9.86224H9.31045C10.1674 9.86224 10.8622 9.16751 10.8622 8.31051C10.8622 7.45352 10.1674 6.75879 9.31045 6.75879Z" fill="#0D39B9"/>
<path d="M18.621 6.75879H15.5175C14.6606 6.75879 13.9658 7.45352 13.9658 8.31051C13.9658 9.16751 14.6606 9.86224 15.5175 9.86224H18.621C19.478 9.86224 20.1727 9.16751 20.1727 8.31051C20.1727 7.45352 19.478 6.75879 18.621 6.75879Z" fill="#0D39B9"/>
<path d="M87.2181 82.4717C86.6092 81.8837 85.6414 81.8921 85.0429 82.4906C84.4443 83.0892 84.4359 84.057 85.024 84.6659L87.3516 86.9934C87.9604 87.5815 88.9282 87.5731 89.5268 86.9745C90.1253 86.376 90.1338 85.4082 89.5457 84.7993L87.2181 82.4717Z" fill="#0D39B9"/>
<path d="M80.2352 75.4893C79.6263 74.9012 78.6585 74.9096 78.06 75.5082C77.4614 76.1068 77.453 77.0746 78.0411 77.6834L80.3686 80.011C80.9775 80.5991 81.9453 80.5907 82.5439 79.9921C83.1424 79.3936 83.1508 78.4257 82.5628 77.8169L80.2352 75.4893Z" fill="#0D39B9"/>
<path d="M80.3687 82.4717L78.0411 84.7993C77.6378 85.1889 77.476 85.7658 77.618 86.3084C77.76 86.8509 78.1837 87.2746 78.7262 87.4166C79.2687 87.5586 79.8457 87.3968 80.2353 86.9934L82.5629 84.6659C83.1509 84.057 83.1425 83.0892 82.544 82.4906C81.9454 81.8921 80.9776 81.8837 80.3687 82.4717Z" fill="#0D39B9"/>
<path d="M86.1208 80.4657C86.5323 80.4656 86.9269 80.3021 87.2178 80.011L89.5454 77.6834C90.1335 77.0746 90.1251 76.1068 89.5265 75.5082C88.928 74.9096 87.9602 74.9012 87.3513 75.4893L85.0237 77.8169C84.5801 78.2607 84.4474 78.928 84.6875 79.5077C84.9276 80.0875 85.4933 80.4655 86.1208 80.4657Z" fill="#0D39B9"/>
</svg>
