<svg width="90" height="90" viewBox="0 0 90 90" fill="none" xmlns="http://www.w3.org/2000/svg">
<path d="M46.3184 82.0898H6.76758C4.58336 82.0898 2.8125 83.8607 2.8125 86.0449C2.8125 88.2291 4.58336 90 6.76758 90H46.3184C48.5026 90 50.2734 88.2291 50.2734 86.0449C50.2734 83.8607 48.5026 82.0898 46.3184 82.0898Z" fill="#0D39B9"/>
<path d="M75.0957 26.543H60.8203V29.0376L55.5469 27.2797V20.7594C60.0918 19.5872 63.457 15.4523 63.457 10.5469C63.457 4.7303 58.7267 0 52.9102 0C47.0936 0 42.3633 4.7303 42.3633 10.5469H47.6367C47.6367 7.63962 50.0029 5.27344 52.9102 5.27344C55.8174 5.27344 58.1836 7.63962 58.1836 10.5469C58.1836 13.4541 55.8174 15.8203 52.9102 15.8203H50.2734V27.2797L45 29.0376V26.543H30.7246L18.6328 38.6348V58.1836H29.1797V63.6328H46.3184C51.4064 63.6328 55.5469 67.7733 55.5469 72.8613C55.5469 75.4445 54.473 77.7763 52.7563 79.4531C54.473 81.1299 55.5469 83.4618 55.5469 86.0449C55.5469 87.4656 55.1974 88.7963 54.6213 90H76.6406V58.1836H87.1875V38.6348L75.0957 26.543ZM52.9102 42.3633C48.5946 42.3633 45.0886 38.8875 45.0137 34.5898L52.9102 31.9579L60.8066 34.5898C60.7317 38.8875 57.2257 42.3633 52.9102 42.3633Z" fill="#0D39B9"/>
<path d="M46.3184 68.9062H6.76758C4.58336 68.9062 2.8125 70.6771 2.8125 72.8613C2.8125 75.0455 4.58336 76.8164 6.76758 76.8164H46.3184C48.5026 76.8164 50.2734 75.0455 50.2734 72.8613C50.2734 70.6771 48.5026 68.9062 46.3184 68.9062Z" fill="#0D39B9"/>
</svg>
